<?xml version="1.0" standalone="no"?>
<!DOCTYPE svg PUBLIC "-//W3C//DTD SVG 20010904//EN"
 "http://www.w3.org/TR/2001/REC-SVG-20010904/DTD/svg10.dtd">
<svg version="1.0" xmlns="http://www.w3.org/2000/svg"
 width="1024.000000pt" height="1024.000000pt" viewBox="0 0 1024.000000 1024.000000"
 preserveAspectRatio="xMidYMid meet">

<g transform="translate(0.000000,1024.000000) scale(0.100000,-0.100000)"
fill="#000000" stroke="none">
<path d="M5074 9060 c-11 -4 -71 -56 -134 -115 -522 -493 -1279 -806 -2205
-910 -71 -8 -220 -20 -330 -26 -112 -7 -214 -18 -232 -25 -18 -7 -42 -28 -53
-46 -21 -33 -21 -36 -17 -1288 4 -1347 4 -1321 58 -1635 162 -933 639 -1747
1413 -2413 373 -321 868 -625 1353 -831 165 -70 202 -74 318 -28 125 48 353
154 478 221 93 49 107 60 120 95 29 71 -9 144 -80 157 -29 6 -60 -6 -211 -79
-190 -91 -413 -187 -436 -187 -23 0 -256 104 -437 196 -535 270 -1012 639
-1413 1094 -491 557 -797 1222 -895 1948 -38 277 -41 392 -41 1498 0 977 2
1082 16 1088 9 3 46 6 82 6 105 0 460 38 652 70 809 134 1466 426 1972 875
l72 64 69 -62 c434 -389 966 -652 1642 -810 309 -73 724 -131 987 -139 45 -1
79 -6 82 -13 2 -6 4 -518 3 -1139 0 -1108 1 -1128 20 -1154 11 -15 38 -33 60
-41 37 -13 43 -13 79 5 80 41 74 -59 72 1286 -3 1196 -3 1197 -24 1225 -11 15
-32 33 -45 40 -13 7 -103 17 -199 23 -472 29 -736 69 -1105 165 -610 159
-1105 422 -1475 781 -113 110 -153 130 -216 104z"/>
<path d="M4347 7369 c-128 -30 -263 -144 -330 -280 -58 -119 -80 -213 -81
-359 -1 -155 19 -251 79 -375 164 -340 512 -418 760 -170 229 229 268 659 85
939 -128 195 -325 289 -513 245z m199 -250 c131 -63 221 -286 196 -484 -13
-99 -35 -165 -74 -228 -145 -229 -396 -160 -482 132 -53 180 -7 428 98 530 73
71 178 91 262 50z"/>
<path d="M5658 7357 c-169 -59 -293 -203 -360 -417 -20 -65 -23 -95 -23 -230
0 -179 12 -238 75 -367 94 -191 257 -303 440 -303 125 0 231 48 325 146 281
293 251 873 -55 1098 -123 91 -274 118 -402 73z m228 -238 c202 -97 261 -508
105 -732 -181 -259 -490 -57 -491 320 0 142 39 261 114 349 69 81 182 107 272
63z"/>
<path d="M3380 6400 c-231 -48 -405 -310 -387 -584 11 -160 62 -301 148 -409
59 -73 108 -112 189 -151 61 -29 72 -31 180 -31 107 0 119 2 175 29 83 40 173
134 219 228 96 194 86 461 -25 655 -108 189 -318 300 -499 263z m167 -251
c111 -53 193 -217 193 -384 0 -132 -41 -229 -121 -286 -48 -34 -143 -39 -203
-10 -90 44 -154 142 -182 281 -28 141 6 289 83 362 62 59 154 74 230 37z"/>
<path d="M6710 6399 c-81 -16 -170 -68 -246 -143 -296 -296 -242 -855 97
-1005 108 -48 253 -44 366 10 129 61 238 206 294 389 19 62 23 97 23 205 0
115 -4 139 -27 208 -50 143 -130 241 -241 295 -98 48 -173 59 -266 41z m188
-262 c161 -106 161 -462 0 -616 -56 -54 -111 -75 -187 -69 -70 5 -117 36 -161
105 -91 143 -53 410 77 540 59 59 94 74 169 70 47 -2 72 -9 102 -30z"/>
<path d="M4960 5906 c-295 -58 -488 -200 -652 -479 -47 -81 -142 -180 -298
-312 -350 -295 -486 -509 -506 -799 -33 -461 324 -846 784 -846 114 0 174 13
402 90 247 82 312 95 446 85 54 -3 128 -7 164 -8 63 -2 65 -1 87 32 42 62 19
141 -51 171 -100 44 -291 50 -457 15 -40 -9 -156 -43 -258 -77 -171 -57 -194
-62 -292 -66 -131 -5 -197 8 -299 59 -129 65 -235 192 -274 329 -37 133 -29
266 25 396 60 144 142 238 410 470 197 169 228 203 316 343 86 135 133 192
208 248 206 157 509 176 741 47 139 -76 218 -162 308 -332 56 -106 83 -128
149 -119 49 7 83 39 92 88 6 31 -1 51 -49 143 -31 60 -76 136 -100 170 -112
157 -302 285 -501 337 -100 26 -301 34 -395 15z"/>
<path d="M6907 5020 c-32 -12 -102 -40 -155 -64 -53 -24 -126 -56 -162 -71
-164 -69 -855 -378 -876 -391 -12 -9 -31 -35 -40 -60 -25 -65 -15 -607 15
-806 81 -544 258 -922 577 -1228 152 -145 306 -252 528 -363 182 -91 208 -90
417 13 374 185 671 473 847 825 173 344 250 738 253 1300 1 133 -3 240 -9 255
-21 54 -60 76 -382 215 -80 35 -235 102 -345 150 -382 166 -545 234 -577 240
-20 3 -55 -3 -91 -15z m321 -329 c136 -60 381 -166 546 -237 l299 -128 -6
-280 c-6 -291 -22 -452 -68 -646 -65 -282 -198 -551 -366 -743 -127 -145 -337
-305 -505 -385 -148 -70 -142 -69 -231 -28 -91 41 -237 130 -321 194 -352 270
-578 680 -650 1177 -34 235 -49 692 -23 712 6 5 98 46 202 91 281 120 731 315
805 350 36 17 66 31 68 31 1 1 113 -48 250 -108z"/>
<path d="M6734 4126 c-93 -42 -132 -203 -76 -313 32 -60 65 -85 121 -91 101
-9 171 75 171 208 -1 149 -107 246 -216 196z"/>
<path d="M7124 4126 c-123 -54 -137 -315 -21 -386 45 -28 115 -26 157 3 82 55
112 211 60 307 -45 80 -119 109 -196 76z"/>
<path d="M6400 3802 c-101 -55 -98 -267 5 -322 37 -20 96 -18 129 4 90 58 82
250 -13 313 -41 28 -75 29 -121 5z"/>
<path d="M7464 3806 c-89 -40 -121 -194 -60 -287 29 -43 80 -64 130 -55 36 7
89 57 105 99 17 44 13 137 -7 176 -33 66 -106 95 -168 67z"/>
<path d="M6912 3646 c-65 -21 -116 -61 -186 -145 -34 -42 -90 -103 -124 -135
-82 -79 -105 -128 -100 -210 7 -116 83 -189 198 -190 42 -1 77 8 146 37 110
44 156 47 239 11 163 -71 245 -67 326 15 57 57 76 123 57 199 -10 40 -27 63
-117 152 -58 58 -130 133 -158 167 -83 96 -182 131 -281 99z"/>
</g>
</svg>
