<?xml version="1.0" standalone="no"?>
<!DOCTYPE svg PUBLIC "-//W3C//DTD SVG 20010904//EN"
 "http://www.w3.org/TR/2001/REC-SVG-20010904/DTD/svg10.dtd">
<svg version="1.0" xmlns="http://www.w3.org/2000/svg"
 width="1024.000000pt" height="1024.000000pt" viewBox="0 0 1024.000000 1024.000000"
 preserveAspectRatio="xMidYMid meet">

<g transform="translate(0.000000,1024.000000) scale(0.100000,-0.100000)"
fill="#000000" stroke="none">
<path d="M4921 8917 c-42 -25 -50 -54 -51 -174 l0 -113 -930 0 -930 0 -32 -29
c-44 -39 -46 -98 -5 -138 23 -24 37 -28 105 -33 l78 -5 -330 -712 -330 -713
-58 0 c-112 0 -133 -61 -79 -218 141 -405 593 -689 1021 -642 134 15 227 42
345 100 180 89 321 222 420 396 43 75 105 239 105 277 0 54 -53 97 -120 97
-21 0 -30 8 -44 38 -40 82 -636 1374 -636 1378 0 2 320 4 710 4 l710 0 0
-1472 0 -1473 -352 3 c-425 3 -428 3 -522 -91 -34 -34 -135 -142 -224 -239
-175 -193 -189 -217 -158 -277 35 -66 -59 -63 1369 -56 884 5 1299 10 1314 17
12 6 29 26 38 45 26 55 12 88 -79 183 -45 47 -133 141 -196 210 -132 144 -154
164 -207 188 -33 15 -82 17 -410 20 l-373 3 0 1470 0 1469 705 0 c388 0 705
-3 705 -7 0 -5 -141 -325 -313 -713 l-313 -705 -63 -5 c-66 -5 -85 -19 -98
-69 -13 -53 65 -249 148 -372 123 -183 337 -330 572 -392 122 -32 367 -31 487
1 108 29 266 106 350 170 148 112 274 281 331 444 38 110 38 160 0 199 -25 25
-37 29 -84 29 l-54 0 -124 263 c-68 144 -216 462 -329 707 l-206 445 70 6 c86
6 113 20 132 65 18 44 10 78 -28 109 l-30 25 -929 0 -929 0 0 119 c0 110 -2
122 -23 146 -27 32 -90 42 -126 22z m-1572 -744 c24 -54 83 -183 131 -288 48
-104 158 -342 244 -529 86 -186 156 -342 156 -347 0 -5 -254 -9 -580 -9 -319
0 -580 2 -580 4 0 5 15 39 314 689 141 307 256 562 256 568 0 29 21 -2 59 -88z
m3301 88 c0 -5 42 -101 94 -212 250 -544 379 -824 430 -932 l55 -117 -579 1
c-319 1 -580 4 -580 8 0 3 86 195 191 426 104 231 231 513 282 627 81 183 107
231 107 199z m-2650 -1470 c0 -21 -104 -165 -158 -219 -158 -158 -342 -236
-557 -236 -140 1 -221 20 -353 85 -148 74 -280 203 -361 357 l-12 22 721 0
c403 0 720 -4 720 -9z m3345 -38 c-72 -133 -218 -270 -360 -338 -128 -62 -217
-79 -374 -72 -109 4 -138 9 -216 37 -177 63 -335 190 -422 338 -24 40 -43 74
-43 77 0 3 324 5 721 5 l720 0 -26 -47z m-1442 -1593 l131 -130 -1046 0 c-576
0 -1055 -3 -1065 -6 -10 -4 43 55 117 130 l135 136 799 0 799 0 130 -130z"/>
<path d="M6505 4330 c-443 -47 -805 -205 -1054 -459 -157 -161 -320 -403 -447
-666 -102 -211 -126 -295 -132 -471 -3 -108 0 -155 12 -205 47 -185 176 -329
340 -381 46 -15 82 -19 146 -16 84 4 100 9 233 76 4 2 7 -4 7 -12 0 -35 72
-192 124 -269 178 -268 513 -421 951 -434 301 -9 547 53 765 194 164 106 275
249 342 439 17 49 33 91 35 93 2 3 13 -5 26 -16 12 -11 42 -31 67 -44 39 -21
59 -24 155 -24 107 0 112 1 187 37 138 68 243 200 284 359 23 87 23 233 0 334
-79 344 -321 774 -570 1012 -235 225 -570 376 -971 438 -122 19 -391 27 -500
15z m350 -190 c196 -18 408 -70 521 -128 92 -47 209 -213 264 -375 91 -269
106 -721 39 -1189 -35 -247 -93 -382 -219 -509 -171 -173 -422 -263 -730 -263
-218 0 -390 38 -561 124 -347 173 -462 465 -463 1175 -1 182 4 308 12 360 46
290 120 470 245 602 60 63 79 76 148 103 130 50 295 86 469 103 75 8 170 7
275 -3z m1074 -499 c145 -167 314 -446 384 -632 100 -264 84 -457 -48 -598
-117 -125 -248 -133 -348 -22 -43 48 -42 35 -21 280 36 417 -2 819 -100 1061
l-25 61 55 -47 c30 -26 76 -72 103 -103z m-2304 58 c-87 -251 -122 -595 -96
-939 6 -85 14 -194 18 -241 l6 -85 -33 -38 c-46 -52 -98 -76 -162 -76 -69 1
-125 27 -192 90 -155 147 -155 381 1 695 106 212 259 436 405 595 40 43 74 77
75 76 2 -2 -8 -36 -22 -77z"/>
<path d="M6235 3113 c-79 -20 -118 -118 -79 -199 32 -66 126 -86 183 -39 77
66 58 192 -35 231 -35 15 -37 15 -69 7z"/>
<path d="M7103 3105 c-50 -22 -75 -69 -70 -134 3 -48 9 -59 42 -89 34 -32 41
-34 86 -30 57 6 93 33 110 85 23 71 -19 153 -89 173 -45 12 -40 12 -79 -5z"/>
<path d="M6586 2610 c-114 -18 -169 -65 -169 -143 0 -78 71 -170 185 -242 53
-33 55 -39 33 -112 -16 -53 -71 -115 -121 -133 -71 -27 -155 -2 -205 61 -38
49 -77 53 -109 12 -44 -56 -1 -140 99 -196 45 -26 68 -31 137 -35 72 -4 89 -1
136 20 30 14 73 43 97 66 l43 41 28 -33 c16 -18 53 -45 82 -62 48 -26 62 -29
148 -29 105 0 144 14 215 77 67 58 81 113 40 153 -35 36 -65 32 -110 -16 -62
-65 -132 -85 -202 -58 -48 18 -102 79 -118 133 -23 78 -21 87 36 121 71 42
144 124 164 185 29 88 -1 149 -88 175 -63 19 -240 27 -321 15z"/>
<path d="M2615 4274 c-334 -70 -564 -290 -630 -604 -20 -95 -20 -299 1 -398
80 -396 350 -770 799 -1108 112 -85 331 -230 456 -303 139 -81 153 -81 284 0
504 310 818 589 1034 919 246 374 299 795 140 1100 -93 179 -247 307 -444 370
-95 30 -290 38 -392 17 -157 -34 -271 -97 -391 -216 l-84 -83 -61 62 c-34 34
-84 80 -112 100 -71 54 -207 117 -290 135 -64 13 -260 19 -310 9z m290 -210
c166 -41 291 -140 385 -306 40 -70 73 -95 113 -84 35 9 54 29 97 107 74 135
215 244 368 284 74 19 218 21 288 4 202 -48 376 -224 429 -434 19 -75 19 -233
0 -323 -53 -255 -190 -477 -455 -742 -209 -210 -428 -378 -711 -548 l-36 -22
-129 78 c-321 193 -589 410 -762 617 -157 187 -264 379 -308 552 -30 117 -33
299 -8 397 48 188 208 355 394 415 98 31 219 33 335 5z"/>
</g>
</svg>
