<?xml version="1.0" standalone="no"?>
<!DOCTYPE svg PUBLIC "-//W3C//DTD SVG 20010904//EN"
 "http://www.w3.org/TR/2001/REC-SVG-20010904/DTD/svg10.dtd">
<svg version="1.0" xmlns="http://www.w3.org/2000/svg"
 width="140.000000pt" height="117.000000pt" viewBox="0 0 140.000000 117.000000"
 preserveAspectRatio="xMidYMid meet">

<g transform="translate(0.000000,117.000000) scale(0.100000,-0.100000)"
fill="#000000" stroke="none">
<path d="M728 960 c-33 -20 -196 -230 -277 -358 -37 -58 -80 -157 -81 -184 0
-22 59 -90 71 -82 5 3 9 0 9 -6 0 -16 108 -63 127 -56 9 4 20 1 24 -6 11 -17
220 -18 241 -1 8 7 17 10 20 7 10 -9 68 26 68 41 0 8 5 15 12 15 6 0 8 3 5 7
-4 3 -16 -2 -27 -13 -43 -43 -40 -42 -160 -51 -174 -13 -370 67 -370 150 0 73
136 287 307 485 35 39 40 42 90 42 39 0 58 -5 73 -20 26 -26 35 -66 21 -96 -8
-19 -18 -24 -46 -24 -20 0 -47 7 -61 16 -23 16 -26 16 -49 -6 -13 -13 -22 -27
-19 -31 3 -5 1 -9 -5 -9 -12 0 -18 -36 -25 -145 -3 -50 -1 -74 4 -65 6 8 10
47 10 85 0 69 23 144 49 160 6 3 31 -1 54 -10 33 -12 49 -14 70 -6 59 23 55
114 -7 152 -33 20 -100 25 -128 9z"/>
<path d="M971 609 c-43 -17 -81 -50 -81 -70 0 -18 4 -16 26 11 34 40 69 56
122 54 23 0 42 3 42 8 0 11 -79 9 -109 -3z"/>
<path d="M708 569 c-10 -5 -18 -15 -18 -22 0 -8 3 -8 8 -2 9 13 28 18 79 20
23 0 46 4 49 8 11 11 -99 7 -118 -4z"/>
<path d="M834 559 c-4 -8 -3 -10 4 -5 7 4 12 4 12 -1 0 -4 9 -19 20 -33 18
-23 19 -24 14 -3 -8 31 -40 58 -50 42z"/>
<path d="M652 511 c-14 -46 -15 -69 -3 -55 8 9 25 94 18 94 -2 0 -9 -17 -15
-39z"/>
<path d="M957 285 c9 -19 21 -35 25 -35 5 0 7 -4 4 -9 -3 -5 3 -20 14 -32 11
-13 19 -19 20 -12 0 6 -8 19 -17 29 -10 10 -17 20 -15 23 4 9 -31 71 -40 71
-4 0 0 -16 9 -35z"/>
</g>
</svg>
