<?xml version="1.0" standalone="no"?>
<!DOCTYPE svg PUBLIC "-//W3C//DTD SVG 20010904//EN"
 "http://www.w3.org/TR/2001/REC-SVG-20010904/DTD/svg10.dtd">
<svg version="1.0" xmlns="http://www.w3.org/2000/svg"
 width="276.000000pt" height="227.000000pt" viewBox="0 0 276.000000 227.000000"
 preserveAspectRatio="xMidYMid meet">

<g transform="translate(0.000000,227.000000) scale(0.100000,-0.100000)"
fill="#000000" stroke="none">
<path d="M832 2008 c-21 -39 -35 -119 -39 -218 -2 -52 -9 -106 -16 -119 -16
-32 -16 -166 1 -183 6 -6 12 -20 12 -30 0 -10 4 -18 9 -18 5 0 12 -12 15 -26
5 -18 12 -24 22 -20 9 3 12 2 9 -5 -9 -14 25 -51 41 -45 17 6 39 -20 24 -29
-5 -3 -10 -13 -10 -22 0 -13 3 -13 15 -3 25 20 17 45 -27 91 -85 88 -83 84
-82 189 2 171 5 218 14 190 7 -24 15 42 23 192 2 54 8 62 37 53 18 -6 19 -9 8
-23 -11 -13 -11 -15 4 -9 11 4 15 2 13 -6 -6 -17 21 -50 34 -42 7 3 8 0 5 -9
-3 -8 7 -28 22 -45 27 -31 27 -31 134 -31 105 0 107 0 134 29 17 18 26 36 23
45 -4 10 -1 13 8 10 13 -6 31 30 26 54 -1 7 2 12 6 11 4 -1 15 -1 23 1 11 1 9
4 -5 11 -20 9 -20 9 0 6 16 -2 23 -15 34 -67 7 -36 15 -95 18 -132 3 -38 8
-68 12 -68 13 0 32 -167 25 -208 -4 -20 -13 -49 -20 -64 -8 -15 -11 -35 -8
-45 4 -14 4 -15 -4 -4 -8 11 -13 10 -29 -5 -11 -11 -30 -27 -42 -37 -23 -18
-22 -26 1 -87 10 -24 11 -24 19 -5 8 16 8 15 4 -7 -3 -15 -1 -36 4 -45 16 -30
39 -86 47 -118 12 -47 16 -635 4 -635 -6 0 -10 -38 -10 -94 0 -93 0 -94 -28
-105 -22 -9 -35 -9 -55 0 -30 13 -50 4 -27 -12 13 -9 13 -10 0 -6 -8 2 -16 12
-17 23 -1 10 -8 37 -14 59 -8 23 -15 129 -18 255 -3 118 -9 214 -13 213 -5 -2
-12 -3 -18 -3 -6 0 -10 -91 -10 -254 0 -151 -4 -257 -10 -261 -5 -3 -7 -11 -4
-18 3 -9 -11 -11 -51 -9 -30 2 -55 8 -55 13 0 5 -21 6 -47 2 l-48 -6 19 22
c26 29 7 27 -26 -4 -35 -32 -83 -33 -142 -1 -55 29 -80 55 -103 106 -4 8 -9
17 -12 20 -3 3 -15 31 -25 63 -18 52 -18 67 -8 143 6 46 9 92 6 102 -5 14 -4
15 5 2 9 -13 11 -13 11 2 0 10 17 50 39 90 70 133 79 153 95 205 9 28 16 63
16 77 0 14 5 28 10 31 6 3 10 13 10 21 0 8 10 36 22 62 12 26 23 64 24 85 l2
38 -24 -43 c-50 -90 -84 -184 -84 -232 0 -14 -18 -58 -39 -98 -104 -194 -107
-202 -121 -301 -11 -71 -7 -147 8 -172 4 -5 5 -22 3 -37 -1 -16 2 -28 8 -28 6
0 11 -9 11 -20 0 -11 3 -19 8 -19 20 3 32 -2 32 -15 0 -12 -13 -14 -72 -9 -57
4 -81 11 -108 32 -51 37 -90 82 -97 111 -3 14 -10 31 -16 38 -19 24 -14 182 8
245 24 73 83 140 117 135 25 -3 37 -40 20 -61 -21 -26 -45 -163 -38 -218 9
-67 42 -135 78 -157 33 -20 51 -8 20 14 -27 19 -53 65 -68 122 -12 47 -4 125
22 204 8 26 14 60 12 75 -2 23 -10 30 -41 37 -40 10 -74 -1 -70 -23 2 -6 -3
-8 -10 -5 -28 10 -97 -176 -97 -262 0 -130 95 -282 189 -300 17 -4 34 -11 37
-15 7 -12 71 -11 79 1 12 20 35 9 81 -35 33 -33 56 -47 87 -52 23 -4 47 -6 52
-4 6 2 74 3 153 2 120 -1 142 1 143 14 1 8 3 20 4 25 1 6 3 24 4 40 0 17 5 30
10 30 11 0 25 -48 22 -74 -2 -10 3 -23 11 -27 16 -11 149 -11 165 -1 8 5 14
59 18 162 12 332 15 594 8 609 -4 9 -11 -90 -14 -219 l-6 -235 2 283 c1 155
-2 276 -7 270 -5 -9 -8 -6 -8 9 0 12 -4 25 -10 28 -5 3 -10 13 -10 21 0 10 10
4 26 -15 22 -27 33 -31 73 -31 26 0 52 5 59 12 9 9 12 9 12 -3 0 -8 -6 -21
-12 -28 -19 -18 -15 -148 7 -207 31 -84 79 -141 151 -177 l48 -24 -48 -7 c-52
-8 -116 -55 -116 -86 0 -11 -4 -21 -9 -24 -5 -3 -11 -30 -13 -61 -5 -56 -16
-73 -76 -113 -20 -13 -23 -22 -20 -70 3 -51 6 -57 37 -74 31 -18 145 -37 240
-41 36 -2 47 2 62 23 17 23 18 33 8 115 -12 105 -38 215 -50 215 -19 0 -19
-24 -1 -63 25 -54 36 -263 14 -272 -23 -9 -38 -4 -17 5 13 6 -7 9 -62 9 -45 1
-85 6 -88 11 -3 6 -17 10 -31 10 -14 0 -38 7 -54 15 -17 9 -30 11 -32 5 -2 -6
-3 14 -3 44 0 30 3 52 8 49 14 -9 48 9 43 22 -3 9 0 12 9 9 19 -8 40 45 49
121 4 32 12 62 18 66 6 4 8 12 4 18 -4 6 -2 9 6 6 8 -3 23 2 34 12 39 35 57
40 99 31 39 -9 146 -5 195 7 17 4 31 0 45 -13 11 -10 33 -27 48 -37 41 -27 61
-71 67 -150 l5 -70 43 -22 c24 -13 47 -21 50 -19 4 2 5 -16 3 -40 -1 -24 -7
-44 -13 -44 -5 0 -7 -3 -5 -7 6 -10 -9 -12 -163 -21 -69 -4 -128 -5 -132 -2
-4 3 -1 32 7 65 8 33 14 92 15 132 0 39 4 83 10 97 7 20 6 26 -4 26 -20 0 -35
-72 -42 -213 l-7 -127 141 0 c198 0 219 11 214 104 -3 43 -8 59 -20 62 -10 3
-25 10 -35 15 -10 5 -22 7 -27 4 -6 -3 -7 1 -4 9 3 9 2 16 -4 16 -5 0 -12 34
-14 75 -5 71 -7 76 -44 112 -44 43 -82 63 -122 63 l-26 0 22 16 c12 8 27 12
33 9 14 -9 120 101 140 145 9 19 22 47 29 62 7 15 10 38 8 52 -3 14 -1 23 3
20 12 -7 11 42 -2 91 -24 94 -29 85 40 85 58 0 96 12 113 35 21 28 -9 195 -34
195 -4 0 -8 5 -8 11 0 22 -69 96 -104 113 -64 30 -103 16 -149 -56 -23 -36
-24 -140 -1 -159 8 -7 22 -26 31 -43 16 -31 15 -31 -4 -13 -11 9 -23 17 -27
17 -4 0 -14 7 -22 15 -9 8 -12 15 -7 15 4 0 -4 8 -17 17 -32 23 -236 26 -249
5 -5 -8 -17 -12 -27 -10 -19 3 -45 70 -58 148 -3 19 -16 47 -29 62 -12 14 -26
34 -32 43 -10 17 -45 12 -45 -7 0 -6 7 -8 14 -5 10 4 13 1 9 -9 -3 -7 -1 -14
4 -14 6 0 18 -17 29 -37 10 -21 21 -40 24 -43 3 -3 14 -41 24 -85 10 -44 24
-84 30 -88 7 -6 5 -7 -6 -4 -16 6 -62 -37 -106 -101 -25 -35 -37 -37 -109 -22
-46 10 -49 13 -81 78 -17 37 -32 74 -32 83 0 8 22 38 49 66 41 43 50 59 59
109 5 33 7 73 4 89 -6 24 -8 17 -13 -35 l-6 -65 -1 88 c-2 69 1 86 11 78 6 -6
28 -24 48 -41 24 -19 43 -28 54 -24 15 6 14 10 -8 30 -14 13 -37 26 -51 30
-50 12 -72 72 -92 244 -9 84 -32 130 -64 130 -22 0 -32 -9 -55 -55 -16 -30
-33 -55 -37 -55 -4 0 -7 -10 -5 -22 2 -25 4 -24 -109 -34 -74 -7 -113 10 -147
61 -12 20 -28 33 -35 30 -7 -3 -10 0 -7 5 3 6 -3 24 -15 40 -26 36 -62 40 -78
8z m-5 -90 c-3 -7 -5 -2 -5 12 0 14 2 19 5 13 2 -7 2 -19 0 -25z m-50 -355
c-2 -16 -4 -5 -4 22 0 28 2 40 4 28 2 -13 2 -35 0 -50z m1425 -86 c39 -45 92
-155 101 -209 3 -20 0 -25 -11 -20 -11 4 -14 1 -10 -9 6 -14 -6 -15 -117 -11
-44 2 -105 45 -105 73 0 9 -9 24 -20 34 -11 10 -20 28 -20 40 0 50 45 152 70
158 26 5 83 -23 112 -56z m-842 -77 c0 -5 -5 -10 -11 -10 -5 0 -7 5 -4 10 3 6
8 10 11 10 2 0 4 -4 4 -10z m-26 -28 c-6 -4 -15 -20 -19 -37 -8 -28 -9 -28
-13 -7 -4 24 13 52 32 52 8 0 8 -2 0 -8z m504 -29 c-10 -2 -26 -2 -35 0 -10 3
-2 5 17 5 19 0 27 -2 18 -5z m66 -23 c85 -22 127 -50 184 -125 4 -5 16 -28 26
-49 26 -54 19 -185 -13 -239 -12 -21 -18 -43 -15 -49 4 -6 3 -8 -3 -5 -14 9
-37 -19 -27 -34 4 -8 3 -9 -4 -5 -15 9 -55 -31 -46 -46 4 -7 3 -8 -4 -4 -6 4
-29 -5 -51 -19 -23 -14 -54 -25 -71 -25 -21 0 -29 -4 -24 -11 5 -9 -1 -10 -21
-5 -15 4 -41 10 -59 13 -89 18 -194 125 -224 229 -14 48 -16 146 -3 172 35 72
49 92 89 130 25 23 51 42 59 42 7 0 13 5 13 10 0 6 10 10 23 10 15 0 18 3 9 8
-19 13 114 14 162 2z m196 -85 c7 -8 19 -15 26 -15 16 0 18 -9 6 -28 -8 -12
-33 9 -56 46 -10 17 9 15 24 -3z m-1253 -47 c-3 -8 -6 -5 -6 6 -1 11 2 17 5
13 3 -3 4 -12 1 -19z m-70 -220 c-3 -8 -6 -5 -6 6 -1 11 2 17 5 13 3 -3 4 -12
1 -19z m-7 -28 c0 -5 -3 -10 -8 -10 -4 0 -16 -20 -27 -45 -11 -25 -23 -45 -27
-45 -5 0 -8 -7 -8 -17 0 -9 -3 -13 -7 -10 -6 6 24 76 38 87 4 3 9 15 13 28 7
22 26 31 26 12z m427 -202 c-2 -13 -4 -5 -4 17 -1 22 1 32 4 23 2 -10 2 -28 0
-40z m-550 -85 c-3 -10 -5 -4 -5 12 0 17 2 24 5 18 2 -7 2 -21 0 -30z m-10
-299 c-3 -3 -12 -4 -19 -1 -8 3 -5 6 6 6 11 1 17 -2 13 -5z m763 -63 c0 -12
-29 -35 -36 -28 -7 6 17 36 29 37 4 0 7 -4 7 -9z"/>
<path d="M1922 1058 c4 -31 53 -34 53 -3 0 15 -8 21 -28 23 -25 3 -28 0 -25
-20z m38 -4 c0 -9 -5 -14 -12 -12 -18 6 -21 28 -4 28 9 0 16 -7 16 -16z"/>
<path d="M1705 1060 c-10 -16 4 -30 31 -30 17 0 24 5 24 20 0 15 -7 20 -24 20
-14 0 -28 -4 -31 -10z"/>
<path d="M1882 914 c-19 -13 -28 -14 -53 -4 -43 18 -48 4 -5 -16 31 -15 39
-16 61 -4 14 7 25 19 25 27 0 16 -1 16 -28 -3z"/>
<path d="M857 1983 c-4 -3 -7 -11 -7 -17 0 -6 5 -5 12 2 6 6 9 14 7 17 -3 3
-9 2 -12 -2z"/>
<path d="M1205 1890 c-3 -5 -1 -10 4 -10 6 0 11 5 11 10 0 6 -2 10 -4 10 -3 0
-8 -4 -11 -10z"/>
<path d="M964 1595 c-4 -9 -2 -21 4 -27 15 -15 44 -1 40 19 -4 23 -36 29 -44
8z"/>
<path d="M1205 1601 c-9 -16 3 -31 26 -31 14 0 19 6 17 17 -4 20 -33 29 -43
14z"/>
<path d="M1057 1504 c-12 -12 37 -45 62 -42 24 3 51 32 40 43 -11 10 -40 -7
-35 -21 7 -19 3 -18 -24 6 -25 21 -33 24 -43 14z"/>
<path d="M940 690 c0 -12 24 -89 41 -135 4 -11 14 -39 23 -63 20 -53 20 -111
1 -139 -11 -15 -12 -28 -6 -45 6 -13 10 -17 10 -10 1 8 9 26 20 40 31 45 34
69 15 130 -9 31 -21 62 -24 67 -4 6 -11 26 -15 45 -10 46 -16 55 -26 39 -5 -9
-7 3 -6 31 2 35 -2 45 -15 48 -10 2 -18 -2 -18 -8z"/>
</g>
</svg>
