<?xml version="1.0" standalone="no"?>
<!DOCTYPE svg PUBLIC "-//W3C//DTD SVG 20010904//EN"
 "http://www.w3.org/TR/2001/REC-SVG-20010904/DTD/svg10.dtd">
<svg version="1.0" xmlns="http://www.w3.org/2000/svg"
 width="165.000000pt" height="140.000000pt" viewBox="0 0 165.000000 140.000000"
 preserveAspectRatio="xMidYMid meet">

<g transform="translate(0.000000,140.000000) scale(0.100000,-0.100000)"
fill="#000000" stroke="none">
<path d="M593 912 c-52 -21 -86 -63 -108 -130 -15 -45 -16 -60 -5 -117 7 -37
18 -71 25 -78 6 -7 10 -17 8 -22 -2 -6 11 -26 29 -45 17 -19 30 -37 29 -40 -1
-2 2 -6 8 -8 18 -6 13 13 -8 32 -31 28 -74 137 -79 198 -11 143 122 253 242
200 24 -11 47 -18 50 -14 3 3 6 0 6 -7 0 -7 9 -24 20 -38 24 -31 27 -8 4 26
-22 31 -90 61 -139 60 -22 0 -59 -8 -82 -17z"/>
<path d="M945 918 c-31 -11 -108 -78 -100 -86 3 -3 0 -11 -6 -19 -6 -7 -8 -13
-3 -13 5 0 19 16 31 35 24 36 75 68 130 79 22 5 46 1 78 -13 25 -11 45 -17 45
-14 0 4 15 -16 32 -42 30 -45 33 -56 32 -125 0 -58 -5 -86 -24 -125 -13 -27
-24 -54 -24 -60 -1 -5 -4 -12 -7 -15 -3 -3 -22 -27 -43 -55 -38 -51 -176 -198
-176 -187 0 3 -10 -4 -22 -15 -42 -37 -45 -36 -138 42 -50 42 -90 72 -90 67 0
-14 121 -122 130 -117 5 3 10 -2 13 -9 3 -8 15 -19 26 -25 17 -9 31 -2 96 50
68 55 158 149 156 163 0 3 13 20 28 37 49 53 94 173 94 251 0 97 -46 171 -122
197 -41 13 -95 13 -136 -1z"/>
<path d="M755 688 c-44 -117 -68 -187 -69 -205 0 -13 -4 -23 -8 -23 -5 0 -7
-6 -5 -12 1 -9 -8 -12 -28 -10 -23 2 -27 1 -15 -7 26 -18 47 -12 60 18 6 17 9
34 6 40 -3 5 -3 11 1 13 13 5 55 117 48 128 -3 5 -1 10 6 10 7 0 9 3 6 6 -3 4
-2 16 4 26 16 30 31 8 31 -43 0 -55 42 -266 51 -253 3 6 1 30 -5 55 -5 24 -17
93 -26 154 -14 89 -20 110 -35 113 -9 2 -19 -2 -22 -10z"/>
<path d="M943 543 c-22 -4 -29 -18 -71 -140 -10 -29 -22 -50 -27 -45 -4 4 -5
1 0 -6 4 -8 11 -10 15 -5 15 15 60 135 54 144 -3 5 0 9 5 9 6 0 10 5 9 11 -2
6 15 17 37 24 38 12 25 17 -22 8z"/>
<path d="M474 448 c3 -15 109 -19 129 -5 7 5 -15 6 -55 3 -39 -3 -69 -1 -72 5
-2 5 -3 4 -2 -3z"/>
</g>
</svg>
