<?xml version="1.0" standalone="no"?>
<!DOCTYPE svg PUBLIC "-//W3C//DTD SVG 20010904//EN"
 "http://www.w3.org/TR/2001/REC-SVG-20010904/DTD/svg10.dtd">
<svg version="1.0" xmlns="http://www.w3.org/2000/svg"
 width="1024.000000pt" height="1024.000000pt" viewBox="0 0 1024.000000 1024.000000"
 preserveAspectRatio="xMidYMid meet">

<g transform="translate(0.000000,1024.000000) scale(0.100000,-0.100000)"
fill="#000000" stroke="none">
<path d="M5236 9330 c-41 -13 -94 -68 -106 -110 -6 -19 -10 -177 -10 -358 0
-345 -1 -352 -52 -398 -12 -12 -39 -30 -58 -40 -33 -18 -79 -19 -845 -25 -787
-5 -812 -6 -890 -27 -186 -50 -311 -103 -441 -190 -383 -257 -587 -639 -585
-1097 1 -234 45 -423 143 -613 125 -243 305 -431 544 -567 l75 -43 -68 -11
c-317 -54 -555 -170 -775 -379 -199 -190 -318 -402 -386 -687 -23 -98 -26
-130 -26 -295 0 -153 4 -203 23 -290 114 -535 514 -949 1041 -1077 102 -25
118 -26 534 -32 l429 -6 -54 -34 c-75 -47 -275 -251 -332 -338 -109 -164 -186
-355 -224 -553 -16 -83 -18 -151 -18 -555 l0 -460 23 -37 c26 -42 92 -78 142
-78 50 0 116 36 142 78 23 37 23 40 29 502 6 494 6 492 61 660 120 370 440
639 897 755 239 60 203 58 1241 64 940 6 956 6 990 27 19 11 45 36 58 55 20
28 23 44 20 94 -5 74 -30 115 -91 144 l-43 21 -1763 0 c-1184 0 -1793 4 -1858
11 -486 54 -837 403 -910 907 -36 251 23 504 165 713 151 223 357 367 622 435
53 14 140 18 475 23 446 7 425 4 497 69 67 61 83 102 83 217 0 86 -3 106 -24
145 -31 60 -48 78 -96 103 -34 17 -68 22 -225 28 -223 10 -311 28 -467 100
-198 92 -382 293 -472 516 -54 132 -66 203 -66 383 1 138 4 179 23 250 31 118
119 289 193 378 109 132 284 251 451 308 155 53 181 54 987 54 822 0 816 0
935 62 74 39 181 144 219 215 59 112 67 172 67 537 0 324 -1 332 -23 371 -37
67 -122 98 -201 75z"/>
<path d="M6290 9331 c-42 -13 -70 -34 -93 -71 -21 -34 -22 -46 -28 -430 -6
-390 -6 -396 -33 -495 -56 -206 -148 -375 -283 -516 -207 -218 -439 -328 -745
-355 l-78 -7 0 57 0 56 -215 0 -215 0 0 -135 0 -135 113 0 112 0 1 -59 c0 -32
8 -79 18 -104 22 -58 91 -122 148 -137 31 -9 315 -13 1023 -15 847 -3 992 -6
1068 -19 414 -75 740 -386 832 -793 30 -132 34 -320 9 -441 -67 -327 -262
-583 -548 -722 -163 -79 -222 -91 -501 -99 -270 -9 -287 -13 -347 -79 -50 -56
-72 -133 -65 -227 9 -112 45 -178 120 -218 40 -20 59 -22 332 -28 296 -7 315
-9 460 -56 122 -39 275 -136 379 -239 299 -297 389 -761 225 -1153 -114 -273
-335 -481 -609 -574 -171 -58 -152 -57 -1495 -57 -1196 0 -1234 -1 -1309 -20
-181 -46 -320 -175 -378 -349 -20 -61 -22 -90 -26 -390 -4 -369 -1 -391 59
-445 64 -59 159 -58 229 0 49 42 53 71 54 414 1 345 1 344 63 401 61 57 -28
54 1388 59 l1310 6 103 27 c533 140 909 554 1004 1102 17 101 19 147 15 290
-3 98 -12 200 -21 240 -82 365 -299 676 -616 880 -91 59 -156 91 -256 124
l-86 29 78 36 c261 121 525 379 656 641 159 318 185 687 73 1030 -70 213 -182
394 -349 561 -210 210 -420 321 -721 381 -81 16 -153 18 -732 18 -354 0 -643
0 -643 1 0 1 31 22 69 47 279 186 496 462 596 761 63 188 67 227 72 656 3 268
1 406 -6 431 -28 93 -122 147 -211 120z"/>
<path d="M3464 7555 c-144 -31 -262 -122 -324 -248 -18 -37 -31 -69 -29 -71 2
-1 38 -11 79 -20 41 -10 99 -25 129 -34 43 -13 55 -14 59 -4 18 54 103 110
183 119 l49 6 0 133 0 134 -42 -1 c-24 0 -71 -7 -104 -14z"/>
<path d="M3890 7435 l0 -135 215 0 215 0 0 135 0 135 -215 0 -215 0 0 -135z"/>
<path d="M3146 6943 l-58 -4 7 -47 c10 -65 48 -164 84 -216 43 -62 125 -132
196 -166 101 -49 95 -53 120 93 l22 128 -38 19 c-50 26 -105 92 -124 151 l-17
49 -66 -2 c-37 -1 -93 -3 -126 -5z"/>
<path d="M3770 6605 l0 -135 215 0 215 0 0 135 0 135 -215 0 -215 0 0 -135z"/>
<path d="M4480 6605 l0 -135 220 0 220 0 0 135 0 135 -220 0 -220 0 0 -135z"/>
<path d="M5200 6605 l0 -135 215 0 215 0 0 135 0 135 -215 0 -215 0 0 -135z"/>
<path d="M5910 6605 l0 -135 215 0 215 0 0 135 0 135 -215 0 -215 0 0 -135z"/>
<path d="M6620 6605 l0 -135 68 0 c39 0 104 -10 156 -24 l88 -23 15 36 c8 20
30 72 49 115 19 44 34 83 34 87 0 12 -99 46 -183 63 -42 9 -110 16 -152 16
l-75 0 0 -135z"/>
<path d="M7191 6390 l-83 -90 48 -53 c58 -64 92 -136 102 -213 l7 -59 129 -3
128 -3 -6 68 c-10 94 -31 165 -77 253 -41 78 -131 190 -153 190 -7 0 -50 -41
-95 -90z"/>
<path d="M6208 6211 c-73 -24 -88 -41 -368 -431 -74 -102 -223 -309 -334 -460
-110 -151 -234 -323 -277 -381 l-76 -107 -194 194 c-107 107 -214 208 -238
224 -84 56 -194 32 -241 -52 -29 -52 -23 -128 14 -184 28 -42 528 -534 582
-573 63 -45 148 -43 210 4 28 22 205 257 499 665 65 91 178 246 250 345 373
511 389 536 383 612 -5 54 -39 112 -78 133 -28 15 -101 21 -132 11z"/>
<path d="M4884 6175 c-245 -43 -446 -145 -636 -324 -165 -154 -282 -353 -339
-578 -58 -223 -50 -501 21 -715 78 -235 231 -451 416 -591 121 -91 231 -150
359 -193 693 -232 1416 176 1601 902 25 99 28 125 28 294 0 218 -14 278 -73
317 -40 27 -68 29 -117 8 -56 -23 -69 -66 -54 -189 64 -521 -260 -994 -767
-1118 -133 -32 -333 -30 -467 6 -355 95 -618 359 -713 714 -23 84 -26 118 -27
247 0 164 11 226 64 362 87 228 282 436 503 538 119 55 215 76 367 82 164 6
267 -10 419 -68 120 -45 134 -46 178 -19 58 35 78 102 48 160 -21 41 -154 103
-302 142 -101 26 -140 31 -273 34 -105 2 -181 -1 -236 -11z"/>
<path d="M7201 5714 c-29 -66 -92 -139 -156 -179 -30 -20 -44 -35 -41 -45 19
-62 87 -206 98 -208 26 -5 144 74 214 144 54 54 82 93 115 158 25 52 39 90 33
95 -5 5 -54 24 -109 44 -55 19 -107 38 -115 41 -11 4 -22 -10 -39 -50z"/>
<path d="M6670 5451 l-106 -6 -3 -137 -3 -138 127 0 128 0 -7 68 c-3 37 -9
102 -12 145 -4 42 -10 76 -13 75 -3 -1 -53 -4 -111 -7z"/>
<path d="M3150 5225 c-97 -17 -175 -49 -174 -69 1 -8 19 -63 40 -121 34 -93
41 -105 59 -100 75 22 162 35 233 35 l82 0 0 135 0 135 -82 -1 c-46 -1 -117
-7 -158 -14z"/>
<path d="M2688 4962 c-111 -123 -165 -246 -177 -401 l-7 -94 90 7 c49 3 106 6
128 6 35 0 38 2 38 30 0 46 21 131 42 174 11 21 41 61 66 88 l46 49 -89 89
c-49 50 -93 90 -96 90 -4 0 -22 -17 -41 -38z"/>
<path d="M2685 4229 c-55 -28 -102 -53 -104 -55 -8 -7 38 -93 80 -150 63 -86
228 -202 294 -207 24 -2 28 4 60 103 19 58 35 110 35 116 0 7 -12 15 -26 18
-67 17 -145 90 -189 176 -14 28 -31 50 -38 50 -6 0 -57 -23 -112 -51z"/>
<path d="M3292 3883 c-7 -54 -16 -115 -19 -135 l-6 -38 224 0 224 0 3 135 2
135 -208 0 -208 0 -12 -97z"/>
<path d="M3989 3873 c0 -60 -3 -121 -5 -137 l-5 -29 65 5 c78 7 112 26 133 75
31 76 -19 158 -111 182 -79 20 -76 24 -77 -96z"/>
<path d="M6165 3971 c-83 -20 -125 -67 -125 -136 0 -82 54 -125 159 -125 l61
0 0 135 0 135 -32 -1 c-18 -1 -46 -4 -63 -8z"/>
<path d="M6530 3845 l0 -135 200 0 199 0 5 33 c3 17 10 70 16 117 6 47 13 93
15 103 3 16 -13 17 -216 17 l-219 0 0 -135z"/>
<path d="M7220 3834 c-11 -25 -36 -73 -55 -106 l-36 -60 63 -58 c66 -60 118
-141 127 -198 4 -18 9 -33 14 -32 4 0 61 0 127 0 l120 0 0 29 c0 44 -38 159
-72 220 -40 70 -140 176 -205 218 -29 18 -55 33 -58 33 -3 0 -15 -21 -25 -46z"/>
<path d="M7317 3123 c-14 -85 -109 -211 -184 -246 -13 -6 -23 -13 -23 -17 0
-7 99 -221 105 -228 2 -2 36 17 76 43 107 69 192 162 247 271 21 42 56 163 49
170 -5 5 -224 44 -248 44 -11 0 -18 -12 -22 -37z"/>
<path d="M4843 2803 l-203 -3 0 -130 0 -130 215 0 215 0 0 135 c0 103 -3 134
-12 133 -7 -2 -104 -4 -215 -5z"/>
<path d="M5350 2673 l0 -133 210 0 210 0 0 133 0 132 -210 0 -210 0 0 -132z"/>
<path d="M6054 2801 c-2 -2 -4 -62 -4 -133 l0 -128 225 0 226 0 -3 132 -3 132
-218 0 c-120 1 -220 -1 -223 -3z"/>
<path d="M6785 2788 c-2 -7 -5 -66 -7 -130 l-3 -118 79 0 78 0 -5 33 c-4 17
-9 61 -12 97 -13 137 -8 130 -71 130 -35 0 -56 -5 -59 -12z"/>
</g>
</svg>
