<svg version="1.1" id="Layer_1" xmlns="http://www.w3.org/2000/svg" xmlns:xlink="http://www.w3.org/1999/xlink" x="0px" y="0px"
	 width="100%" viewBox="0 0 1024 1024" enable-background="new 0 0 1024 1024" xml:space="preserve">
<path fill="#000000" opacity="1.000000" stroke="none" 
	d="
M682.108643,661.890625 
	C673.963074,654.054077 664.617371,648.554016 655.100037,643.383423 
	C634.165771,632.010071 613.097778,620.882935 592.144470,609.544373 
	C583.728333,604.990051 575.759094,599.785034 571.236267,590.864685 
	C569.748535,587.930298 567.224243,588.280212 564.775696,588.370789 
	C543.167297,589.169067 521.914551,586.679749 501.165955,580.729919 
	C485.823975,576.330383 470.536896,571.884766 454.788818,569.063599 
	C450.704926,568.331909 448.758118,569.408142 446.685272,572.590515 
	C436.714539,587.897827 425.221252,601.873047 410.437408,612.875061 
	C394.915405,624.426270 377.495270,631.675720 358.555695,635.067566 
	C350.561859,636.499084 344.972809,640.473511 340.443878,646.993774 
	C330.456055,661.373108 319.530334,675.057922 308.028442,688.247253 
	C298.625977,699.028992 287.128601,705.612427 272.154175,704.423584 
	C255.155777,703.074158 245.209641,687.026855 251.879211,671.224426 
	C256.573578,660.101990 264.020905,650.568665 270.278168,640.349670 
	C274.086060,634.130859 277.947784,627.945007 282.278778,620.947021 
	C274.179352,620.095276 267.133270,621.450562 260.111176,621.622864 
	C254.978165,621.748901 249.797928,622.547485 244.662170,622.205322 
	C236.962662,621.692200 231.237122,624.850342 226.275482,630.407349 
	C213.957275,644.203613 201.520599,657.894653 189.072601,671.574280 
	C184.465179,676.637573 179.561081,681.380981 173.501755,684.766846 
	C157.401093,693.763794 138.502289,686.530640 134.245682,669.593384 
	C132.064346,660.913696 135.472641,653.320251 140.360153,646.676270 
	C157.833221,622.924072 175.568176,599.362549 193.391891,575.871399 
	C199.549362,567.755981 208.152390,562.943054 218.264374,562.879333 
	C231.893967,562.793396 241.168045,556.131226 248.661453,545.748108 
	C255.446960,536.345947 259.920624,525.731140 264.552155,515.214905 
	C270.518463,501.668091 276.323914,488.050415 282.455933,473.868195 
	C277.189240,472.309906 272.163971,470.820618 267.137238,469.336212 
	C235.389969,459.961273 208.148621,443.981689 189.287766,415.883942 
	C176.462585,396.777740 169.629364,375.854645 171.779449,352.667999 
	C172.987656,339.638672 176.887207,327.253143 183.398117,315.801788 
	C185.824600,311.534149 189.391647,309.255524 194.489532,309.657410 
	C199.309097,310.037354 202.218872,312.734070 202.348328,317.582367 
	C203.724960,369.132507 231.689072,401.833740 276.890656,421.872894 
	C293.177734,429.093384 309.610718,429.676544 326.500000,421.564789 
	C350.742920,409.921143 376.750946,405.242584 403.633392,406.791809 
	C425.946503,408.077698 447.605621,413.425232 469.222015,418.752319 
	C486.960327,423.123718 504.605713,428.073517 522.919739,429.339844 
	C541.410217,430.618408 558.689453,426.929901 573.624390,415.187012 
	C574.669006,414.365723 575.620911,413.417633 576.552063,412.466034 
	C576.877686,412.133270 577.011108,411.612427 577.281250,411.081390 
	C576.034424,408.583649 573.370422,408.159698 571.256287,407.021118 
	C549.602112,395.358704 535.786133,377.271790 527.963989,354.279358 
	C526.387939,349.646698 526.130859,344.901550 529.792786,341.161682 
	C533.498779,337.376862 538.017883,338.866119 542.452576,340.067841 
	C565.068115,346.196381 587.661438,346.835419 610.320801,339.999908 
	C621.196716,336.719025 629.909973,330.306061 637.958008,322.650116 
	C648.309814,312.802582 659.586609,304.293732 673.368835,299.823029 
	C707.216736,288.843445 739.742004,299.206451 764.324036,328.652039 
	C765.712402,330.315125 767.173706,331.929291 768.428955,333.688995 
	C770.553040,336.666534 773.324341,337.554443 776.971863,337.773560 
	C794.558533,338.830109 812.123230,340.248566 829.698853,341.494049 
	C832.521240,341.694061 835.368896,341.550812 838.188843,341.771240 
	C844.705627,342.280548 847.470093,345.256866 847.320312,351.726746 
	C847.159912,358.657135 844.745117,365.105408 842.378296,371.473022 
	C841.076843,374.974335 841.786560,376.762878 844.853271,378.795746 
	C857.762451,387.352905 866.095032,399.182068 869.493042,414.417816 
	C875.781128,442.612091 855.478577,472.072021 826.797852,476.266998 
	C799.129700,480.313843 776.194458,467.504761 767.269653,442.898041 
	C764.991333,436.616547 763.784485,430.081543 763.644836,423.366943 
	C763.614807,421.924133 764.041809,420.353699 762.688293,418.797028 
	C758.052979,419.881439 754.006592,422.470428 750.090210,425.145813 
	C740.179443,431.916046 730.009583,438.267456 719.751221,444.486603 
	C718.471191,445.262573 717.268127,446.165253 716.026733,447.005249 
	C703.677246,455.361053 696.710754,466.490173 696.290771,481.874786 
	C695.824158,498.968811 691.672424,515.414673 685.116516,531.227295 
	C684.815613,531.953003 684.712524,532.760681 684.385315,534.049988 
	C688.225647,534.596069 691.753662,535.317810 695.314819,535.567810 
	C715.868042,537.010376 736.424561,538.414856 756.988953,539.685547 
	C771.483643,540.581238 783.010620,547.408997 792.742798,557.554199 
	C806.277222,571.663086 821.435120,583.932373 836.175537,596.681946 
	C839.337524,599.416870 842.270203,602.351074 844.382812,606.018799 
	C852.663452,620.394165 842.838196,638.176697 826.246277,639.447327 
	C814.451233,640.350525 805.076416,635.715637 797.049072,627.876282 
	C785.675415,616.769226 773.088318,607.241455 760.159241,598.081970 
	C751.942444,592.260864 743.252075,589.887817 732.965637,590.604248 
	C720.714844,591.457336 708.338867,590.488098 696.016602,590.360962 
	C693.741882,590.337524 691.350159,589.972412 689.245972,591.573914 
	C689.747192,593.830078 691.685120,594.781189 693.141846,595.973877 
	C712.143066,611.531433 729.812317,628.363708 745.115051,647.688171 
	C750.985779,655.101807 758.113708,661.519836 764.668457,668.391846 
	C771.657410,675.719360 774.580994,684.177002 771.075073,694.012146 
	C765.737305,708.986389 749.333008,716.035706 734.712646,709.847534 
	C725.694946,706.030701 717.842773,700.625244 711.145325,693.381592 
	C701.532166,682.984192 692.584595,671.972168 682.108643,661.890625 
M662.124207,398.680298 
	C645.059692,411.131836 625.996948,416.876617 604.907349,415.320007 
	C599.509583,414.921600 595.703064,416.357391 591.882019,420.491974 
	C576.621826,437.004639 557.282959,444.466675 534.959778,445.433868 
	C514.368958,446.326050 494.635864,441.984070 474.985443,436.864288 
	C453.757690,431.333588 432.552856,425.547699 410.657257,423.491486 
	C381.507782,420.753998 353.620056,425.930695 327.222534,438.709503 
	C315.366180,444.449127 302.979675,445.768768 290.268402,442.792542 
	C242.121368,431.519348 209.514267,402.448792 191.917191,356.360352 
	C191.024094,354.021210 190.225967,351.645782 189.068390,348.404572 
	C186.726761,358.156555 186.790298,366.703796 188.992630,375.217499 
	C195.345551,399.776276 209.211838,419.256042 229.637527,433.971161 
	C249.355225,448.176331 271.913757,455.635681 295.639893,459.468567 
	C305.303558,461.029724 308.139282,465.383423 302.820740,473.701874 
	C295.336609,485.407471 289.703735,498.008392 284.138702,510.672546 
	C277.177185,526.514709 271.175201,542.895569 260.738861,556.934021 
	C251.412842,569.478882 239.557632,578.064880 223.151886,578.431580 
	C215.080673,578.611938 208.768570,581.996765 204.102066,588.575256 
	C201.114883,592.786499 198.085510,596.970032 194.983597,601.097229 
	C180.872223,619.872864 166.662888,638.575195 152.638107,657.415161 
	C148.664490,662.753052 148.764832,666.061646 152.090561,669.488647 
	C155.806274,673.317505 161.321625,673.667969 166.217041,670.477295 
	C169.596573,668.274719 172.538635,665.601868 175.229996,662.617493 
	C188.731308,647.646179 202.248825,632.689514 215.753006,617.720886 
	C223.078461,609.600952 232.060333,605.507019 243.133682,605.662842 
	C264.470673,605.963196 285.667023,604.369568 306.526123,599.622864 
	C335.323303,593.069702 361.251617,580.926819 382.666107,560.105835 
	C398.528839,544.682678 410.108948,526.291260 419.786133,506.587006 
	C421.154846,503.800171 422.580780,501.199402 426.027008,500.766724 
	C429.113129,500.379272 432.120209,500.569672 434.150055,503.372894 
	C436.327759,506.380280 436.080414,509.658783 434.680176,512.869080 
	C430.739838,521.902893 425.710266,530.339478 420.498535,538.684082 
	C418.967163,541.135986 416.714996,543.267761 416.123383,546.863831 
	C420.434113,547.475525 424.487976,548.093872 428.553772,548.620483 
	C449.983948,551.395935 471.356445,554.661560 491.982391,561.244263 
	C515.012695,568.594421 538.429565,572.574951 562.627563,571.897461 
	C565.829895,571.807739 568.067261,571.331421 568.645630,567.604004 
	C570.183716,557.691711 573.619446,548.303101 577.019165,538.924194 
	C579.246094,532.780640 583.543579,530.366211 588.345520,532.332214 
	C593.154907,534.301270 594.484070,538.865295 592.170654,545.038757 
	C590.361633,549.866333 588.505127,554.688171 586.993652,559.612000 
	C585.295044,565.145264 583.197327,570.752319 583.733643,576.606323 
	C584.509766,585.077820 590.095764,590.189148 597.240234,593.917053 
	C613.927246,602.624268 630.534851,611.486450 647.299011,620.042053 
	C671.407410,632.345764 693.547058,647.082581 710.685364,668.542358 
	C715.554749,674.639587 721.260803,680.093201 726.804382,685.620056 
	C731.852661,690.653076 737.687134,694.418823 745.120300,694.860229 
	C750.281738,695.166809 753.784485,692.262878 755.996643,688.208130 
	C758.081909,684.386108 754.461365,682.128845 752.239319,679.848755 
	C740.834534,668.146118 729.711609,656.197998 719.779968,643.198792 
	C716.117310,638.404907 711.930542,634.145386 707.426636,630.160400 
	C689.707092,614.482117 671.707520,599.131714 653.439575,584.097473 
	C647.946106,579.576477 644.562927,574.214722 645.707642,566.770020 
	C646.430298,562.070251 649.556458,558.699829 652.257324,555.155029 
	C669.266357,532.830872 679.286499,507.759247 680.630981,479.706543 
	C681.582764,459.845520 689.640198,444.629883 706.371765,433.936432 
	C719.141113,425.775238 731.826843,417.482971 744.612244,409.347107 
	C752.841614,404.110443 761.637573,400.482452 771.501343,399.377289 
	C778.578918,398.584320 785.669617,397.349152 792.561035,395.564240 
	C810.011963,391.044403 822.625916,380.984955 827.959290,363.093994 
	C828.703552,360.597382 829.389648,358.564575 825.532593,358.292389 
	C807.788574,357.040161 790.061890,355.525208 772.309814,354.410309 
	C766.285889,354.031982 761.524475,352.167175 757.606750,347.368134 
	C751.818909,340.278229 746.149719,332.983246 739.075317,327.107239 
	C724.321472,314.852844 707.453125,309.976959 688.345764,313.154541 
	C675.014404,315.371582 663.983093,321.681580 654.566162,331.168732 
	C629.374512,356.548492 598.548950,364.938416 563.672791,361.580505 
	C558.705322,361.102234 553.729675,359.471771 548.339783,360.329742 
	C548.620667,361.328125 548.684692,362.002991 548.982727,362.550446 
	C561.428162,385.413910 580.418579,398.454712 606.613525,399.530396 
	C627.993469,400.408325 646.231201,392.306946 661.780579,377.812317 
	C670.223999,369.941681 677.759338,361.318207 684.266602,351.772552 
	C687.183228,347.494049 692.799561,346.256927 696.499390,348.782867 
	C699.823853,351.052551 700.503906,356.106995 698.054016,360.515869 
	C697.650696,361.241730 697.158203,361.920013 696.682983,362.603668 
	C687.200928,376.244659 676.104797,388.347931 662.124207,398.680298 
M285.509583,646.959717 
	C279.436035,656.513184 273.086090,665.905151 267.380920,675.673767 
	C263.206665,682.821045 267.344910,689.059692 275.686676,688.735413 
	C284.910583,688.376892 291.429138,683.102905 297.000366,676.341003 
	C308.651276,662.200256 319.810028,647.676208 330.754364,632.984741 
	C336.301788,625.537964 343.823456,621.297424 352.862213,619.655029 
	C374.671051,615.692566 394.072479,606.789978 410.319397,591.528381 
	C418.308319,584.023987 425.684967,575.981812 431.101746,565.844360 
	C422.864716,563.727234 414.906281,563.431091 407.067017,562.347717 
	C404.029327,561.927856 402.144989,563.430786 400.243591,565.535156 
	C397.121643,568.990356 393.880646,572.369324 390.424835,575.486633 
	C366.807892,596.790161 338.701538,609.086487 308.029083,616.028198 
	C305.067841,616.698425 303.406006,618.044373 301.947449,620.446533 
	C296.675873,629.128113 291.275848,637.731750 285.509583,646.959717 
M800.376526,457.151947 
	C808.988342,461.424316 818.066345,462.004364 827.113403,459.438202 
	C842.405701,455.100739 854.337280,441.556549 854.358521,423.950806 
	C854.374634,410.595215 847.156250,400.416351 836.648621,392.427917 
	C833.995178,390.410583 832.209717,390.216309 829.951233,392.839417 
	C825.778320,397.686005 820.638794,401.359497 815.046448,404.451416 
	C806.006897,409.449310 796.134521,411.793457 786.074097,413.234344 
	C780.816101,413.987366 779.030457,416.366882 779.286987,421.504486 
	C780.052734,436.840118 785.580078,449.281952 800.376526,457.151947 
M809.579163,616.919128 
	C813.426514,619.828552 817.181519,622.964722 822.190674,623.625732 
	C825.797485,624.101624 828.716064,622.952087 830.576782,619.585327 
	C832.482422,616.137085 830.289429,613.951782 828.270020,611.716492 
	C827.380066,610.731384 826.407837,609.804565 825.384338,608.958496 
	C809.212341,595.590210 793.543518,581.673096 778.701050,566.824402 
	C771.988892,560.109375 763.933350,556.283081 754.181030,556.227234 
	C748.710266,556.195862 743.235901,555.609436 737.775635,555.130676 
	C717.938965,553.391602 698.106628,551.603821 678.276733,549.789062 
	C677.005310,549.672668 675.922119,549.770752 675.176575,550.841187 
	C670.929077,556.939514 666.710632,563.058105 662.454590,569.209778 
	C666.243652,573.290283 670.822388,573.417725 675.231262,573.633301 
	C696.179138,574.657593 717.147461,574.984070 738.114441,574.699768 
	C749.359192,574.547363 759.281128,577.817871 768.517151,584.113281 
	C782.849792,593.882690 796.507690,604.453735 809.579163,616.919128 
z"/>
<path fill="#000000" opacity="1.000000" stroke="none" 
	d="
M744.193237,364.823730 
	C740.626831,370.320831 735.765442,371.874634 731.467407,369.239014 
	C727.615356,366.876862 726.196228,360.391174 728.528320,355.806793 
	C730.618591,351.697723 735.749268,349.995605 740.080322,351.974426 
	C744.206055,353.859406 745.681519,358.215332 744.193237,364.823730 
z"/>
</svg>