<?xml version="1.0" standalone="no"?>
<!DOCTYPE svg PUBLIC "-//W3C//DTD SVG 20010904//EN"
 "http://www.w3.org/TR/2001/REC-SVG-20010904/DTD/svg10.dtd">
<svg version="1.0" xmlns="http://www.w3.org/2000/svg"
 width="1024.000000pt" height="1024.000000pt" viewBox="0 0 1024.000000 1024.000000"
 preserveAspectRatio="xMidYMid meet">

<g transform="translate(0.000000,1024.000000) scale(0.100000,-0.100000)"
fill="#000000" stroke="none">
<path d="M4857 8359 c-299 -23 -665 -114 -937 -233 -271 -119 -566 -312 -757
-497 -59 -56 -73 -75 -73 -100 0 -41 15 -66 50 -84 47 -24 66 -18 141 48 154
135 189 162 316 247 314 209 680 349 1089 416 132 21 561 30 718 15 656 -64
1217 -330 1681 -795 201 -202 341 -393 459 -626 218 -428 326 -873 326 -1347
0 -130 0 -132 26 -152 38 -30 88 -27 121 5 l26 26 -5 221 c-7 266 -31 445 -93
693 -165 654 -520 1189 -1055 1593 -259 195 -546 345 -848 442 -348 111 -787
158 -1185 128z"/>
<path d="M5453 7610 c-373 -129 -723 -476 -857 -849 -15 -41 -29 -78 -32 -82
-2 -4 -23 -1 -46 7 -48 17 -252 19 -313 3 -96 -25 -147 -76 -166 -166 -17 -85
-14 -322 6 -437 62 -362 257 -643 559 -810 120 -66 316 -125 417 -126 46 0 46
-1 53 -37 13 -81 83 -73 -638 -73 l-644 0 -7 88 c-22 307 -41 481 -71 652 -42
238 -78 401 -105 471 -79 206 -252 355 -469 406 -41 9 -76 18 -78 19 -1 1 18
97 43 214 45 211 52 265 37 286 -31 45 -108 58 -141 23 -22 -24 -23 -27 -77
-304 -20 -104 -38 -192 -40 -194 -9 -10 -18 18 -75 245 -122 485 -125 496
-158 521 -38 29 -112 9 -130 -35 -11 -26 -4 -62 68 -338 44 -170 87 -331 95
-359 9 -27 16 -56 16 -63 0 -7 -83 65 -185 160 -102 95 -195 176 -207 181 -37
13 -88 -11 -105 -50 -21 -52 -6 -78 105 -180 54 -48 133 -122 177 -164 l81
-76 -49 -42 c-94 -79 -161 -181 -198 -301 -18 -59 -23 -98 -23 -185 0 -98 3
-120 32 -205 51 -147 247 -539 354 -709 15 -25 28 -49 28 -53 0 -4 -108 -8
-240 -8 l-239 0 6 85 c7 95 -5 127 -52 139 -33 8 -92 -10 -104 -32 -5 -9 -14
-58 -21 -109 l-13 -92 -48 -41 c-158 -133 -141 -397 35 -530 53 -40 155 -80
204 -80 28 0 29 -1 72 -162 153 -577 441 -1556 501 -1701 114 -277 314 -456
590 -530 l84 -22 1640 0 c1850 0 1686 -7 1870 79 203 96 354 261 441 484 53
133 292 949 454 1543 l83 307 49 5 c112 14 234 97 288 198 33 61 35 69 35 164
0 91 -2 104 -27 147 -35 59 -106 121 -156 136 -23 7 -107 12 -206 12 -91 0
-166 3 -166 8 0 4 7 39 15 77 29 138 14 361 -31 475 -69 172 -203 304 -374
367 -66 24 -90 27 -195 28 -69 0 -134 -5 -152 -12 -39 -14 -43 -2 -17 50 46
90 147 175 234 197 63 16 90 44 90 92 0 51 -35 88 -82 88 -50 -1 -162 -44
-216 -84 -97 -71 -164 -161 -197 -263 -10 -29 -20 -53 -24 -53 -4 0 -18 12
-32 26 -30 33 -140 106 -194 129 -52 21 -174 45 -233 45 -102 -1 -261 -50
-306 -96 -19 -19 -20 -19 -13 6 37 128 42 180 42 395 -1 237 -14 333 -71 505
-82 247 -283 544 -405 600 -57 25 -77 24 -176 -10z m152 -197 c87 -89 207
-299 258 -453 51 -151 70 -272 71 -445 0 -174 -10 -253 -49 -390 -74 -255
-211 -457 -419 -620 -71 -55 -201 -135 -219 -135 -23 0 62 653 93 711 5 8 53
45 107 82 247 168 317 222 327 254 17 60 -46 125 -107 109 -12 -3 -78 -45
-147 -95 -69 -49 -126 -87 -128 -86 -3 2 47 179 133 465 57 192 56 189 40 220
-27 52 -103 63 -143 20 -10 -11 -48 -128 -91 -282 -40 -145 -76 -271 -80 -282
-5 -13 -23 25 -65 138 -32 87 -66 166 -75 177 -9 12 -33 23 -58 26 -36 5 -45
2 -68 -22 -24 -23 -27 -32 -22 -68 6 -39 78 -242 168 -474 l40 -102 -25 -128
c-32 -163 -66 -406 -67 -480 -1 -32 -4 -71 -8 -87 l-6 -30 -73 63 c-170 146
-273 354 -303 612 -61 531 228 1043 726 1285 61 30 120 54 131 54 12 0 38 -17
59 -37z m-1106 -899 c20 -6 22 -11 17 -43 -14 -83 -18 -263 -7 -363 23 -211
92 -408 194 -557 35 -52 139 -159 177 -183 24 -16 24 -16 -16 -7 -115 24 -275
122 -381 232 -158 163 -245 356 -272 607 -10 91 -2 292 12 306 22 22 209 27
276 8z m-1406 -29 c142 -30 265 -125 330 -254 33 -65 76 -216 65 -227 -3 -2
-49 -15 -102 -29 -117 -30 -130 -36 -146 -75 -17 -41 2 -87 46 -107 30 -15 39
-14 131 10 54 14 101 23 104 19 22 -24 101 -727 86 -766 -6 -15 -38 -16 -343
-14 l-337 3 -44 73 c-24 41 -43 75 -43 77 0 2 90 33 200 70 167 56 204 71 225
97 14 16 25 41 25 55 0 33 -51 83 -84 83 -15 0 -113 -29 -219 -64 -270 -90
-235 -92 -294 17 -89 161 -145 279 -136 287 4 4 67 27 138 49 72 23 143 47
158 53 35 13 60 59 51 93 -7 27 -57 75 -80 75 -7 0 -80 -21 -161 -46 -82 -26
-159 -49 -172 -52 l-24 -5 6 99 c7 122 34 204 92 283 123 167 320 240 528 196z
m3412 -477 c71 -17 157 -71 239 -149 51 -48 93 -79 112 -83 20 -5 83 3 170 20
125 24 148 26 222 17 192 -24 332 -156 383 -363 25 -102 12 -325 -23 -392 -8
-17 -61 -18 -893 -18 -845 0 -885 1 -894 18 -18 35 -34 196 -27 288 11 166 58
298 152 430 137 194 353 283 559 232z m-870 -926 l8 -42 -194 2 -194 3 -3 65
-3 66 106 53 c58 30 141 80 183 113 l77 59 6 -138 c3 -76 9 -157 14 -181z
m2501 -256 c29 -29 34 -41 34 -83 0 -83 -52 -147 -145 -177 -46 -15 -307 -16
-2920 -14 -2741 3 -2872 4 -2910 21 -83 37 -125 97 -125 177 0 44 5 56 29 81
l29 29 2987 0 2987 0 34 -34z m-360 -473 c-3 -10 -15 -56 -26 -103 -20 -77
-68 -253 -209 -765 l-47 -170 -466 -5 c-507 -5 -488 -3 -508 -65 -13 -39 5
-86 39 -105 13 -6 173 -10 446 -10 401 0 426 -1 421 -17 -3 -10 -23 -83 -46
-163 -115 -406 -148 -479 -275 -605 -73 -74 -106 -99 -175 -132 -47 -23 -112
-47 -144 -52 -41 -8 -577 -11 -1666 -11 -1566 0 -1609 0 -1684 20 -187 48
-342 175 -434 356 -38 75 -96 259 -313 999 -27 94 -51 184 -52 200 l-2 30 430
5 c237 3 431 7 432 8 1 1 10 16 19 33 19 39 12 89 -17 115 -20 18 -46 19 -474
22 l-452 3 -42 152 c-23 84 -51 180 -61 215 l-18 62 2665 0 c2533 0 2664 -1
2659 -17z"/>
<path d="M3734 3930 c-53 -21 -70 -97 -33 -144 l20 -26 340 0 340 0 24 25 c36
35 34 88 -4 126 l-29 29 -319 -1 c-175 0 -328 -4 -339 -9z"/>
<path d="M5634 3298 c-50 -24 -57 -96 -15 -139 l29 -29 332 0 332 0 29 29 c20
20 29 39 29 61 0 22 -9 41 -29 61 l-29 29 -329 -1 c-204 0 -336 -4 -349 -11z"/>
</g>
</svg>
