<?xml version="1.0" standalone="no"?>
<!DOCTYPE svg PUBLIC "-//W3C//DTD SVG 20010904//EN"
 "http://www.w3.org/TR/2001/REC-SVG-20010904/DTD/svg10.dtd">
<svg version="1.0" xmlns="http://www.w3.org/2000/svg"
 width="1536.000000pt" height="1024.000000pt" viewBox="0 0 1536.000000 1024.000000"
 preserveAspectRatio="xMidYMid meet">

<g transform="translate(0.000000,1024.000000) scale(0.100000,-0.100000)"
fill="#000000" stroke="none">
<path d="M5075 8415 c-95 -21 -237 -86 -222 -102 3 -2 17 3 31 12 14 10 26 13
26 7 0 -11 -33 -24 -64 -26 -28 -1 -111 -109 -138 -176 -18 -45 -22 -74 -22
-165 1 -100 4 -118 34 -195 42 -109 44 -186 7 -277 -14 -35 -35 -76 -47 -93
-12 -16 -18 -35 -14 -41 4 -7 3 -9 -4 -5 -6 3 -23 -9 -37 -28 -15 -19 -58 -61
-96 -92 -38 -31 -67 -60 -64 -64 3 -5 0 -12 -6 -16 -8 -4 -9 -3 -5 4 13 21 -3
13 -82 -40 -151 -101 -322 -245 -322 -271 0 -6 10 -2 23 9 l22 19 -19 -22
c-10 -12 -23 -21 -30 -20 -6 1 -27 -30 -46 -69 -45 -92 -62 -127 -97 -194
l-28 -55 0 -275 0 -275 29 -58 c17 -37 42 -69 65 -85 l37 -26 -33 -56 c-73
-120 -68 -2 -68 -1615 l0 -1450 24 -74 c43 -130 138 -251 251 -318 19 -12 64
-32 100 -45 l65 -23 885 0 885 0 66 23 c100 34 216 112 202 135 -3 6 -1 7 5 3
29 -17 141 167 161 266 8 37 11 486 9 1513 l-3 1460 -22 54 c-12 29 -33 71
-47 91 l-25 38 34 24 c19 12 35 27 35 31 0 9 -36 -9 -45 -23 -8 -13 -35 -13
-35 1 0 5 4 8 9 4 5 -3 16 2 24 10 9 8 26 16 39 18 15 3 32 19 48 48 l25 44 0
285 0 285 -27 52 c-15 28 -32 54 -37 57 -5 4 -17 28 -27 54 -51 136 -168 261
-366 393 -68 44 -135 93 -150 107 -15 14 -30 23 -33 20 -3 -2 4 -13 15 -23 11
-10 20 -23 20 -28 0 -5 -10 3 -22 19 -13 16 -22 30 -20 32 2 1 -24 33 -58 70
-96 106 -160 248 -160 353 0 26 14 100 30 164 35 137 38 217 10 307 -50 161
-177 270 -367 312 -86 19 -244 20 -328 1z m203 -2 c-16 -2 -40 -2 -55 0 -16 2
-3 4 27 4 30 0 43 -2 28 -4z m-158 -14 c-30 -5 -58 -15 -62 -22 -5 -8 -8 -7
-8 5 0 17 26 25 90 25 25 1 19 -2 -20 -8z m266 2 c-3 -5 -15 -7 -26 -4 -28 7
-25 13 6 13 14 0 23 -4 20 -9z m59 -11 c13 -5 14 -9 5 -9 -8 0 -24 4 -35 9
-13 5 -14 9 -5 9 8 0 24 -4 35 -9z m-425 -12 c-14 -6 -28 -10 -32 -10 -4 1 -4
-6 -1 -15 6 -15 5 -16 -9 -3 -15 14 -14 16 10 27 15 7 34 12 42 12 8 0 4 -5
-10 -11z m509 -17 c10 -7 7 -9 -12 -8 -14 1 -23 5 -20 10 6 9 15 9 32 -2z
m-570 -10 c9 -6 6 -8 -13 -8 -14 0 -23 3 -20 8 7 11 15 11 33 0z m80 6 c-2 -2
-12 -9 -21 -16 -15 -11 -18 -11 -18 1 0 7 10 14 21 15 12 1 20 1 18 0z m-4
-27 c3 -5 1 -10 -4 -10 -6 0 -11 5 -11 10 0 6 2 10 4 10 3 0 8 -4 11 -10z
m-195 -43 c0 -2 -12 -14 -27 -28 l-28 -24 24 28 c23 25 31 32 31 24z m493 -74
c-7 -2 -21 -2 -30 0 -10 3 -4 5 12 5 17 0 24 -2 18 -5z m-233 -13 c-8 -5 -19
-10 -25 -10 -5 0 -3 5 5 10 8 5 20 10 25 10 6 0 3 -5 -5 -10z m287 4 c-3 -3
-12 -4 -19 -1 -8 3 -5 6 6 6 11 1 17 -2 13 -5z m333 -14 c6 -11 8 -20 6 -20
-3 0 -10 9 -16 20 -6 11 -8 20 -6 20 3 0 10 -9 16 -20z m-293 -24 c33 -15 73
-41 89 -57 15 -15 31 -26 35 -23 4 2 11 -1 15 -7 5 -8 3 -9 -6 -4 -10 6 -11 4
-5 -11 18 -45 17 -113 -3 -175 -66 -201 -51 -398 44 -580 37 -71 159 -229 176
-229 6 0 5 7 -3 17 -13 15 -12 15 8 2 13 -8 18 -16 12 -20 -15 -9 112 -116
238 -200 98 -65 233 -182 233 -201 0 -4 -461 -8 -1025 -8 -564 0 -1025 3
-1025 6 0 4 14 22 31 42 19 21 27 37 20 41 -6 4 -1 12 12 20 20 13 21 13 8 -2
-7 -10 -9 -17 -3 -17 5 0 15 7 23 16 7 9 41 36 76 61 34 24 62 49 60 55 -1 5
9 17 23 25 l25 15 -25 -21 c-33 -27 -17 -27 22 0 23 17 27 24 16 31 -10 7 -8
8 5 4 20 -6 90 40 82 54 -3 5 0 12 6 16 8 4 9 3 5 -4 -15 -25 12 -9 66 39 31
27 56 55 54 62 -1 7 -1 8 2 4 2 -4 10 -3 18 4 8 6 11 16 7 22 -3 5 -1 7 5 3
24 -15 152 166 192 272 53 141 49 267 -11 419 -55 139 -32 242 68 304 68 42
148 59 263 56 89 -3 114 -8 167 -31z m-679 -1 c-6 -14 -13 -23 -15 -21 -5 5
15 46 22 46 3 0 -1 -11 -7 -25z m742 -11 c0 -2 -9 0 -20 6 -11 6 -20 13 -20
16 0 2 9 0 20 -6 11 -6 20 -13 20 -16z m-481 13 c-2 -1 -13 -9 -24 -17 -19
-14 -19 -14 -6 3 7 9 18 17 24 17 6 0 8 -1 6 -3z m516 -35 c-3 -3 -11 0 -18 7
-9 10 -8 11 6 5 10 -3 15 -9 12 -12z m30 -22 c3 -6 -1 -7 -9 -4 -18 7 -21 14
-7 14 6 0 13 -4 16 -10z m-839 -50 c-2 -43 -16 -69 -16 -29 0 24 10 69 15 69
2 0 2 -18 1 -40z m1051 -12 c-3 -8 -6 -5 -6 6 -1 11 2 17 5 13 3 -3 4 -12 1
-19z m-890 -95 c-3 -10 -5 -2 -5 17 0 19 2 27 5 18 2 -10 2 -26 0 -35z m902
10 c0 -25 -1 -25 -8 -8 -5 11 -7 23 -4 28 8 14 13 7 12 -20z m-1082 -25 c-3
-7 -5 -2 -5 12 0 14 2 19 5 13 2 -7 2 -19 0 -25z m1070 -55 c-3 -10 -5 -2 -5
17 0 19 2 27 5 18 2 -10 2 -26 0 -35z m-880 15 c-3 -8 -6 -5 -6 6 -1 11 2 17
5 13 3 -3 4 -12 1 -19z m-180 -20 c-3 -8 -6 -5 -6 6 -1 11 2 17 5 13 3 -3 4
-12 1 -19z m853 -35 c-11 -17 -11 -17 -6 0 3 10 6 24 7 30 0 9 2 9 5 0 3 -7 0
-20 -6 -30z m197 -5 c-3 -8 -6 -5 -6 6 -1 11 2 17 5 13 3 -3 4 -12 1 -19z
m-210 -40 c-3 -8 -6 -5 -6 6 -1 11 2 17 5 13 3 -3 4 -12 1 -19z m200 0 c-3 -8
-6 -5 -6 6 -1 11 2 17 5 13 3 -3 4 -12 1 -19z m-810 -30 c-3 -8 -6 -5 -6 6 -1
11 2 17 5 13 3 -3 4 -12 1 -19z m794 -19 c-5 -13 -10 -19 -10 -12 -1 15 10 45
15 40 3 -2 0 -15 -5 -28z m-194 -11 c-3 -7 -5 -2 -5 12 0 14 2 19 5 13 2 -7 2
-19 0 -25z m-590 -10 c-3 -8 -6 -5 -6 6 -1 11 2 17 5 13 3 -3 4 -12 1 -19z
m10 -55 c-3 -10 -5 -4 -5 12 0 17 2 24 5 18 2 -7 2 -21 0 -30z m760 15 c-3 -8
-6 -5 -6 6 -1 11 2 17 5 13 3 -3 4 -12 1 -19z m-190 -75 c-2 -16 -4 -5 -4 22
0 28 2 40 4 28 2 -13 2 -35 0 -50z m-750 10 c-3 -10 -5 -4 -5 12 0 17 2 24 5
18 2 -7 2 -21 0 -30z m940 -35 c-3 -8 -6 -5 -6 6 -1 11 2 17 5 13 3 -3 4 -12
1 -19z m-940 -10 c-3 -8 -6 -5 -6 6 -1 11 2 17 5 13 3 -3 4 -12 1 -19z m180
-40 c-3 -7 -5 -2 -5 12 0 14 2 19 5 13 2 -7 2 -19 0 -25z m580 0 c-3 -7 -5 -2
-5 12 0 14 2 19 5 13 2 -7 2 -19 0 -25z m16 -43 c-7 -21 -13 -19 -13 6 0 11 4
18 10 14 5 -3 7 -12 3 -20z m205 -40 c6 -14 10 -25 8 -25 -2 0 -11 11 -20 25
-9 14 -13 25 -8 25 5 0 14 -11 20 -25z m-854 -90 c-4 -8 -8 -15 -10 -15 -2 0
-4 7 -4 15 0 8 4 15 10 15 5 0 7 -7 4 -15z m690 -1 c3 -8 2 -12 -4 -9 -6 3
-10 10 -10 16 0 14 7 11 14 -7z m-939 -34 c-3 -5 -1 -10 4 -10 6 0 11 -5 11
-11 0 -8 -5 -8 -15 1 -13 11 -12 30 1 30 3 0 2 -4 -1 -10z m225 -10 c-6 -11
-13 -20 -16 -20 -2 0 0 9 6 20 6 11 13 20 16 20 2 0 0 -9 -6 -20z m740 16 c0
-3 -4 -8 -10 -11 -5 -3 -10 -1 -10 4 0 6 5 11 10 11 6 0 10 -2 10 -4z m228
-41 c-3 -3 -9 2 -12 12 -6 14 -5 15 5 6 7 -7 10 -15 7 -18z m-220 -10 c-3 -3
-9 2 -12 12 -6 14 -5 15 5 6 7 -7 10 -15 7 -18z m-824 -70 c-9 -14 -20 -25
-25 -25 -5 0 1 11 13 25 12 14 23 25 25 25 2 0 -4 -11 -13 -25z m-294 -19 c0
-2 -8 -10 -17 -17 -16 -13 -17 -12 -4 4 13 16 21 21 21 13z m1550 -81 c7 -9 8
-15 2 -15 -5 0 -12 7 -16 15 -3 8 -4 15 -2 15 2 0 9 -7 16 -15z m64 -40 c11
-8 16 -15 10 -15 -5 0 -18 7 -28 15 -11 8 -16 15 -10 15 5 0 18 -7 28 -15z
m-1731 -26 c-8 -8 -13 -7 -18 2 -5 8 -4 10 3 5 7 -4 12 -2 12 5 0 7 3 9 7 6 4
-4 2 -12 -4 -18z m-119 -27 c3 -5 -1 -9 -9 -9 -8 0 -12 4 -9 9 3 4 7 8 9 8 2
0 6 -4 9 -8z m2017 -69 c13 -16 12 -17 -3 -4 -10 7 -18 15 -18 17 0 8 8 3 21
-13z m-241 -63 c8 -5 11 -10 5 -10 -5 0 -21 10 -35 21 -24 20 -5 13 30 -11z
m-1673 -27 c0 -9 -4 -10 -14 -2 -10 9 -18 8 -30 -2 -16 -13 -17 -12 -5 3 15
19 49 20 49 1z m1818 -71 c-3 -3 0 -11 6 -19 17 -20 5 -16 -14 5 -15 16 -15
19 -2 19 8 0 13 -3 10 -5z m-2182 -37 c-3 -9 -8 -14 -10 -11 -3 3 -2 9 2 15 9
16 15 13 8 -4z m2227 11 c0 -3 -4 -8 -10 -11 -5 -3 -10 -1 -10 4 0 6 5 11 10
11 6 0 10 -2 10 -4z m235 -43 c9 -20 14 -41 12 -47 -2 -6 -9 6 -16 27 -7 20
-17 35 -22 32 -5 -4 -6 1 -3 9 9 23 12 20 29 -21z m-2250 -3 c-10 -11 -21 -18
-23 -15 -3 3 3 12 14 20 27 20 30 18 9 -5z m2030 0 c10 -11 16 -20 13 -20 -3
0 -13 9 -23 20 -10 11 -16 20 -13 20 3 0 13 -9 23 -20z m-2284 -73 c-10 -9
-11 -8 -5 6 3 10 9 15 12 12 3 -3 0 -11 -7 -18z m337 8 c-7 -8 -87 -9 -95 -2
-3 4 18 7 47 7 29 0 51 -2 48 -5z m460 -2 c-81 -2 -216 -2 -300 0 -84 1 -18 3
147 3 165 0 234 -2 153 -3z m1490 2 c-6 -7 -1330 -7 -1336 0 -3 3 298 5 668 5
370 0 671 -2 668 -5z m-2288 -29 c0 -2 -7 -7 -16 -10 -8 -3 -12 -2 -9 4 6 10
25 14 25 6z m-40 -46 c-6 -11 -13 -20 -16 -20 -2 0 0 9 6 20 6 11 13 20 16 20
2 0 0 -9 -6 -20z m2649 -85 c0 -11 -8 5 -19 35 -11 30 -19 57 -19 60 1 14 38
-78 38 -95z m-2682 -52 c-3 -10 -5 -4 -5 12 0 17 2 24 5 18 2 -7 2 -21 0 -30z
m460 31 c-3 -3 -12 -4 -19 -1 -8 3 -5 6 6 6 11 1 17 -2 13 -5z m520 0 c-3 -3
-12 -4 -19 -1 -8 3 -5 6 6 6 11 1 17 -2 13 -5z m300 0 c-3 -3 -12 -4 -19 -1
-8 3 -5 6 6 6 11 1 17 -2 13 -5z m250 0 c-3 -3 -12 -4 -19 -1 -8 3 -5 6 6 6
11 1 17 -2 13 -5z m290 0 c-3 -3 -12 -4 -19 -1 -8 3 -5 6 6 6 11 1 17 -2 13
-5z m100 0 c-3 -3 -12 -4 -19 -1 -8 3 -5 6 6 6 11 1 17 -2 13 -5z m146 -1 c-7
-2 -19 -2 -25 0 -7 3 -2 5 12 5 14 0 19 -2 13 -5z m175 0 c-10 -2 -26 -2 -35
0 -10 3 -2 5 17 5 19 0 27 -2 18 -5z m55 0 c-7 -2 -19 -2 -25 0 -7 3 -2 5 12
5 14 0 19 -2 13 -5z m110 0 c-13 -2 -33 -2 -45 0 -13 2 -3 4 22 4 25 0 35 -2
23 -4z m286 -80 c-2 -79 -6 -70 -11 25 -2 28 0 52 5 52 4 0 6 -35 6 -77z
m-206 -10 c4 -38 7 -141 7 -230 l0 -163 -1150 0 -1150 0 0 230 0 230 1144 0
1143 0 6 -67z m24 25 c-3 -8 -6 -5 -6 6 -1 11 2 17 5 13 3 -3 4 -12 1 -19z
m-2510 -131 c-2 -23 -3 -1 -3 48 0 50 1 68 3 42 2 -26 2 -67 0 -90z m2510 61
c-2 -13 -4 -5 -4 17 -1 22 1 32 4 23 2 -10 2 -28 0 -40z m0 -270 c-1 -46 -3
-9 -3 82 0 91 2 128 3 83 2 -46 2 -120 0 -165z m180 200 c-3 -8 -6 -5 -6 6 -1
11 2 17 5 13 3 -3 4 -12 1 -19z m3 -33 c0 -8 -2 -15 -4 -15 -2 0 -6 7 -10 15
-3 8 -1 15 4 15 6 0 10 -7 10 -15z m0 -41 c0 -8 -4 -12 -10 -9 -5 3 -10 10
-10 16 0 5 5 9 10 9 6 0 10 -7 10 -16z m-3 -151 c-2 -21 -4 -4 -4 37 0 41 2
58 4 38 2 -21 2 -55 0 -75z m-2690 60 c-3 -10 -5 -4 -5 12 0 17 2 24 5 18 2
-7 2 -21 0 -30z m0 -105 c-2 -18 -4 -6 -4 27 0 33 2 48 4 33 2 -15 2 -42 0
-60z m2680 -30 c-3 -7 -5 -2 -5 12 0 14 2 19 5 13 2 -7 2 -19 0 -25z m-1870 6
c-3 -3 -12 -4 -19 -1 -8 3 -5 6 6 6 11 1 17 -2 13 -5z m-289 -36 c-2 -6 -10
-13 -16 -14 -7 -1 -8 0 -2 3 5 2 8 9 4 14 -3 5 0 9 6 9 7 0 10 -5 8 -12z
m1502 -3 c0 -8 -7 -15 -15 -15 -13 0 -14 3 -3 15 16 18 18 18 18 0z m644 -10
c-4 -8 -11 -15 -16 -15 -6 0 -5 6 2 15 7 8 14 15 16 15 2 0 1 -7 -2 -15z
m-946 -142 c-236 -2 -620 -2 -855 0 -236 1 -43 2 427 2 470 0 663 -1 428 -2z
m576 -14 c8 -9 8 -10 -1 -5 -7 4 -32 11 -55 16 l-43 9 44 -3 c24 -3 49 -10 55
-17z m-2170 3 c3 -5 -1 -9 -9 -9 -8 0 -12 4 -9 9 3 4 7 8 9 8 2 0 6 -4 9 -8z
m256 -6 c0 -2 -7 -7 -16 -10 -8 -3 -12 -2 -9 4 6 10 25 14 25 6z m1936 -31
c60 -37 109 -107 123 -178 8 -36 11 -474 9 -1457 l-3 -1405 -26 -56 c-36 -76
-90 -133 -157 -166 l-57 -28 -870 0 c-989 0 -924 -5 -1008 84 -54 58 -81 108
-96 179 -7 35 -11 217 -11 537 l0 485 311 0 311 0 34 34 c56 56 44 135 -26
171 -24 12 -82 15 -330 15 l-300 0 0 450 0 450 288 0 c170 0 302 4 325 11 45
12 77 57 77 107 0 25 -9 43 -34 68 l-34 34 -311 0 -311 0 0 215 c0 117 5 238
11 267 21 103 82 175 171 203 35 11 214 14 954 12 l911 -2 49 -30z m85 -42
c13 -16 12 -17 -3 -4 -10 7 -18 15 -18 17 0 8 8 3 21 -13z m-2350 -44 c-5 -13
-10 -19 -10 -12 -1 15 10 45 15 40 3 -2 0 -15 -5 -28z m2408 -79 c0 -10 -3 -8
-9 5 -12 27 -12 43 0 25 5 -8 9 -22 9 -30z m178 -7 c-3 -10 -5 -4 -5 12 0 17
2 24 5 18 2 -7 2 -21 0 -30z m-2610 -15 c-3 -7 -5 -2 -5 12 0 14 2 19 5 13 2
-7 2 -19 0 -25z m187 8 c-3 -9 -10 -13 -15 -10 -5 3 -3 11 4 19 15 16 19 13
11 -9z m2253 -2133 c-1 -390 -2 -71 -2 707 0 778 1 1097 2 708 2 -390 2 -1026
0 -1415z m-2440 1974 c-2 -23 -3 -1 -3 48 0 50 1 68 3 42 2 -26 2 -67 0 -90z
m180 -219 c-1 -68 -3 -15 -3 117 0 132 2 187 3 123 2 -64 2 -172 0 -240z
m2440 -1770 c-1 -392 -2 -74 -2 707 0 781 1 1102 2 713 2 -388 2 -1027 0
-1420z m-2620 1715 c-1 -43 -3 -8 -3 77 0 85 2 120 3 78 2 -43 2 -113 0 -155z
m406 -70 c-34 -2 -93 -2 -130 0 -37 2 -9 3 62 3 72 0 102 -1 68 -3z m94 1 c-3
-3 -12 -4 -19 -1 -8 3 -5 6 6 6 11 1 17 -2 13 -5z m226 -1 c-35 -2 -91 -2
-125 0 -35 2 -7 3 62 3 69 0 97 -1 63 -3z m-726 -110 c-2 -21 -4 -6 -4 32 0
39 2 55 4 38 2 -18 2 -50 0 -70z m863 -10 c-11 -17 -11 -17 -6 0 3 10 7 26 7
35 1 15 2 15 6 0 2 -10 -1 -25 -7 -35z m-10 -29 c0 -8 -19 -13 -24 -6 -3 5 1
9 9 9 8 0 15 -2 15 -3z m-602 -31 c-10 -2 -26 -2 -35 0 -10 3 -2 5 17 5 19 0
27 -2 18 -5z m120 0 c-10 -2 -26 -2 -35 0 -10 3 -2 5 17 5 19 0 27 -2 18 -5z
m85 0 c-13 -2 -33 -2 -45 0 -13 2 -3 4 22 4 25 0 35 -2 23 -4z m334 1 c-3 -3
-12 -4 -19 -1 -8 3 -5 6 6 6 11 1 17 -2 13 -5z m-610 -702 c-1 -125 -2 -22 -2
228 0 250 1 353 2 227 2 -125 2 -329 0 -455z m-180 516 c-2 -29 -3 -6 -3 52 0
58 1 81 3 53 2 -29 2 -77 0 -105z m0 -335 c-2 -21 -4 -6 -4 32 0 39 2 55 4 38
2 -18 2 -50 0 -70z m0 -80 c-3 -10 -5 -4 -5 12 0 17 2 24 5 18 2 -7 2 -21 0
-30z m0 -45 c-3 -8 -6 -5 -6 6 -1 11 2 17 5 13 3 -3 4 -12 1 -19z m0 -100 c-2
-13 -4 -3 -4 22 0 25 2 35 4 23 2 -13 2 -33 0 -45z m862 -252 c-3 -3 -11 5
-18 17 -13 21 -12 21 5 5 10 -10 16 -20 13 -22z m8 -48 c-3 -7 -5 -2 -5 12 0
14 2 19 5 13 2 -7 2 -19 0 -25z m-870 -10 c-3 -8 -6 -5 -6 6 -1 11 2 17 5 13
3 -3 4 -12 1 -19z m0 -40 c-3 -8 -6 -5 -6 6 -1 11 2 17 5 13 3 -3 4 -12 1 -19z
m828 -18 c-3 -5 -14 -10 -23 -9 -14 0 -13 2 3 9 27 11 27 11 20 0z m-70 -14
c11 -2 -113 -3 -275 -3 -162 0 -261 3 -220 6 77 6 459 4 495 -3z m-578 -779
c-1 -139 -2 -22 -2 258 0 281 1 394 2 252 2 -142 2 -372 0 -510z m-180 671
c-2 -13 -4 -3 -4 22 0 25 2 35 4 23 2 -13 2 -33 0 -45z m0 -330 c-3 -7 -5 -2
-5 12 0 14 2 19 5 13 2 -7 2 -19 0 -25z m0 -155 c-2 -27 -3 -5 -3 47 0 52 1
74 3 48 2 -27 2 -69 0 -95z m0 -105 c-2 -13 -4 -5 -4 17 -1 22 1 32 4 23 2
-10 2 -28 0 -40z m0 -110 c-3 -7 -5 -2 -5 12 0 14 2 19 5 13 2 -7 2 -19 0 -25z
m0 -70 c-2 -13 -4 -5 -4 17 -1 22 1 32 4 23 2 -10 2 -28 0 -40z m0 -60 c-3 -8
-6 -5 -6 6 -1 11 2 17 5 13 3 -3 4 -12 1 -19z m6 -98 c3 -44 2 -63 -3 -45 -8
30 -13 132 -6 124 2 -2 6 -38 9 -79z m184 -22 c-3 -8 -6 -5 -6 6 -1 11 2 17 5
13 3 -3 4 -12 1 -19z m16 -38 c3 -11 1 -18 -4 -14 -5 3 -9 12 -9 20 0 20 7 17
13 -6z m2401 -14 c-3 -15 -8 -25 -11 -23 -2 3 -1 17 3 31 3 15 8 25 11 23 2
-3 1 -17 -3 -31z m-2580 -42 c3 -8 2 -12 -4 -9 -6 3 -10 10 -10 16 0 14 7 11
14 -7z m2557 -27 c-10 -9 -11 -8 -5 6 3 10 9 15 12 12 3 -3 0 -11 -7 -18z
m-2529 -42 c9 -20 9 -20 -6 -1 -9 11 -16 27 -15 35 0 14 1 14 6 1 3 -8 10 -24
15 -35z m2511 0 c-3 -9 -8 -14 -10 -11 -3 3 -2 9 2 15 9 16 15 13 8 -4z m-13
-29 c0 -2 -8 -10 -17 -17 -16 -13 -17 -12 -4 4 13 16 21 21 21 13z m-2456 -31
c3 -8 1 -15 -3 -15 -5 0 -11 7 -15 15 -3 8 -1 15 3 15 5 0 11 -7 15 -15z
m2152 -10 c-11 -8 -25 -15 -30 -15 -6 1 0 7 14 15 32 19 40 18 16 0z m-1813
-22 c-7 -2 -19 -2 -25 0 -7 3 -2 5 12 5 14 0 19 -2 13 -5z m1747 -3 c-14 -4
-133 -7 -265 -7 l-240 1 245 6 c135 3 254 6 265 7 15 1 13 -1 -5 -7z m-545 -7
c-85 -7 -1183 -8 -1178 0 2 4 277 6 611 5 334 -1 589 -3 567 -5z m-1245 -173
c20 -6 21 -8 5 -8 -11 0 -29 3 -40 8 -25 11 1 11 35 0z m67 -16 c-3 -3 -12 -4
-19 -1 -8 3 -5 6 6 6 11 1 17 -2 13 -5z m1720 0 c-3 -3 -12 -4 -19 -1 -8 3 -5
6 6 6 11 1 17 -2 13 -5z"/>
<path d="M7815 8199 c-80 -11 -216 -54 -290 -91 -113 -57 -251 -160 -239 -179
2 -4 -1 -11 -7 -15 -8 -5 -9 -3 -4 6 18 30 -16 1 -64 -54 -103 -119 -170 -242
-215 -398 -39 -133 -49 -233 -43 -397 9 -229 50 -388 152 -591 70 -140 206
-337 225 -325 4 3 7 -2 6 -9 -1 -16 170 -206 186 -206 6 0 5 7 -3 18 -13 16
-13 16 7 -1 11 -9 24 -14 29 -10 4 5 5 2 1 -5 -4 -7 -13 -9 -19 -6 -7 4 6 -12
28 -35 22 -23 45 -39 53 -36 7 2 11 1 8 -4 -9 -15 138 -129 299 -232 254 -163
607 -327 785 -365 85 -18 154 -18 248 2 263 54 731 299 1032 541 84 67 100 91
70 105 -10 4 -7 7 11 7 14 1 31 7 39 14 8 6 4 0 -9 -15 -14 -16 -20 -28 -15
-28 12 0 224 212 224 225 0 5 -15 -4 -32 -21 l-33 -29 29 32 c16 18 33 30 37
28 4 -3 24 14 43 38 37 45 45 64 24 51 -8 -4 -10 -3 -5 2 5 5 14 9 20 9 17 0
119 157 176 271 100 202 143 385 144 614 0 208 -38 380 -121 545 -43 87 -91
157 -101 150 -5 -2 -15 3 -22 13 -13 15 -12 16 4 3 9 -7 17 -9 17 -4 0 15 -36
44 -44 36 -4 -4 -4 0 -1 8 8 21 -93 114 -200 184 -175 115 -326 159 -540 158
-160 -1 -275 -25 -406 -85 -125 -58 -307 -187 -293 -209 3 -5 2 -9 -3 -8 -23
4 -38 -7 -98 -78 -41 -48 -64 -83 -60 -92 3 -9 -16 9 -42 39 -277 326 -632
480 -988 429z m58 -16 c-7 -2 -21 -2 -30 0 -10 3 -4 5 12 5 17 0 24 -2 18 -5z
m195 0 c-10 -2 -26 -2 -35 0 -10 3 -2 5 17 5 19 0 27 -2 18 -5z m1560 0 c-10
-2 -26 -2 -35 0 -10 3 -2 5 17 5 19 0 27 -2 18 -5z m188 -3 c-17 -6 -36 -5
-45 0 -11 7 -3 9 29 9 42 -1 43 -1 16 -9z m-2026 -9 c-17 -9 -116 -24 -108
-16 5 6 82 22 108 24 13 0 13 -1 0 -8z m347 3 c-3 -3 -12 -4 -19 -1 -8 3 -5 6
6 6 11 1 17 -2 13 -5z m1413 2 c0 -11 -19 -15 -25 -6 -3 5 1 10 9 10 9 0 16
-2 16 -4z m350 0 c0 -2 -11 -6 -25 -8 -14 -3 -25 -1 -25 3 0 5 11 9 25 9 14 0
25 -2 25 -4z m-1695 -16 c13 -5 14 -9 5 -9 -8 0 -24 4 -35 9 -13 5 -14 9 -5 9
8 0 24 -4 35 -9z m1302 4 c-3 -3 -12 -4 -19 -1 -8 3 -5 6 6 6 11 1 17 -2 13
-5z m-40 -10 c-3 -3 -12 -4 -19 -1 -8 3 -5 6 6 6 11 1 17 -2 13 -5z m542 -10
c13 -12 -8 -10 -29 2 l-25 15 25 -7 c14 -3 27 -8 29 -10z m-2354 -22 c-3 -3
-11 0 -18 7 -9 10 -8 11 6 5 10 -3 15 -9 12 -12z m655 -2 c0 -5 -2 -10 -4 -10
-3 0 -8 5 -11 10 -3 6 -1 10 4 10 6 0 11 -4 11 -10z m1768 1 c10 -6 10 -10 -3
-21 -13 -11 -14 -10 -8 5 5 15 3 17 -11 12 -10 -4 -15 -3 -11 3 7 12 16 12 33
1z m-2503 -11 c-3 -5 -12 -10 -18 -10 -7 0 -6 4 3 10 19 12 23 12 15 0z m-75
-40 c-24 -18 -60 -33 -60 -24 0 4 72 43 80 43 3 0 -6 -8 -20 -19z m1744 -4
c-10 -8 -21 -12 -24 -10 -5 6 21 24 34 24 6 0 1 -6 -10 -14z m970 -28 c-5 -7
-1 -9 9 -5 9 3 18 3 21 -1 8 -14 -36 -11 -50 3 -11 10 -11 14 -1 18 17 6 29
-2 21 -15z m-1020 -3 c-4 -8 -10 -12 -15 -9 -5 3 -12 -2 -15 -10 -3 -9 -11
-16 -18 -16 -6 0 2 12 17 25 33 29 39 31 31 10z m-1769 -5 c-3 -5 2 -10 11
-10 10 0 15 -3 11 -6 -10 -10 -39 5 -32 16 3 5 8 10 11 10 3 0 2 -4 -1 -10z
m1083 -25 c-3 -3 -9 2 -12 12 -6 14 -5 15 5 6 7 -7 10 -15 7 -18z m-540 -2
c-21 -2 -55 -2 -75 0 -21 2 -4 4 37 4 41 0 58 -2 38 -4z m1811 3 c-2 -2 -51
-5 -109 -8 -58 -3 -91 -2 -75 2 31 8 192 13 184 6z m-1702 -12 c-3 -3 -12 -4
-19 -1 -8 3 -5 6 6 6 11 1 17 -2 13 -5z m1780 0 c-3 -3 -12 -4 -19 -1 -8 3 -5
6 6 6 11 1 17 -2 13 -5z m44 -12 c-7 -2 -18 1 -23 6 -8 8 -4 9 13 5 13 -4 18
-8 10 -11z m410 1 c13 -16 12 -17 -3 -4 -10 7 -18 15 -18 17 0 8 8 3 21 -13z
m-2518 0 c-7 -2 -19 -2 -25 0 -7 3 -2 5 12 5 14 0 19 -2 13 -5z m365 -29 c125
-36 249 -104 337 -185 46 -43 74 -54 88 -35 6 7 7 4 3 -6 -4 -12 0 -18 12 -19
11 0 12 -2 4 -6 -7 -3 -19 1 -27 7 -30 25 -14 -3 29 -51 24 -27 70 -87 101
-133 58 -86 84 -106 135 -106 48 0 59 9 128 113 37 55 100 135 140 178 40 42
68 79 62 81 -6 2 0 9 12 17 21 13 22 13 9 -2 -21 -26 -6 -20 46 16 252 178
533 213 780 97 236 -109 395 -312 454 -579 23 -106 26 -325 5 -433 -39 -205
-166 -457 -320 -636 -26 -30 -43 -59 -39 -65 3 -7 3 -9 -2 -5 -4 4 -42 -25
-84 -65 -80 -76 -194 -170 -273 -227 -26 -18 -45 -37 -41 -43 3 -6 1 -7 -5 -3
-15 9 -123 -63 -115 -77 3 -6 1 -7 -5 -3 -7 4 -50 -16 -98 -44 -190 -113 -437
-220 -583 -256 -97 -23 -154 -13 -327 55 -219 86 -482 228 -642 346 -71 51
-94 59 -42 13 19 -16 26 -25 15 -19 -36 19 -57 40 -51 49 3 5 -33 40 -81 78
-47 38 -133 119 -192 180 -283 294 -421 595 -421 919 0 145 12 221 51 340 43
130 98 216 200 316 54 55 84 90 78 96 -6 6 -4 10 5 10 8 0 13 -4 10 -9 -9 -13
0 -10 87 36 104 54 170 76 262 86 100 10 198 1 295 -26z m413 19 c13 -16 12
-17 -3 -4 -10 7 -18 15 -18 17 0 8 8 3 21 -13z m528 1 c-10 -13 -10 -20 0 -37
12 -22 12 -22 -7 0 -11 12 -21 21 -23 20 -2 -1 5 6 16 15 25 22 31 23 14 2z
m458 10 c-3 -3 -12 -4 -19 -1 -8 3 -5 6 6 6 11 1 17 -2 13 -5z m-2223 -29
c-28 -22 -40 -18 -13 4 13 11 26 17 28 15 3 -2 -4 -11 -15 -19z m2616 15 c8
-5 11 -10 5 -10 -5 0 -17 5 -25 10 -8 5 -10 10 -5 10 6 0 17 -5 25 -10z
m-1730 -10 c18 -12 2 -12 -25 0 -13 6 -15 9 -5 9 8 0 22 -4 30 -9z m1816 -22
c19 -23 19 -23 -2 -5 -11 9 -24 14 -29 10 -4 -5 -5 -2 -1 5 9 16 10 16 32 -10z
m-2417 -11 c-2 -1 -13 -9 -24 -17 -19 -14 -19 -14 -6 3 7 9 18 17 24 17 6 0 8
-1 6 -3z m-55 -23 c3 -8 2 -12 -4 -9 -6 3 -10 10 -10 16 0 14 7 11 14 -7z
m2546 5 c0 -4 -10 -6 -21 -4 -32 6 -34 13 -4 13 14 0 25 -4 25 -9z m-2850 -18
c0 -5 -7 -12 -16 -15 -14 -5 -15 -4 -4 9 14 17 20 19 20 6z m2896 -18 c-10
-11 -19 -7 -22 10 -2 15 0 16 12 6 8 -6 12 -14 10 -16z m-1455 -9 l24 -26 -26
12 c-14 6 -26 18 -26 26 0 18 -1 18 28 -12z m289 23 c0 -2 -15 -16 -32 -33
l-33 -29 29 33 c28 30 36 37 36 29z m-566 -33 c3 -8 2 -12 -4 -9 -6 3 -10 10
-10 16 0 14 7 11 14 -7z m-949 -24 c-10 -11 -22 -17 -28 -13 -5 3 1 12 14 19
33 18 35 17 14 -6z m1425 -44 c0 -2 -8 -10 -17 -17 -16 -13 -17 -12 -4 4 13
16 21 21 21 13z m-370 -15 c0 -5 8 -12 18 -14 14 -4 14 -5 1 -6 -9 0 -22 6
-29 14 -9 10 -9 15 -1 15 6 0 11 -4 11 -9z m-1130 -5 c0 -2 -8 -10 -17 -17
-16 -13 -17 -12 -4 4 13 16 21 21 21 13z m1405 -26 l20 -25 -22 19 c-13 11
-23 24 -23 29 0 6 1 8 3 6 1 -2 11 -15 22 -29z m-1682 -32 c-42 -64 -54 -76
-27 -28 35 61 49 80 56 80 4 0 -9 -24 -29 -52z m3178 25 c13 -16 12 -17 -3 -4
-17 13 -22 21 -14 21 2 0 10 -8 17 -17z m-2946 -13 c-3 -5 -12 -10 -18 -10 -7
0 -6 4 3 10 19 12 23 12 15 0z m3204 -27 c8 -15 8 -23 1 -23 -5 0 -10 8 -10
18 0 14 -2 15 -10 2 -11 -17 -13 -9 -4 15 7 18 7 18 23 -12z m-1924 -15 c5 4
5 1 1 -6 -6 -10 -11 -10 -22 -1 -8 6 -14 14 -14 16 0 3 6 0 13 -6 8 -6 18 -7
22 -3z m1741 0 c5 4 3 0 -4 -9 -6 -9 -10 -19 -7 -22 3 -4 3 -6 1 -4 -2 1 -4 5
-3 9 1 4 -7 14 -18 23 -20 16 -20 16 1 6 12 -6 25 -7 30 -3z m-3070 -25 c-10
-11 -19 -7 -22 10 -2 15 0 16 12 6 8 -6 12 -14 10 -16z m3300 -59 c8 -20 10
-33 5 -29 -6 3 -11 13 -11 21 0 8 -4 14 -8 14 -5 0 -9 6 -9 13 0 6 -4 21 -8
32 -6 18 -5 18 5 2 6 -9 18 -33 26 -53z m-1936 40 c0 -8 -19 -13 -24 -6 -3 5
1 9 9 9 8 0 15 -2 15 -3z m-1621 -78 c-11 -32 -23 -56 -25 -54 -2 2 6 30 18
61 11 32 23 56 25 54 2 -3 -6 -30 -18 -61z m3367 17 c2 -27 1 -27 -14 3 -8 15
-8 21 1 21 7 0 13 -11 13 -24z m-3162 -8 c-4 -8 -11 -15 -16 -15 -6 0 -5 6 2
15 7 8 14 15 16 15 2 0 1 -7 -2 -15z m3385 -60 c0 -5 -4 -3 -9 5 -5 8 -9 22
-9 30 0 16 17 -16 18 -35z m-3409 5 c0 -5 -2 -10 -4 -10 -3 0 -8 5 -11 10 -3
6 -1 10 4 10 6 0 11 -4 11 -10z m1686 -28 c-17 -16 -18 -16 -5 5 7 12 15 20
18 17 3 -2 -3 -12 -13 -22z m-122 -41 c-6 -6 -34 20 -46 43 -8 15 -2 12 20 -9
17 -16 29 -32 26 -34z m1865 6 c1 -5 -3 -5 -9 -2 -5 3 -10 16 -9 28 0 21 1 21
9 2 5 -11 9 -24 9 -28z m-3652 -17 c-3 -11 0 -20 6 -20 8 0 7 -4 -2 -9 -7 -5
-10 -14 -7 -20 4 -6 2 -11 -3 -11 -6 0 -11 -10 -11 -22 0 -12 -3 -19 -6 -15
-7 6 15 117 23 117 3 0 3 -9 0 -20z m33 10 c0 -5 -5 -10 -11 -10 -5 0 -7 5 -4
10 3 6 8 10 11 10 2 0 4 -4 4 -10z m1807 -6 c-3 -3 -12 -4 -19 -1 -8 3 -5 6 6
6 11 1 17 -2 13 -5z m1632 -34 c0 -10 -3 -8 -9 5 -12 27 -12 43 0 25 5 -8 9
-22 9 -30z m-3292 -12 c-3 -8 -6 -5 -6 6 -1 11 2 17 5 13 3 -3 4 -12 1 -19z
m-10 -40 c-3 -8 -6 -5 -6 6 -1 11 2 17 5 13 3 -3 4 -12 1 -19z m3316 2 c3 -11
1 -18 -4 -14 -5 3 -9 12 -9 20 0 20 7 17 13 -6z m-3325 -46 c-3 -14 -5 -12
-10 9 -3 19 -2 25 4 19 6 -6 8 -18 6 -28z m3519 -36 c-2 -13 -4 -5 -4 17 -1
22 1 32 4 23 2 -10 2 -28 0 -40z m-3705 -4 c-6 -35 -12 -29 -12 14 0 23 3 32
9 24 4 -7 6 -24 3 -38z m3525 -31 c-3 -10 -5 -2 -5 17 0 19 2 27 5 18 2 -10 2
-26 0 -35z m-3350 -25 c-2 -13 -4 -5 -4 17 -1 22 1 32 4 23 2 -10 2 -28 0 -40z
m3540 -45 c-2 -16 -4 -5 -4 22 0 28 2 40 4 28 2 -13 2 -35 0 -50z m-3730 -80
c-2 -27 -3 -5 -3 47 0 52 1 74 3 48 2 -27 2 -69 0 -95z m180 15 c-3 -7 -5 -2
-5 12 0 14 2 19 5 13 2 -7 2 -19 0 -25z m3550 0 c-3 -7 -5 -2 -5 12 0 14 2 19
5 13 2 -7 2 -19 0 -25z m0 -95 c-2 -16 -4 -3 -4 27 0 30 2 43 4 28 2 -16 2
-40 0 -55z m-3540 -20 c-3 -10 -5 -2 -5 17 0 19 2 27 5 18 2 -10 2 -26 0 -35z
m3350 -20 c-3 -10 -5 -4 -5 12 0 17 2 24 5 18 2 -7 2 -21 0 -30z m-3530 5 c-3
-8 -6 -5 -6 6 -1 11 2 17 5 13 3 -3 4 -12 1 -19z m3710 -55 c-3 -10 -5 -4 -5
12 0 17 2 24 5 18 2 -7 2 -21 0 -30z m-3520 -5 c-3 -8 -6 -5 -6 6 -1 11 2 17
5 13 3 -3 4 -12 1 -19z m3330 -10 c-3 -7 -5 -2 -5 12 0 14 2 19 5 13 2 -7 2
-19 0 -25z m-3510 0 c-3 -8 -6 -5 -6 6 -1 11 2 17 5 13 3 -3 4 -12 1 -19z
m190 -30 c-3 -8 -6 -5 -6 6 -1 11 2 17 5 13 3 -3 4 -12 1 -19z m3310 -20 c-3
-7 -5 -2 -5 12 0 14 2 19 5 13 2 -7 2 -19 0 -25z m-3490 -10 c-3 -7 -5 -2 -5
12 0 14 2 19 5 13 2 -7 2 -19 0 -25z m3680 10 c-3 -8 -6 -5 -6 6 -1 11 2 17 5
13 3 -3 4 -12 1 -19z m-3490 -30 c-3 -8 -6 -5 -6 6 -1 11 2 17 5 13 3 -3 4
-12 1 -19z m-180 -20 c-3 -8 -6 -5 -6 6 -1 11 2 17 5 13 3 -3 4 -12 1 -19z
m3650 -30 c-3 -8 -6 -5 -6 6 -1 11 2 17 5 13 3 -3 4 -12 1 -19z m-3629 -44
c-3 -14 -5 -12 -10 9 -3 19 -2 25 4 19 6 -6 8 -18 6 -28z m3426 0 c3 -8 2 -12
-4 -9 -6 3 -10 10 -10 16 0 14 7 11 14 -7z m173 -56 c-18 -42 -34 -55 -50 -39
-9 9 -8 11 6 6 13 -6 21 1 32 29 9 20 13 42 9 49 -5 9 -4 9 5 1 10 -9 9 -19
-2 -46z m-3374 -21 c3 -8 -1 -14 -8 -14 -7 0 -11 6 -8 14 3 7 6 13 8 13 2 0 5
-6 8 -13z m3158 -14 c-12 -20 -14 -14 -5 12 4 9 9 14 11 11 3 -2 0 -13 -6 -23z
m-3137 -28 c3 -8 1 -15 -4 -15 -6 0 -10 7 -10 15 0 8 2 15 4 15 2 0 6 -7 10
-15z m3326 -15 c0 -5 -2 -10 -4 -10 -3 0 -8 5 -11 10 -3 6 -1 10 4 10 6 0 11
-4 11 -10z m-220 -20 c-6 -11 -13 -20 -16 -20 -2 0 0 9 6 20 6 11 13 20 16 20
2 0 0 -9 -6 -20z m203 -20 c-6 -23 -22 -37 -19 -18 2 14 15 38 21 38 2 0 1 -9
-2 -20z m-3308 1 c3 -5 2 -12 -3 -15 -5 -3 -9 1 -9 9 0 17 3 19 12 6z m3276
-64 c-10 -9 -11 -8 -5 6 3 10 9 15 12 12 3 -3 0 -11 -7 -18z m-221 -7 c-6 -11
-13 -20 -16 -20 -2 0 0 9 6 20 6 11 13 20 16 20 2 0 0 -9 -6 -20z m-3155 -78
c-3 -3 -11 0 -18 7 -9 10 -8 11 6 5 10 -3 15 -9 12 -12z m3314 -27 c-12 -19
-23 -35 -25 -35 -7 0 20 55 31 62 16 12 16 10 -6 -27z m-3269 -55 c6 -11 8
-20 6 -20 -3 0 -10 9 -16 20 -6 11 -8 20 -6 20 3 0 10 -9 16 -20z m2987 -25
c0 -8 -4 -15 -9 -15 -10 0 -11 14 -1 23 9 10 10 9 10 -8z m-2693 -51 c3 -8 2
-12 -4 -9 -6 3 -10 10 -10 16 0 14 7 11 14 -7z m-223 -21 c13 -16 12 -17 -3
-4 -10 7 -18 15 -18 17 0 8 8 3 21 -13z m3044 -63 c-20 -22 -35 -26 -35 -9 0
5 4 8 9 5 5 -3 14 1 21 9 7 8 15 15 18 15 3 0 -3 -9 -13 -20z m-2880 -130 c21
-22 37 -40 34 -40 -3 0 -23 18 -44 40 -21 22 -37 40 -34 40 3 0 23 -18 44 -40z
m2516 27 c-6 -8 -7 -18 -3 -22 4 -5 1 -5 -6 -1 -10 6 -10 11 -1 22 6 8 14 14
16 14 3 0 0 -6 -6 -13z m-2216 -47 c3 -5 1 -10 -4 -10 -6 0 -11 5 -11 10 0 6
2 10 4 10 3 0 8 -4 11 -10z m2165 -4 c0 -2 -7 -7 -16 -10 -8 -3 -12 -2 -9 4 6
10 25 14 25 6z m240 -32 c0 -8 -19 -13 -24 -6 -3 5 1 9 9 9 8 0 15 -2 15 -3z
m-380 -68 c0 -2 -8 -10 -17 -17 -16 -13 -17 -12 -4 4 13 16 21 21 21 13z m254
-32 c3 -8 2 -12 -4 -9 -6 3 -10 10 -10 16 0 14 7 11 14 -7z m-2349 -52 c-3 -3
-11 0 -18 7 -9 10 -8 11 6 5 10 -3 15 -9 12 -12z m2296 -5 c-10 -9 -11 -8 -5
6 3 10 9 15 12 12 3 -3 0 -11 -7 -18z m-1931 -20 c0 -2 -8 -3 -18 -4 -10 -1
-19 5 -19 12 0 10 5 11 19 4 10 -5 18 -11 18 -12z m1465 -67 c-3 -5 -16 -15
-28 -21 -19 -9 -19 -8 3 10 28 23 34 26 25 11z m-1320 -28 c-3 -3 -11 0 -18 7
-9 10 -8 11 6 5 10 -3 15 -9 12 -12z m-334 -9 c13 -16 12 -17 -3 -4 -10 7 -18
15 -18 17 0 8 8 3 21 -13z m1919 -17 c0 -2 -8 -10 -17 -17 -16 -13 -17 -12 -4
4 13 16 21 21 21 13z m-1840 -22 c0 -8 -19 -13 -24 -6 -3 5 1 9 9 9 8 0 15 -2
15 -3z m1424 -12 c3 -5 -1 -9 -9 -9 -8 0 -12 4 -9 9 3 4 7 8 9 8 2 0 6 -4 9
-8z m-1019 -20 c-3 -3 -11 0 -18 7 -9 10 -8 11 6 5 10 -3 15 -9 12 -12z m975
-2 c-8 -5 -19 -10 -25 -10 -5 0 -3 5 5 10 8 5 20 10 25 10 6 0 3 -5 -5 -10z
m-1270 -46 c0 -2 -13 2 -30 11 -16 9 -30 18 -30 21 0 2 14 -2 30 -11 17 -9 30
-18 30 -21z m1225 26 c-3 -5 -12 -10 -18 -10 -7 0 -6 4 3 10 19 12 23 12 15 0z
m-800 -38 c-3 -3 -11 0 -18 7 -9 10 -8 11 6 5 10 -3 15 -9 12 -12z m45 -12 c8
-5 11 -10 5 -10 -5 0 -17 5 -25 10 -8 5 -10 10 -5 10 6 0 17 -5 25 -10z m645
0 c-3 -5 -12 -10 -18 -10 -7 0 -6 4 3 10 19 12 23 12 15 0z m-1050 -10 c3 -6
-1 -7 -9 -4 -18 7 -21 14 -7 14 6 0 13 -4 16 -10z m515 -38 c3 -3 -6 -2 -20 2
-14 4 -31 8 -38 10 -7 1 -18 8 -25 15 -11 12 71 -15 83 -27z m449 14 c-11 -11
-79 -34 -79 -27 0 4 15 13 33 19 35 11 53 14 46 8z m-409 -26 c8 -5 11 -10 5
-10 -5 0 -17 5 -25 10 -8 5 -10 10 -5 10 6 0 17 -5 25 -10z m820 6 c0 -2 -7
-7 -16 -10 -8 -3 -12 -2 -9 4 6 10 25 14 25 6z m-1265 -16 c3 -6 -1 -7 -9 -4
-18 7 -21 14 -7 14 6 0 13 -4 16 -10z m492 -6 c-3 -3 -12 -4 -19 -1 -8 3 -5 6
6 6 11 1 17 -2 13 -5z m240 0 c-3 -3 -12 -4 -19 -1 -8 3 -5 6 6 6 11 1 17 -2
13 -5z m478 -4 c-3 -5 -12 -10 -18 -10 -7 0 -6 4 3 10 19 12 23 12 15 0z
m-675 -4 c0 -2 -7 -6 -15 -10 -8 -3 -15 -1 -15 4 0 6 7 10 15 10 8 0 15 -2 15
-4z m103 -13 c-13 -2 -33 -2 -45 0 -13 2 -3 4 22 4 25 0 35 -2 23 -4z m487
-27 c0 -2 -7 -7 -16 -10 -8 -3 -12 -2 -9 4 6 10 25 14 25 6z m-164 -71 c-11
-8 -25 -15 -30 -15 -6 1 0 7 14 15 32 19 40 18 16 0z m-571 -35 c-3 -5 -14
-10 -23 -9 -14 0 -13 2 3 9 27 11 27 11 20 0z m485 0 c-8 -5 -19 -10 -25 -10
-5 0 -3 5 5 10 8 5 20 10 25 10 6 0 3 -5 -5 -10z m-43 -16 c-3 -3 -12 -4 -19
-1 -8 3 -5 6 6 6 11 1 17 -2 13 -5z m-350 -20 c-3 -3 -12 -4 -19 -1 -8 3 -5 6
6 6 11 1 17 -2 13 -5z m56 -11 c-7 -2 -19 -2 -25 0 -7 3 -2 5 12 5 14 0 19 -2
13 -5z m154 1 c-3 -3 -12 -4 -19 -1 -8 3 -5 6 6 6 11 1 17 -2 13 -5z m-74 -11
c-7 -2 -19 -2 -25 0 -7 3 -2 5 12 5 14 0 19 -2 13 -5z"/>
<path d="M9425 5140 c-440 -30 -746 -93 -877 -180 -141 -94 -359 -324 -554
-582 -267 -355 -534 -809 -566 -960 -24 -114 21 -265 127 -423 68 -103 212
-258 232 -251 8 3 11 1 8 -4 -7 -11 94 -88 179 -135 218 -120 453 -105 614 40
l50 45 26 -41 c15 -22 31 -37 35 -34 5 2 15 -3 22 -13 13 -15 12 -16 -3 -3
-32 25 -19 -5 23 -53 22 -25 45 -43 50 -40 5 3 8 0 7 -7 -2 -7 3 -13 10 -14 6
0 12 -4 13 -10 1 -15 39 -54 86 -86 43 -30 59 -36 48 -19 -3 6 1 7 10 3 12 -4
13 -8 5 -13 -25 -15 132 -91 260 -126 96 -26 264 -25 355 4 78 24 181 82 178
100 -2 6 3 9 11 6 7 -3 29 13 48 34 l36 40 22 -30 c13 -18 27 -27 36 -24 8 3
13 2 9 -3 -15 -25 137 -104 245 -127 91 -19 264 -14 355 11 80 22 208 82 201
94 -4 5 -1 13 5 17 8 4 9 3 5 -4 -13 -21 10 -13 55 19 64 46 119 101 112 112
-3 6 -1 7 4 4 17 -11 101 89 169 201 1 2 21 -15 44 -37 104 -101 275 -148 425
-118 250 51 540 298 683 582 62 125 77 230 46 336 -30 104 -288 567 -313 562
-6 -2 -8 3 -5 10 12 31 -359 526 -392 523 -9 0 -19 6 -21 14 -4 13 -3 13 6 0
5 -8 13 -11 17 -7 10 10 -37 58 -49 50 -6 -4 -7 -1 -2 6 8 15 -53 83 -67 75
-5 -3 -7 -2 -6 3 5 19 -29 59 -133 152 -203 183 -372 238 -889 292 -136 14
-827 20 -995 9z m503 -7 c-27 -2 -69 -2 -95 0 -27 2 -5 3 47 3 52 0 74 -1 48
-3z m105 0 c-7 -2 -19 -2 -25 0 -7 3 -2 5 12 5 14 0 19 -2 13 -5z m210 -10
c-18 -2 -48 -2 -65 0 -18 2 -4 4 32 4 36 0 50 -2 33 -4z m-875 -10 c-10 -2
-28 -2 -40 0 -13 2 -5 4 17 4 22 1 32 -1 23 -4z m1030 0 c-10 -2 -26 -2 -35 0
-10 3 -2 5 17 5 19 0 27 -2 18 -5z m110 -10 c-10 -2 -28 -2 -40 0 -13 2 -5 4
17 4 22 1 32 -1 23 -4z m-1375 -10 c-7 -2 -19 -2 -25 0 -7 3 -2 5 12 5 14 0
19 -2 13 -5z m1460 0 c-7 -2 -21 -2 -30 0 -10 3 -4 5 12 5 17 0 24 -2 18 -5z
m-1525 -10 c-10 -2 -26 -2 -35 0 -10 3 -2 5 17 5 19 0 27 -2 18 -5z m1619 -13
c3 -10 2 -11 -4 -4 -4 7 -17 14 -28 17 -16 5 -15 5 4 4 14 -1 26 -9 28 -17z
m-1690 4 c-3 -3 -12 -4 -19 -1 -8 3 -5 6 6 6 11 1 17 -2 13 -5z m1736 -1 c-7
-2 -19 -2 -25 0 -7 3 -2 5 12 5 14 0 19 -2 13 -5z m-1790 -10 c-7 -2 -19 -2
-25 0 -7 3 -2 5 12 5 14 0 19 -2 13 -5z m1854 1 c-3 -3 -12 -4 -19 -1 -8 3 -5
6 6 6 11 1 17 -2 13 -5z m-1903 -13 c3 -4 -6 -6 -19 -3 -14 2 -25 6 -25 8 0 8
39 4 44 -5z m1949 2 c-7 -2 -19 -2 -25 0 -7 3 -2 5 12 5 14 0 19 -2 13 -5z
m44 -9 c-3 -3 -12 -4 -19 -1 -8 3 -5 6 6 6 11 1 17 -2 13 -5z m-2102 -14 c-11
-5 -27 -9 -35 -9 -9 0 -8 4 5 9 11 5 27 9 35 9 9 0 8 -4 -5 -9z m2142 4 c-3
-3 -12 -4 -19 -1 -8 3 -5 6 6 6 11 1 17 -2 13 -5z m43 -8 c0 -2 -7 -6 -15 -10
-8 -3 -15 -1 -15 4 0 6 7 10 15 10 8 0 15 -2 15 -4z m-2374 -61 c-11 -8 -25
-15 -30 -15 -6 1 0 7 14 15 32 19 40 18 16 0z m964 -15 c0 -5 -4 -10 -10 -10
-5 0 -10 5 -10 10 0 6 5 10 10 10 6 0 10 -4 10 -10z m635 0 c3 -5 -1 -10 -10
-10 -9 0 -13 5 -10 10 3 6 8 10 10 10 2 0 7 -4 10 -10z m-227 -7 c-64 -2 -172
-2 -240 0 -68 1 -15 3 117 3 132 0 187 -2 123 -3z m180 0 c-10 -2 -28 -2 -40
0 -13 2 -5 4 17 4 22 1 32 -1 23 -4z m-685 -10 c-7 -2 -21 -2 -30 0 -10 3 -4
5 12 5 17 0 24 -2 18 -5z m825 0 c-10 -2 -26 -2 -35 0 -10 3 -2 5 17 5 19 0
27 -2 18 -5z m49 1 c-3 -3 -12 -4 -19 -1 -8 3 -5 6 6 6 11 1 17 -2 13 -5z
m-1029 -11 c-10 -2 -28 -2 -40 0 -13 2 -5 4 17 4 22 1 32 -1 23 -4z m1132 -17
c404 -43 561 -89 693 -206 58 -52 84 -66 51 -27 l-19 22 23 -19 c12 -11 20
-22 17 -24 -10 -11 47 -60 64 -55 12 4 13 3 3 -5 -10 -7 5 -30 65 -98 89 -101
182 -220 273 -346 34 -49 66 -86 70 -83 5 3 12 0 16 -6 5 -8 3 -9 -6 -4 -8 5
-11 3 -8 -6 3 -8 11 -13 17 -11 7 1 10 -2 7 -7 -3 -5 34 -71 82 -147 183 -288
287 -485 285 -545 0 -37 -53 -152 -104 -227 -16 -24 -27 -48 -23 -53 3 -5 2
-9 -3 -7 -4 1 -53 -43 -109 -98 -144 -142 -256 -203 -375 -204 -60 0 -132 21
-160 46 -10 9 -23 13 -30 8 -7 -4 -10 -3 -6 3 4 5 -4 24 -17 42 -39 52 -49
110 -31 178 41 156 45 220 45 776 0 524 -3 588 -31 572 -5 -4 -8 -1 -7 6 4 15
-39 39 -70 39 -13 0 -37 -8 -53 -17 -56 -33 -57 -41 -58 -603 0 -557 -4 -602
-57 -772 -30 -95 -91 -222 -140 -291 -38 -52 -43 -66 -16 -46 15 13 16 12 3
-4 -8 -9 -16 -15 -19 -13 -3 3 -37 -25 -77 -62 -124 -116 -245 -165 -410 -165
-125 0 -189 20 -258 83 -71 65 -98 127 -105 240 l-4 85 38 18 c60 28 88 49 77
56 -6 3 4 17 21 30 l31 25 -24 -27 c-14 -15 -20 -27 -14 -27 14 0 64 63 88
110 23 44 24 130 2 164 -9 14 -33 37 -53 53 l-37 28 -221 3 c-214 3 -222 2
-266 -20 -60 -30 -94 -93 -86 -157 7 -49 45 -126 63 -126 7 0 18 -7 25 -15 11
-12 11 -12 -4 -1 -11 8 -18 9 -18 3 0 -16 73 -70 124 -93 l46 -20 0 -84 c0
-88 -25 -180 -55 -205 -21 -18 -19 -35 3 -19 15 11 15 11 4 -1 -7 -8 -16 -15
-20 -15 -4 0 -27 -14 -52 -31 -66 -46 -129 -64 -223 -64 -159 0 -301 57 -417
166 -157 149 -257 345 -306 600 -14 74 -17 177 -21 614 -3 373 -7 532 -16 548
-14 30 -57 52 -98 52 -22 0 -41 -10 -66 -35 l-34 -34 4 -573 c3 -555 4 -576
26 -668 34 -138 36 -165 16 -215 -20 -54 -88 -117 -143 -133 -123 -37 -279 13
-407 129 -30 28 -59 48 -65 44 -6 -4 -9 -1 -8 6 2 7 -2 13 -9 14 -6 0 -15 4
-20 9 -5 5 -3 6 5 2 23 -14 12 10 -19 40 -74 70 -189 279 -189 343 0 73 213
444 441 768 44 62 79 115 79 118 0 3 -10 1 -22 -5 -22 -11 -22 -10 -4 4 10 9
22 13 26 11 12 -8 152 174 144 187 -4 6 -3 8 3 5 13 -8 145 141 137 154 -3 5
0 8 7 7 7 -2 13 4 14 12 0 8 7 15 15 15 8 1 14 7 12 14 -1 7 2 10 8 6 6 -4 34
15 63 40 120 109 171 132 385 175 266 53 535 70 1007 65 207 -3 397 -10 485
-19z m-7 17 c-7 -2 -21 -2 -30 0 -10 3 -4 5 12 5 17 0 24 -2 18 -5z m-1245
-10 c-10 -2 -26 -2 -35 0 -10 3 -2 5 17 5 19 0 27 -2 18 -5z m1335 0 c-7 -2
-19 -2 -25 0 -7 3 -2 5 12 5 14 0 19 -2 13 -5z m112 -3 c-3 -5 -21 -9 -38 -9
l-32 2 35 7 c19 4 36 8 38 9 2 0 0 -3 -3 -9z m58 -17 c-7 -2 -21 -2 -30 0 -10
3 -4 5 12 5 17 0 24 -2 18 -5z m-1710 -10 c-7 -2 -19 -2 -25 0 -7 3 -2 5 12 5
14 0 19 -2 13 -5z m1777 -3 c11 -8 7 -9 -15 -4 -37 8 -45 14 -19 14 10 0 26
-5 34 -10z m85 -10 c3 -5 -1 -10 -10 -10 -9 0 -13 5 -10 10 3 6 8 10 10 10 2
0 7 -4 10 -10z m-1952 -7 c-7 -2 -19 -2 -25 0 -7 3 -2 5 12 5 14 0 19 -2 13
-5z m-68 -13 c-11 -5 -27 -9 -35 -9 -9 0 -8 4 5 9 11 5 27 9 35 9 9 0 8 -4 -5
-9z m2130 -10 c-3 -5 -12 -10 -18 -10 -7 0 -6 4 3 10 19 12 23 12 15 0z
m-2555 -24 c0 -2 -8 -10 -17 -17 -16 -13 -17 -12 -4 4 13 16 21 21 21 13z
m-40 -39 c0 -2 -10 -12 -22 -23 l-23 -19 19 23 c18 21 26 27 26 19z m2735 -17
c3 -6 -1 -7 -9 -4 -18 7 -21 14 -7 14 6 0 13 -4 16 -10z m-2485 -14 c0 -2 -8
-10 -17 -17 -16 -13 -17 -12 -4 4 13 16 21 21 21 13z m2521 -13 c13 -16 12
-17 -3 -4 -10 7 -18 15 -18 17 0 8 8 3 21 -13z m-2811 -7 c0 -2 -7 -7 -16 -10
-8 -3 -12 -2 -9 4 6 10 25 14 25 6z m110 -149 c0 -2 -10 -12 -22 -23 l-23 -19
19 23 c18 21 26 27 26 19z m2907 -42 c0 -8 -4 -12 -9 -9 -5 3 -6 10 -3 15 9
13 12 11 12 -6z m-3207 -18 c0 -2 -10 -12 -22 -23 l-23 -19 19 23 c18 21 26
27 26 19z m220 -30 c0 -2 -10 -12 -22 -23 l-23 -19 19 23 c18 21 26 27 26 19z
m-270 -31 c0 -2 -8 -10 -17 -17 -16 -13 -17 -12 -4 4 13 16 21 21 21 13z
m3361 -53 c13 -16 12 -17 -3 -4 -10 7 -18 15 -18 17 0 8 8 3 21 -13z m-2912
-6 c-2 -1 -13 -9 -24 -17 -19 -14 -19 -14 -6 3 7 9 18 17 24 17 6 0 8 -1 6 -3z
m68 -3 c-3 -3 -12 -4 -19 -1 -8 3 -5 6 6 6 11 1 17 -2 13 -5z m51 -507 c-1
-254 -3 -417 -5 -362 -7 244 -7 833 0 828 4 -2 6 -212 5 -466z m-178 -49 l-5
-503 -3 490 c-2 436 0 515 10 515 2 0 1 -226 -2 -502z m2597 435 c-2 -16 -4
-5 -4 22 0 28 2 40 4 28 2 -13 2 -35 0 -50z m180 -696 c-1 -138 -2 -25 -2 253
0 278 1 391 2 252 2 -138 2 -366 0 -505z m353 622 c15 -28 5 -23 -15 7 -9 15
-12 23 -6 20 6 -4 16 -16 21 -27z m-533 -176 c-2 -38 -3 -7 -3 67 0 74 1 105
3 68 2 -38 2 -98 0 -135z m763 176 c0 -5 -4 -9 -8 -9 -5 0 -9 7 -9 15 0 8 4
12 9 9 4 -3 8 -9 8 -15z m-3700 7 c0 -2 -8 -10 -17 -17 -16 -13 -17 -12 -4 4
13 16 21 21 21 13z m-260 -40 c0 -2 -8 -10 -17 -17 -16 -13 -17 -12 -4 4 13
16 21 21 21 13z m4048 -101 c-3 -3 -9 2 -12 12 -6 14 -5 15 5 6 7 -7 10 -15 7
-18z m-4134 -25 c-10 -16 -20 -28 -22 -26 -4 5 28 56 35 56 2 0 -4 -13 -13
-30z m4194 -62 c10 -12 10 -18 1 -24 -7 -4 -9 -3 -5 4 3 6 2 13 -4 17 -5 3
-10 11 -10 17 0 6 1 9 3 7 1 -2 8 -11 15 -21z m-4263 -57 c3 -5 2 -12 -3 -15
-5 -3 -9 1 -9 9 0 17 3 19 12 6z m3352 -63 c-2 -13 -4 -5 -4 17 -1 22 1 32 4
23 2 -10 2 -28 0 -40z m0 -60 c-3 -7 -5 -2 -5 12 0 14 2 19 5 13 2 -7 2 -19 0
-25z m-3234 -33 c-3 -9 -8 -14 -10 -11 -3 3 -2 9 2 15 9 16 15 13 8 -4z m4066
-19 c-3 -3 -11 5 -18 17 -13 21 -12 21 5 5 10 -10 16 -20 13 -22z m-832 -23
c-3 -10 -5 -2 -5 17 0 19 2 27 5 18 2 -10 2 -26 0 -35z m0 -235 c-1 -40 -3 -8
-3 72 0 80 2 112 3 73 2 -40 2 -106 0 -145z m-3507 182 c-6 -11 -13 -20 -16
-20 -2 0 0 9 6 20 6 11 13 20 16 20 2 0 0 -9 -6 -20z m4397 -15 c0 -8 -4 -12
-9 -9 -4 3 -8 9 -8 15 0 5 4 9 8 9 5 0 9 -7 9 -15z m-4432 -54 c-21 -43 -29
-39 -8 4 9 19 18 33 21 31 2 -2 -4 -18 -13 -35z m208 -6 c-3 -9 -8 -14 -10
-11 -3 3 -2 9 2 15 9 16 15 13 8 -4z m4255 -10 c-3 -3 -9 2 -12 12 -6 14 -5
15 5 6 7 -7 10 -15 7 -18z m252 -80 c0 -5 -5 -3 -10 5 -5 8 -10 20 -10 25 0 6
5 3 10 -5 5 -8 10 -19 10 -25z m30 -89 c0 -26 -6 -18 -14 19 -5 22 -4 26 4 15
5 -8 10 -24 10 -34z m-4823 -8 c-3 -8 -6 -5 -6 6 -1 11 2 17 5 13 3 -3 4 -12
1 -19z m3628 -57 c2 -12 0 -19 -6 -16 -5 4 -9 16 -9 27 0 26 9 19 15 -11z
m1022 -18 c-3 -10 -5 -4 -5 12 0 17 2 24 5 18 2 -7 2 -21 0 -30z m180 -15 c-3
-7 -5 -2 -5 12 0 14 2 19 5 13 2 -7 2 -19 0 -25z m-4650 0 c-3 -8 -6 -5 -6 6
-1 11 2 17 5 13 3 -3 4 -12 1 -19z m-180 -35 c-3 -10 -5 -2 -5 17 0 19 2 27 5
18 2 -10 2 -26 0 -35z m1210 -5 c-3 -7 -5 -2 -5 12 0 14 2 19 5 13 2 -7 2 -19
0 -25z m2400 -15 c-3 -10 -5 -4 -5 12 0 17 2 24 5 18 2 -7 2 -21 0 -30z m1213
5 c0 -18 -2 -20 -9 -8 -6 8 -7 18 -5 22 9 14 14 9 14 -14z m-3793 -25 c-3 -10
-5 -4 -5 12 0 17 2 24 5 18 2 -7 2 -21 0 -30z m1528 30 c-88 -6 -383 -8 -367
-1 9 4 105 6 212 6 107 -1 177 -3 155 -5z m85 -13 c8 -5 11 -10 5 -10 -5 0
-17 5 -25 10 -8 5 -10 10 -5 10 6 0 17 -5 25 -10z m-485 -10 c-3 -5 -12 -10
-18 -10 -7 0 -6 4 3 10 19 12 23 12 15 0z m1632 -42 c-3 -7 -5 -2 -5 12 0 14
2 19 5 13 2 -7 2 -19 0 -25z m1014 1 c-5 -13 -10 -19 -10 -12 -1 15 10 45 15
40 3 -2 0 -15 -5 -28z m-1204 -26 c-3 -10 -5 -4 -5 12 0 17 2 24 5 18 2 -7 2
-21 0 -30z m-3564 -7 c-3 -4 -9 -2 -14 5 -13 22 -11 31 5 17 8 -7 12 -17 9
-22z m2692 -16 c5 -36 1 -29 -16 25 -6 20 -6 26 1 19 5 -5 12 -25 15 -44z
m-1688 3 c-3 -10 -5 -4 -5 12 0 17 2 24 5 18 2 -7 2 -21 0 -30z m3747 21 c3
-8 2 -12 -4 -9 -6 3 -10 10 -10 16 0 14 7 11 14 -7z m-1007 -41 c-3 -10 -5 -4
-5 12 0 17 2 24 5 18 2 -7 2 -21 0 -30z m-3523 11 c3 -8 2 -12 -4 -9 -6 3 -10
10 -10 16 0 14 7 11 14 -7z m985 -34 c0 -10 -3 -8 -9 5 -12 27 -12 43 0 25 5
-8 9 -22 9 -30z m2346 0 c-9 -41 -17 -33 -9 9 4 17 9 30 11 27 3 -2 2 -19 -2
-36z m-3525 -15 c0 -5 -5 -3 -10 5 -5 8 -10 20 -10 25 0 6 5 3 10 -5 5 -8 10
-19 10 -25z m2662 -27 c-6 -6 -7 0 -4 19 5 21 7 23 10 9 2 -10 0 -22 -6 -28z
m1045 20 c-3 -8 -6 -5 -6 6 -1 11 2 17 5 13 3 -3 4 -12 1 -19z m-2520 -20 c-3
-8 -6 -5 -6 6 -1 11 2 17 5 13 3 -3 4 -12 1 -19z m-190 -10 c-3 -8 -6 -5 -6 6
-1 11 2 17 5 13 3 -3 4 -12 1 -19z m212 -58 c0 -10 -3 -8 -9 5 -12 27 -12 43
0 25 5 -8 9 -22 9 -30z m2477 -40 c-1 -53 -3 -64 -10 -44 -7 21 -1 114 8 114
1 0 2 -31 2 -70z m-2658 5 c-3 -3 -9 2 -12 12 -6 14 -5 15 5 6 7 -7 10 -15 7
-18z m-11 -47 c-3 -8 -6 -5 -6 6 -1 11 2 17 5 13 3 -3 4 -12 1 -19z m2453 14
c0 -5 -7 -17 -15 -28 -14 -18 -14 -17 -4 9 12 27 19 34 19 19z m880 -10 c-8
-3 -22 -10 -30 -16 -8 -6 -7 -1 4 11 10 13 23 20 29 16 7 -4 6 -8 -3 -11z
m-3931 -56 c-3 -3 -11 5 -18 17 -13 21 -12 21 5 5 10 -10 16 -20 13 -22z
m1807 7 c-6 -6 -36 9 -36 18 0 5 9 4 20 -3 10 -7 18 -14 16 -15z m2344 23 c0
-2 -8 -10 -17 -17 -16 -13 -17 -12 -4 4 13 16 21 21 21 13z m-3306 -22 c3 -8
2 -12 -4 -9 -6 3 -10 10 -10 16 0 14 7 11 14 -7z m-283 -47 c-10 -9 -11 -8 -5
6 3 10 9 15 12 12 3 -3 0 -11 -7 -18z m1456 -84 c-2 -21 -4 -4 -4 37 0 41 2
58 4 38 2 -21 2 -55 0 -75z m-1152 86 c11 -16 1 -19 -13 -3 -7 8 -8 14 -3 14
5 0 13 -5 16 -11z m-1034 -56 c13 -16 12 -17 -3 -4 -17 13 -22 21 -14 21 2 0
10 -8 17 -17z m3889 2 c0 -6 -56 -35 -67 -35 -4 1 8 9 27 20 39 22 40 22 40
15z m-300 -29 c0 -3 -4 -8 -10 -11 -5 -3 -10 -1 -10 4 0 6 5 11 10 11 6 0 10
-2 10 -4z m-3180 -10 c0 -2 -7 -7 -16 -10 -8 -3 -12 -2 -9 4 6 10 25 14 25 6z
m3397 -2 c-3 -3 -12 -4 -19 -1 -8 3 -5 6 6 6 11 1 17 -2 13 -5z m-3239 -11
c-10 -2 -26 -2 -35 0 -10 3 -2 5 17 5 19 0 27 -2 18 -5z m3085 0 c-7 -2 -19
-2 -25 0 -7 3 -2 5 12 5 14 0 19 -2 13 -5z m117 -3 c0 -5 -7 -7 -15 -4 -8 4
-15 8 -15 10 0 2 7 4 15 4 8 0 15 -4 15 -10z m-3663 -27 c0 -10 -4 -10 -16 -1
-9 7 -18 13 -20 15 -2 1 5 1 16 0 11 0 20 -7 20 -14z m3999 5 c4 -7 4 -10 -1
-6 -4 4 -16 -3 -27 -15 l-19 -22 17 28 c19 31 20 32 30 15z m-2099 -30 c-3 -7
-5 -2 -5 12 0 14 2 19 5 13 2 -7 2 -19 0 -25z m203 -33 c0 -5 -5 -3 -10 5 -5
8 -10 20 -10 25 0 6 5 3 10 -5 5 -8 10 -19 10 -25z m-1380 22 c0 -2 -10 -12
-22 -23 l-23 -19 19 23 c18 21 26 27 26 19z m2450 -17 c-6 -11 -15 -20 -20
-20 -6 0 -2 9 7 20 10 11 19 20 21 20 1 0 -2 -9 -8 -20z m-3080 -16 c0 -2 -9
0 -20 6 -11 6 -20 13 -20 16 0 2 9 0 20 -6 11 -6 20 -13 20 -16z m756 4 c3 -4
-1 -5 -10 -4 -8 1 -18 5 -22 8 -3 4 1 5 10 4 8 -1 18 -5 22 -8z m239 -18 c10
-11 16 -20 13 -20 -3 0 -13 9 -23 20 -10 11 -16 20 -13 20 3 0 13 -9 23 -20z
m1844 17 c-2 -1 -15 -11 -29 -22 l-25 -20 19 23 c11 12 24 22 29 22 6 0 8 -1
6 -3z m-2799 -13 c0 -8 -19 -13 -24 -6 -3 5 1 9 9 9 8 0 15 -2 15 -3z m40 -29
c14 -8 21 -14 15 -14 -5 0 -21 6 -35 14 -14 8 -20 14 -15 14 6 0 21 -6 35 -14z
m2970 11 c0 -2 -8 -10 -17 -17 -16 -13 -17 -12 -4 4 13 16 21 21 21 13z
m-2540 -26 c-8 -5 -19 -10 -25 -10 -5 0 -3 5 5 10 8 5 20 10 25 10 6 0 3 -5
-5 -10z m-360 -10 c18 -12 2 -12 -25 0 -13 6 -15 9 -5 9 8 0 22 -4 30 -9z
m317 -6 c-3 -3 -12 -4 -19 -1 -8 3 -5 6 6 6 11 1 17 -2 13 -5z m2543 -8 c0 -2
-8 -10 -17 -17 -16 -13 -17 -12 -4 4 13 16 21 21 21 13z m367 -2 c-3 -3 -12
-4 -19 -1 -8 3 -5 6 6 6 11 1 17 -2 13 -5z m253 2 c0 -2 -13 -6 -29 -8 -17 -2
-28 -1 -25 4 5 8 54 12 54 4z m-3383 -12 c-3 -3 -12 -4 -19 -1 -8 3 -5 6 6 6
11 1 17 -2 13 -5z m140 0 c-3 -3 -12 -4 -19 -1 -8 3 -5 6 6 6 11 1 17 -2 13
-5z m3040 0 c-3 -3 -12 -4 -19 -1 -8 3 -5 6 6 6 11 1 17 -2 13 -5z m-1316 -41
c13 -16 12 -17 -3 -4 -17 13 -22 21 -14 21 2 0 10 -8 17 -17z m-963 -18 c-3
-3 -9 2 -12 12 -6 14 -5 15 5 6 7 -7 10 -15 7 -18z m69 -21 c-5 -5 -57 13 -57
20 0 3 14 0 31 -6 16 -6 28 -12 26 -14z m927 18 c3 -5 -1 -9 -9 -9 -8 0 -12 4
-9 9 3 4 7 8 9 8 2 0 6 -4 9 -8z m461 -12 c-3 -5 -12 -10 -18 -10 -7 0 -6 4 3
10 19 12 23 12 15 0z m-1334 -28 c-7 -2 -18 1 -23 6 -8 8 -4 9 13 5 13 -4 18
-8 10 -11z m344 -2 c3 -6 -1 -7 -9 -4 -18 7 -21 14 -7 14 6 0 13 -4 16 -10z
m659 -9 c3 -4 -6 -6 -19 -3 -14 2 -25 6 -25 8 0 8 39 4 44 -5z m203 3 c-3 -3
-12 -4 -19 -1 -8 3 -5 6 6 6 11 1 17 -2 13 -5z m-1090 -10 c-3 -3 -12 -4 -19
-1 -8 3 -5 6 6 6 11 1 17 -2 13 -5z m150 0 c-3 -3 -12 -4 -19 -1 -8 3 -5 6 6
6 11 1 17 -2 13 -5z m861 -1 c-15 -2 -42 -2 -60 0 -18 2 -6 4 27 4 33 0 48 -2
33 -4z m-945 -10 c-7 -2 -21 -2 -30 0 -10 3 -4 5 12 5 17 0 24 -2 18 -5z m378
-46 c-10 -9 -11 -8 -5 6 3 10 9 15 12 12 3 -3 0 -11 -7 -18z m-756 -27 c-3 -5
-1 -10 6 -10 7 0 10 -3 6 -6 -9 -9 -28 6 -22 17 4 5 8 9 11 9 3 0 2 -4 -1 -10z
m685 -25 c0 -8 -60 -36 -60 -28 0 5 -4 3 -8 -2 -8 -12 -58 -35 -75 -35 -12 0
68 41 90 45 6 2 19 8 30 14 21 12 23 13 23 6z m940 0 c0 -2 -10 -9 -22 -15
-22 -11 -22 -10 -4 4 21 17 26 19 26 11z m-1500 -35 c18 -12 2 -12 -25 0 -13
6 -15 9 -5 9 8 0 22 -4 30 -9z m40 -10 c0 -5 -5 -10 -11 -10 -5 0 -7 5 -4 10
3 6 8 10 11 10 2 0 4 -4 4 -10z m967 -16 c-3 -3 -12 -4 -19 -1 -8 3 -5 6 6 6
11 1 17 -2 13 -5z m-890 -10 c-3 -3 -12 -4 -19 -1 -8 3 -5 6 6 6 11 1 17 -2
13 -5z m276 -1 c-7 -2 -19 -2 -25 0 -7 3 -2 5 12 5 14 0 19 -2 13 -5z m890 0
c-7 -2 -19 -2 -25 0 -7 3 -2 5 12 5 14 0 19 -2 13 -5z m-1100 -10 c-7 -2 -21
-2 -30 0 -10 3 -4 5 12 5 17 0 24 -2 18 -5z m44 1 c-3 -3 -12 -4 -19 -1 -8 3
-5 6 6 6 11 1 17 -2 13 -5z m116 -1 c-7 -2 -19 -2 -25 0 -7 3 -2 5 12 5 14 0
19 -2 13 -5z"/>
<path d="M9317 3990 c-35 -11 -59 -29 -51 -41 3 -5 0 -8 -7 -7 -7 2 -18 -8
-26 -22 -42 -80 22 -180 114 -180 79 0 133 51 133 125 0 84 -84 148 -163 125z
m63 -20 c-11 -7 -60 -2 -60 6 0 2 16 3 35 2 20 -1 31 -4 25 -8z m78 -71 c-3
-8 -7 -3 -11 10 -4 17 -3 21 5 13 5 -5 8 -16 6 -23z m-2 -71 c-9 -12 -16 -17
-16 -11 0 7 5 15 10 18 6 3 11 16 11 28 1 17 2 18 6 5 2 -10 -3 -28 -11 -40z
m-151 -66 c-3 -3 -11 0 -18 7 -9 10 -8 11 6 5 10 -3 15 -9 12 -12z m42 -8 c-3
-3 -12 -4 -19 -1 -8 3 -5 6 6 6 11 1 17 -2 13 -5z"/>
<path d="M10303 3981 c-48 -22 -73 -62 -73 -118 0 -42 25 -87 42 -77 6 4 8 2
4 -4 -11 -18 36 -42 85 -42 149 0 174 210 30 250 -45 12 -38 13 -88 -9z m70
-8 c-7 -2 -19 -2 -25 0 -7 3 -2 5 12 5 14 0 19 -2 13 -5z m-83 -17 c0 -2 -8
-10 -17 -17 -16 -13 -17 -12 -4 4 13 16 21 21 21 13z m180 -66 c0 -11 -4 -20
-9 -20 -5 0 -7 9 -4 20 3 11 7 20 9 20 2 0 4 -9 4 -20z m-209 -65 c7 -21 6
-26 -1 -19 -6 6 -13 28 -15 50 -2 21 -2 30 1 19 3 -11 10 -33 15 -50z m199
-14 c-6 -16 -18 -32 -27 -35 -10 -4 -8 3 7 24 15 21 17 30 8 30 -10 0 -9 3 2
10 21 13 24 5 10 -29z m-87 -58 c-7 -2 -21 -2 -30 0 -10 3 -4 5 12 5 17 0 24
-2 18 -5z"/>
</g>
</svg>
