<?xml version="1.0" standalone="no"?>
<!DOCTYPE svg PUBLIC "-//W3C//DTD SVG 20010904//EN"
 "http://www.w3.org/TR/2001/REC-SVG-20010904/DTD/svg10.dtd">
<svg version="1.0" xmlns="http://www.w3.org/2000/svg"
 width="1024.000000pt" height="1536.000000pt" viewBox="0 0 1024.000000 1536.000000"
 preserveAspectRatio="xMidYMid meet">

<g transform="translate(0.000000,1536.000000) scale(0.100000,-0.100000)"
fill="#000000" stroke="none">
<path d="M4653 12134 c-88 -32 -169 -134 -188 -237 -4 -20 -12 -40 -17 -43 -5
-3 -32 4 -60 16 -72 31 -189 38 -256 16 -113 -38 -194 -151 -196 -274 -2 -133
71 -214 294 -323 355 -175 513 -250 538 -255 53 -11 65 11 165 326 52 162 100
329 107 370 15 91 8 183 -21 249 -24 57 -92 125 -146 148 -54 22 -169 26 -220
7z m196 -15 c12 -7 10 -8 -9 -4 -14 3 -45 10 -70 15 l-45 9 54 -5 c30 -3 62
-10 70 -15z m-214 -16 c-16 -8 -38 -22 -48 -31 -9 -8 -19 -13 -22 -11 -6 6 75
59 90 59 5 -1 -3 -8 -20 -17z m287 -19 c21 -15 36 -29 33 -32 -3 -3 -15 4 -28
15 -12 11 -31 25 -42 31 -11 6 -16 12 -11 12 6 0 27 -12 48 -26z m-362 -38 c0
-2 -8 -10 -17 -17 -16 -13 -17 -12 -4 4 13 16 21 21 21 13z m429 -40 c-3 -3
-11 5 -18 17 -13 21 -12 21 5 5 10 -10 16 -20 13 -22z m-135 -30 c35 -26 49
-24 24 3 -10 11 -10 12 -1 7 7 -4 18 -16 24 -28 8 -16 8 -19 -1 -13 -9 6 -10
1 -4 -16 14 -37 8 -208 -9 -264 -35 -122 -140 -451 -146 -457 -8 -9 -464 204
-551 257 -84 51 -120 95 -120 148 0 24 9 57 20 77 l21 35 -26 -28 c-14 -15
-25 -24 -25 -19 0 4 14 21 32 38 17 16 28 23 24 17 -9 -17 -6 -16 35 4 21 10
57 17 94 16 61 0 106 -17 214 -78 39 -22 47 -24 65 -12 31 20 46 59 49 120 1
30 4 53 6 51 2 -2 12 19 22 47 21 58 39 83 84 111 43 28 122 20 169 -16z
m-204 11 c0 -2 -10 -12 -22 -23 l-23 -19 19 23 c18 21 26 27 26 19z m-47 -62
c-3 -9 -8 -14 -10 -11 -3 3 -2 9 2 15 9 16 15 13 8 -4z m326 -35 c0 -10 -3 -8
-9 5 -12 27 -12 43 0 25 5 -8 9 -22 9 -30z m98 3 c-3 -10 -5 -4 -5 12 0 17 2
24 5 18 2 -7 2 -21 0 -30z m-769 -10 c-16 -2 -40 -2 -55 0 -16 2 -3 4 27 4 30
0 43 -2 28 -4z m-99 -7 c-8 -8 -79 -35 -79 -30 0 6 60 33 74 34 5 0 7 -2 5 -4z
m191 -6 c11 -7 5 -8 -20 -4 -43 8 -51 14 -19 14 13 0 31 -5 39 -10z m122 -22
c-8 -8 -9 -4 -5 13 4 13 8 18 11 10 2 -7 -1 -18 -6 -23z m-402 -11 c0 -2 -17
-19 -37 -38 l-38 -34 34 38 c33 34 41 42 41 34z m967 -44 c-3 -10 -5 -2 -5 17
0 19 2 27 5 18 2 -10 2 -26 0 -35z m-779 -20 c-10 -2 -28 -2 -40 0 -13 2 -5 4
17 4 22 1 32 -1 23 -4z m112 -28 c33 -19 21 -19 -21 0 -19 8 -27 14 -19 14 8
0 26 -6 40 -14z m657 -27 c-3 -8 -6 -5 -6 6 -1 11 2 17 5 13 3 -3 4 -12 1 -19z
m-587 -9 c17 -13 18 -17 5 -10 -33 17 -51 31 -40 31 6 0 21 -10 35 -21z m477
-1 c-3 -8 -6 -5 -6 6 -1 11 2 17 5 13 3 -3 4 -12 1 -19z m98 -48 c-9 -41 -17
-33 -9 9 4 17 9 30 11 27 3 -2 2 -19 -2 -36z m-1058 -27 c-3 -10 -5 -2 -5 17
0 19 2 27 5 18 2 -10 2 -26 0 -35z m560 41 c-3 -3 -12 -4 -19 -1 -8 3 -5 6 6
6 11 1 17 -2 13 -5z m390 -16 c-3 -8 -6 -5 -6 6 -1 11 2 17 5 13 3 -3 4 -12 1
-19z m-850 -30 c-3 -8 -6 -5 -6 6 -1 11 2 17 5 13 3 -3 4 -12 1 -19z m928 -68
c-9 -28 -19 -50 -21 -48 -2 2 4 27 13 56 9 28 19 50 21 47 2 -2 -4 -27 -13
-55z m-105 13 c-11 -17 -11 -17 -6 0 3 10 6 24 7 30 0 9 2 9 5 0 3 -7 0 -20
-6 -30z m-916 -21 c7 -49 54 -114 106 -148 43 -28 54 -42 19 -24 -41 23 -98
82 -117 123 -24 50 -36 101 -24 93 5 -3 12 -23 16 -44z m903 -24 c-3 -8 -6 -5
-6 6 -1 11 2 17 5 13 3 -3 4 -12 1 -19z m-662 -91 c22 -21 -59 30 -88 56 -23
20 -17 18 23 -9 30 -21 60 -42 65 -47z m744 9 c-6 -21 -12 -36 -14 -34 -3 2 0
21 6 42 6 21 12 36 14 34 3 -2 0 -21 -6 -42z m-669 -41 c17 -9 30 -18 30 -21
0 -4 -59 23 -69 32 -10 9 13 3 39 -11z m541 -16 c-5 -13 -10 -19 -10 -12 -1
15 10 45 15 40 3 -2 0 -15 -5 -28z m-383 -59 c3 0 3 -2 0 -5 -5 -6 -118 42
-118 50 0 2 25 -6 56 -20 31 -14 59 -25 62 -25z m472 -5 c-16 -47 -23 -40 -8
8 6 20 13 35 16 33 2 -3 -1 -21 -8 -41z m-710 0 c36 -19 61 -35 57 -35 -8 0
-92 42 -117 59 -31 21 -2 10 60 -24z m600 -12 c-7 -21 -17 -47 -21 -58 -8 -17
-8 -16 -4 5 11 48 28 100 33 96 2 -3 -2 -22 -8 -43z m-300 -13 c8 -5 11 -10 5
-10 -5 0 -17 5 -25 10 -8 5 -10 10 -5 10 6 0 17 -5 25 -10z m35 -20 c3 -5 1
-10 -4 -10 -6 0 -11 5 -11 10 0 6 2 10 4 10 3 0 8 -4 11 -10z m-220 -10 c3 -6
-1 -7 -9 -4 -18 7 -21 14 -7 14 6 0 13 -4 16 -10z m572 -12 c-3 -8 -6 -5 -6 6
-1 11 2 17 5 13 3 -3 4 -12 1 -19z m-243 -28 c47 -22 86 -42 86 -45 0 -4 -133
54 -167 74 -38 22 -2 9 81 -29z m-189 -27 c63 -31 113 -58 111 -60 -2 -3 -57
23 -122 56 -66 33 -116 60 -111 60 4 1 59 -25 122 -56z m411 -9 c-8 -21 -15
-34 -15 -28 -1 15 20 76 25 71 2 -2 -2 -21 -10 -43z m-220 -85 c8 -14 -10 -11
-32 6 -18 13 -18 14 4 8 12 -3 25 -9 28 -14z m184 -29 c-7 -16 -16 -30 -20
-30 -4 0 0 16 8 35 19 42 30 38 12 -5z m-120 0 c22 -11 40 -23 40 -25 0 -5
-79 32 -89 41 -11 10 14 2 49 -16z m77 -36 c-3 -3 -12 -4 -19 -1 -8 3 -5 6 6
6 11 1 17 -2 13 -5z"/>
<path d="M6775 11821 c-35 -9 -95 -39 -95 -47 0 -4 7 -3 16 0 9 3 12 2 9 -5
-4 -5 -15 -7 -25 -4 -30 10 -102 -85 -146 -193 l-22 -54 -79 -2 c-66 -1 -88
-6 -143 -33 -180 -89 -262 -262 -290 -617 -5 -71 -10 -134 -10 -141 0 -7 -21
-18 -46 -24 -58 -15 -126 -49 -120 -60 3 -5 -4 -17 -17 -27 l-22 -19 19 23
c26 30 12 28 -30 -5 -31 -26 -49 -53 -23 -37 13 8 10 1 -35 -64 -16 -23 -31
-42 -33 -42 -6 0 5 19 34 58 14 18 23 36 20 39 -12 12 -89 -125 -113 -201 -29
-91 -44 -236 -37 -342 l5 -71 -33 -12 c-189 -73 -435 -246 -566 -400 -61 -71
-82 -108 -45 -80 15 13 16 12 3 -3 -7 -10 -17 -15 -22 -12 -16 9 -86 -115
-238 -421 -213 -429 -316 -579 -588 -856 -84 -85 -151 -158 -148 -160 2 -3
-17 -25 -43 -50 l-47 -44 45 48 c24 26 40 47 34 47 -12 0 -254 -242 -254 -255
0 -5 37 26 83 70 l82 80 -79 -82 c-44 -45 -82 -80 -86 -78 -4 2 -25 -15 -47
-38 -64 -66 -325 -388 -320 -394 3 -2 51 52 108 121 56 69 104 126 107 126 5
0 -37 -54 -141 -178 -38 -46 -72 -81 -75 -78 -7 7 -32 -13 -32 -26 0 -6 8 -4
18 3 14 11 13 10 -2 -9 -21 -24 -31 -29 -21 -9 10 19 -59 -58 -141 -159 -77
-95 -94 -125 -46 -83 l27 24 -24 -27 c-13 -15 -27 -25 -31 -23 -9 6 -193 -215
-193 -232 0 -7 -3 -10 -7 -8 -12 7 -112 -114 -104 -127 4 -6 3 -8 -4 -4 -12 7
-194 -184 -198 -209 -1 -10 -6 -20 -11 -24 -4 -3 -24 -20 -43 -36 l-35 -30 29
33 c51 55 13 35 -47 -26 -32 -32 -54 -62 -50 -67 5 -4 3 -6 -3 -2 -5 3 -57
-35 -115 -85 -57 -49 -137 -114 -176 -144 -80 -60 -95 -89 -69 -128 34 -52 73
-42 188 52 37 30 66 58 63 62 -3 5 20 30 51 57 119 101 271 243 332 308 35 37
65 65 68 63 6 -7 -255 -259 -359 -347 -48 -40 -85 -76 -83 -79 5 -5 83 61 243
206 172 156 447 470 816 930 134 167 178 232 96 142 l-41 -45 42 53 c39 49 60
67 44 40 -13 -23 23 16 105 115 84 101 101 128 54 86 l-28 -24 24 27 c13 15
26 26 30 26 9 -3 456 446 454 454 -2 5 3 7 10 5 6 -1 11 3 10 10 -1 6 5 17 15
25 15 12 16 11 3 -4 -7 -10 -9 -18 -3 -18 14 0 35 28 28 38 -6 10 38 55 46 47
3 -3 30 21 59 53 66 72 204 251 197 257 -2 2 -32 -32 -65 -78 -34 -45 -85
-107 -113 -137 l-52 -55 54 65 c30 36 80 100 112 142 32 43 62 75 67 72 9 -5
84 104 76 112 -2 3 -19 -18 -37 -46 -18 -27 -34 -50 -37 -50 -5 0 2 13 39 68
16 23 33 40 38 37 17 -10 170 266 275 495 36 78 81 168 100 200 37 62 42 75
23 64 -8 -4 -10 -3 -5 2 5 5 12 9 16 9 11 0 104 116 98 121 -3 3 -22 -17 -43
-43 -51 -64 -59 -72 -45 -46 6 12 34 45 62 75 28 29 45 44 38 33 -8 -11 13 5
46 35 33 31 79 71 102 89 23 19 40 37 38 41 -5 8 20 32 45 44 8 4 2 -4 -15
-18 -16 -14 -27 -26 -24 -26 3 0 52 28 110 63 57 34 151 81 209 104 116 46
290 96 290 83 0 -5 -26 -25 -59 -44 -56 -34 -92 -66 -76 -66 5 0 18 8 29 18
20 16 20 16 7 -1 -17 -21 -58 -46 -47 -28 4 6 3 11 -1 11 -15 0 -173 -151
-168 -160 3 -5 0 -12 -6 -16 -8 -4 -9 -3 -5 4 16 27 -13 9 -51 -30 -52 -55
-65 -81 -57 -114 7 -28 57 -56 83 -46 9 3 63 51 121 106 58 56 133 123 167
150 35 27 60 52 58 56 -3 4 3 14 13 21 15 13 16 12 3 -3 -19 -25 -7 -22 39 8
41 27 52 41 25 30 -22 -8 -18 2 6 15 17 9 20 8 14 -2 -6 -9 -3 -10 11 -4 163
71 280 73 428 10 14 -6 17 -5 11 4 -12 21 27 -3 50 -31 l20 -23 -26 23 c-48
42 -42 22 10 -33 67 -71 85 -112 84 -200 0 -53 -6 -83 -26 -125 -42 -94 -42
-93 -140 -91 -156 4 -358 -44 -512 -122 -82 -41 -207 -126 -200 -136 2 -5 -2
-14 -10 -21 -8 -7 -16 -22 -16 -34 -1 -18 -2 -18 -6 -3 -3 10 4 28 14 39 14
16 14 20 3 16 -20 -6 -34 -49 -27 -80 9 -35 56 -54 89 -37 41 22 88 61 83 69
-8 13 116 91 142 90 4 -1 -5 -8 -22 -16 -70 -37 -116 -66 -112 -71 3 -2 24 8
47 22 66 42 186 89 290 116 123 31 326 34 406 6 65 -22 131 -79 155 -131 48
-107 8 -286 -101 -446 -23 -34 -40 -64 -37 -67 3 -2 21 20 41 51 20 31 38 56
41 56 6 0 -41 -75 -64 -103 -8 -9 -17 -15 -19 -12 -3 3 -17 -6 -32 -20 l-26
-25 -60 22 c-50 18 -80 22 -199 22 -158 0 -257 -19 -400 -77 -94 -39 -117 -65
-94 -112 24 -48 41 -52 111 -26 152 57 221 73 338 78 110 4 166 -4 234 -32 14
-6 17 -5 11 4 -12 21 27 -3 50 -31 l20 -23 -26 23 c-40 35 -47 26 -9 -13 18
-19 37 -32 41 -29 4 2 11 -1 15 -7 5 -8 3 -9 -6 -4 -10 6 -12 4 -7 -8 46 -120
14 -234 -113 -407 -27 -36 -60 -76 -74 -89 -14 -14 -26 -29 -26 -35 0 -5 17 6
38 25 l37 34 -34 -37 c-19 -20 -39 -36 -45 -35 -6 1 -10 -4 -9 -10 2 -7 0 -12
-5 -10 -4 1 -8 -2 -10 -8 -2 -5 -13 -21 -25 -33 -27 -29 -83 -71 -73 -54 4 7
3 12 -2 12 -12 0 -43 -35 -37 -42 3 -3 -13 -20 -37 -38 l-43 -32 40 36 c55 49
36 45 -32 -6 -31 -24 -147 -104 -257 -179 -111 -75 -200 -141 -199 -147 2 -6
-3 -9 -10 -6 -18 7 -163 -131 -243 -229 -81 -101 -194 -283 -304 -487 -113
-209 -168 -290 -264 -385 -96 -95 -168 -136 -299 -170 -136 -35 -212 -68 -289
-125 -63 -47 -178 -172 -178 -194 0 -6 12 5 27 24 15 19 50 58 77 85 l49 50
-44 -50 c-25 -27 -57 -67 -73 -87 -15 -21 -32 -36 -36 -33 -10 6 -66 -82 -155
-245 -37 -69 -94 -173 -126 -231 -60 -107 -68 -125 -48 -113 6 3 3 -8 -5 -25
-9 -17 -19 -31 -22 -31 -2 0 0 9 6 21 23 41 2 29 -24 -15 -29 -49 -32 -61 -14
-50 7 4 8 3 4 -5 -4 -6 -11 -9 -16 -6 -4 3 -20 -15 -34 -39 -29 -49 -32 -61
-14 -50 7 4 8 3 4 -5 -4 -6 -11 -9 -16 -6 -4 3 -22 -17 -39 -43 -33 -52 -38
-67 -18 -56 7 4 9 3 4 -2 -5 -5 -14 -9 -19 -9 -6 0 -13 -6 -16 -14 -3 -9 0
-11 9 -6 8 5 11 4 6 -1 -5 -5 -12 -9 -17 -9 -9 0 -160 -210 -160 -222 0 -3 10
2 23 13 l22 19 -19 -22 c-10 -13 -22 -20 -26 -18 -4 3 -26 -19 -48 -48 -22
-28 -54 -67 -71 -86 -17 -19 -31 -39 -31 -45 1 -30 14 -55 36 -65 47 -21 70
-13 113 37 47 54 54 77 14 41 l-28 -24 24 27 c13 15 27 25 32 23 8 -6 59 56
59 71 0 4 -14 -7 -31 -26 l-31 -35 25 35 c14 19 30 34 36 33 10 -3 71 78 71
93 0 3 -8 0 -17 -7 -16 -13 -17 -12 -4 3 7 10 17 16 21 13 9 -5 50 46 50 62 0
4 -12 -5 -26 -22 l-26 -30 22 32 c11 18 26 32 33 30 7 -1 11 7 10 18 -1 11 7
31 19 45 l20 25 -17 -28 c-9 -16 -15 -31 -12 -33 5 -6 161 242 249 396 83 145
90 158 173 310 37 69 77 140 87 159 10 18 17 35 15 38 -3 2 -19 -21 -36 -52
-17 -30 -34 -55 -37 -55 -5 0 40 83 59 107 5 7 13 10 18 8 11 -8 31 33 23 47
-4 6 -3 8 3 5 6 -4 29 18 52 48 45 59 121 125 182 155 l37 20 6 -78 c33 -413
135 -669 391 -987 111 -138 189 -264 280 -450 106 -216 154 -339 280 -708 56
-164 109 -307 118 -317 34 -40 107 -13 107 40 0 17 -34 132 -76 257 -217 647
-371 972 -600 1260 -123 155 -184 249 -234 356 -75 162 -117 331 -126 502 -2
55 -7 114 -9 132 -3 31 -2 32 63 52 187 58 369 217 491 430 20 36 79 143 131
236 51 94 124 215 161 270 71 107 199 259 225 269 9 3 14 12 11 20 -3 8 4 22
16 33 l22 18 -19 -22 c-27 -32 -5 -29 25 4 13 14 17 22 9 18 -29 -16 25 37 68
67 60 41 53 27 -9 -17 -28 -20 -48 -39 -45 -42 3 -3 22 8 43 24 21 17 121 85
223 153 209 139 229 153 359 265 93 79 221 219 221 239 0 6 -10 -2 -22 -19
-61 -84 -236 -247 -353 -329 -47 -33 -14 -4 69 62 87 68 222 200 263 255 19
26 39 45 43 42 5 -3 24 18 43 47 94 146 112 198 112 333 0 93 -3 104 -32 158
-17 31 -27 60 -22 63 5 3 9 10 9 15 0 6 -4 7 -10 4 -15 -10 -12 -2 15 35 14
19 25 29 25 23 0 -6 -7 -16 -15 -23 -8 -7 -15 -18 -15 -24 1 -6 12 3 25 19 14
17 23 36 20 42 -4 12 43 93 68 118 14 14 -33 -66 -51 -88 -8 -9 -12 -20 -9
-23 3 -3 21 18 40 47 168 264 180 499 34 666 -32 36 -61 46 -31 11 l19 -23
-22 19 c-13 10 -20 22 -18 27 3 4 -16 20 -42 36 -27 15 -50 31 -51 35 -2 5 -9
5 -14 2 -7 -4 -8 -2 -4 5 4 6 11 9 16 6 9 -6 43 62 59 120 16 58 14 173 -5
236 -21 71 -46 113 -107 175 l-49 52 5 568 c3 451 8 597 21 702 30 235 79 386
149 460 36 38 97 58 127 42 10 -6 25 -9 31 -8 7 2 21 -12 31 -29 11 -18 17
-33 14 -33 -3 0 -13 14 -21 31 -24 46 -28 29 -6 -22 25 -57 33 -98 141 -734
144 -847 197 -1236 189 -1395 -4 -72 -7 -78 -61 -161 -136 -203 -189 -377
-299 -984 -34 -187 -88 -393 -140 -531 -31 -83 -33 -85 -121 -154 -49 -39 -87
-74 -84 -79 3 -4 -9 -21 -27 -37 l-32 -29 29 33 c17 17 25 32 20 32 -13 0 -76
-65 -69 -71 2 -3 -12 -21 -33 -40 l-37 -34 34 38 c19 20 30 37 24 37 -15 0
-182 -180 -278 -300 -174 -216 -346 -511 -420 -720 -68 -192 -109 -380 -130
-588 -18 -181 -11 -202 65 -202 40 0 60 32 60 97 0 171 71 498 152 702 107
270 283 541 496 762 52 55 93 102 90 104 -14 14 -228 -233 -343 -395 -74 -105
-88 -122 -59 -72 77 136 371 473 507 583 32 26 21 13 -28 -34 -44 -42 -75 -76
-70 -76 6 0 51 38 100 85 50 47 81 82 70 78 -11 -4 -18 -5 -15 -3 3 2 18 15
35 29 26 22 28 22 11 3 -30 -35 -10 -27 54 22 83 64 94 81 138 218 78 238 105
350 151 618 77 446 137 638 258 828 19 29 32 55 30 57 -2 3 -19 -18 -37 -46
-18 -27 -34 -50 -37 -50 -5 0 2 13 39 68 16 23 33 40 37 38 4 -3 28 15 52 40
97 100 212 145 363 143 104 -1 142 -9 138 -30 -1 -8 -22 -93 -47 -189 -81
-318 -166 -897 -200 -1370 -17 -229 -63 -573 -99 -747 -46 -219 -172 -615
-316 -998 -162 -430 -223 -673 -236 -940 -11 -212 30 -412 122 -600 52 -104
156 -261 172 -258 6 2 33 -25 60 -60 28 -34 65 -80 83 -102 18 -22 23 -31 11
-21 -12 11 -50 54 -84 98 -34 43 -64 76 -66 73 -6 -6 43 -67 167 -209 106
-121 364 -388 340 -351 -7 11 15 -7 49 -40 34 -33 62 -62 62 -64 0 -3 -22 17
-50 44 -27 27 -50 45 -50 39 0 -5 51 -61 114 -123 99 -98 119 -114 147 -114
21 0 38 7 51 22 38 48 64 15 -397 501 -97 102 -179 184 -184 183 -4 -1 -23 15
-42 35 l-34 37 38 -34 c20 -19 37 -31 37 -27 0 13 -92 116 -100 111 -7 -4 -31
19 -60 60 -14 18 -14 19 3 6 28 -22 20 -7 -36 72 -151 210 -228 451 -220 683
9 267 62 485 223 919 86 234 226 643 259 760 84 300 132 607 176 1145 3 41 10
109 15 150 5 41 14 125 20 185 6 61 13 125 16 143 2 17 6 47 9 65 41 300 101
598 155 777 64 209 64 208 -15 254 -89 53 -246 69 -380 41 -67 -14 -202 -72
-192 -82 3 -2 28 7 56 21 28 14 54 26 58 26 4 -1 -19 -15 -51 -32 -52 -26 -61
-28 -71 -15 -6 8 -17 75 -24 149 -21 222 -73 574 -156 1063 -30 176 -73 428
-95 560 -63 375 -88 443 -174 485 -49 23 -118 32 -161 21z m30 -10 c-12 -10
-65 -24 -65 -16 0 2 15 9 33 14 43 12 42 12 32 2z m151 -36 c32 -25 71 -82 61
-91 -2 -3 -10 9 -17 26 -16 39 -65 77 -116 90 l-39 10 38 -5 c22 -2 54 -16 73
-30z m-286 -28 c0 -2 -12 -14 -27 -28 l-28 -24 24 28 c23 25 31 32 31 24z
m-70 -87 c-6 -11 -13 -20 -16 -20 -2 0 0 9 6 20 6 11 13 20 16 20 2 0 0 -9 -6
-20z m150 17 c0 -2 -15 -16 -32 -33 l-33 -29 29 33 c28 30 36 37 36 29z m-177
-62 c-3 -9 -8 -14 -10 -11 -3 3 -2 9 2 15 9 16 15 13 8 -4z m90 -60 c-9 -19
-18 -33 -21 -31 -4 5 26 66 33 66 3 0 -3 -16 -12 -35z m295 -30 c0 -16 -2 -15
-8 5 -11 34 -11 60 0 35 5 -11 8 -29 8 -40z m-417 14 c-5 -13 -10 -19 -10 -12
-1 15 10 45 15 40 3 -2 0 -15 -5 -28z m538 -129 c-1 -14 -7 4 -14 40 -18 85
-17 123 1 45 7 -33 13 -71 13 -85z m-626 93 c-13 -2 -33 -2 -45 0 -13 2 -3 4
22 4 25 0 35 -2 23 -4z m178 -20 c-12 -20 -14 -14 -5 12 4 9 9 14 11 11 3 -2
0 -13 -6 -23z m-254 11 c-3 -3 -12 -4 -19 -1 -8 3 -5 6 6 6 11 1 17 -2 13 -5z
m590 -31 c-3 -10 -5 -4 -5 12 0 17 2 24 5 18 2 -7 2 -21 0 -30z m-637 20 c-8
-3 -24 -10 -35 -15 -20 -9 -20 -9 -1 6 11 9 27 16 35 15 14 0 14 -1 1 -6z
m285 -63 c-9 -41 -17 -33 -9 9 4 17 9 30 11 27 3 -2 2 -19 -2 -36z m-375 16
c0 -2 -19 -19 -42 -36 l-43 -32 39 36 c38 35 46 40 46 32z m737 -18 c-3 -8 -6
-5 -6 6 -1 11 2 17 5 13 3 -3 4 -12 1 -19z m-514 -25 c-13 -2 -33 -2 -45 0
-13 2 -3 4 22 4 25 0 35 -2 23 -4z m524 -40 c-3 -10 -5 -2 -5 17 0 19 2 27 5
18 2 -10 2 -26 0 -35z m-512 5 c-31 -132 -37 -251 -42 -811 -5 -532 -6 -578
-22 -571 -58 25 -123 35 -201 31 -47 -3 -94 -8 -104 -13 -18 -7 -19 -3 -13 97
4 57 11 208 17 334 25 561 48 719 122 827 23 33 23 44 1 27 -10 -8 -4 2 12 22
17 20 39 42 50 49 11 7 4 -5 -15 -26 l-35 -38 46 37 c57 46 82 56 142 56 44 1
47 -1 42 -21z m120 -33 c-4 -25 -9 -44 -12 -41 -2 2 -1 25 2 51 4 25 9 44 12
41 2 -2 1 -25 -2 -51z m513 -100 c0 -11 -6 9 -14 45 -7 36 -13 76 -12 90 0 14
6 -6 14 -45 7 -38 13 -79 12 -90z m-958 115 c-6 -11 -13 -20 -16 -20 -2 0 0 9
6 20 6 11 13 20 16 20 2 0 0 -9 -6 -20z m337 -42 c-3 -7 -5 -2 -5 12 0 14 2
19 5 13 2 -7 2 -19 0 -25z m510 0 c-3 -7 -5 -2 -5 12 0 14 2 19 5 13 2 -7 2
-19 0 -25z m-896 -45 c-12 -20 -14 -14 -5 12 4 9 9 14 11 11 3 -2 0 -13 -6
-23z m376 -15 c-3 -7 -5 -2 -5 12 0 14 2 19 5 13 2 -7 2 -19 0 -25z m-274 -13
c-9 -19 -18 -33 -21 -31 -4 5 26 66 33 66 3 0 -3 -16 -12 -35z m374 3 c-3 -8
-6 -5 -6 6 -1 11 2 17 5 13 3 -3 4 -12 1 -19z m-10 -70 c-2 -13 -4 -5 -4 17
-1 22 1 32 4 23 2 -10 2 -28 0 -40z m450 30 c-3 -8 -6 -5 -6 6 -1 11 2 17 5
13 3 -3 4 -12 1 -19z m-950 -24 c-6 -20 -13 -32 -14 -27 -4 11 14 63 21 63 2
0 -1 -16 -7 -36z m1050 -1 c-3 -10 -5 -4 -5 12 0 17 2 24 5 18 2 -7 2 -21 0
-30z m-650 -25 c-2 -13 -4 -5 -4 17 -1 22 1 32 4 23 2 -10 2 -28 0 -40z m-296
15 c-12 -20 -14 -14 -5 12 4 9 9 14 11 11 3 -2 0 -13 -6 -23z m856 -40 c-3
-10 -5 -2 -5 17 0 19 2 27 5 18 2 -10 2 -26 0 -35z m-870 -5 c-3 -8 -6 -5 -6
6 -1 11 2 17 5 13 3 -3 4 -12 1 -19z m-110 -20 c-3 -8 -6 -5 -6 6 -1 11 2 17
5 13 3 -3 4 -12 1 -19z m100 -20 c-3 -8 -6 -5 -6 6 -1 11 2 17 5 13 3 -3 4
-12 1 -19z m310 -75 c-2 -21 -4 -6 -4 32 0 39 2 55 4 38 2 -18 2 -50 0 -70z
m100 20 c-2 -16 -4 -3 -4 27 0 30 2 43 4 28 2 -16 2 -40 0 -55z m480 45 c-3
-7 -5 -2 -5 12 0 14 2 19 5 13 2 -7 2 -19 0 -25z m100 10 c-3 -8 -6 -5 -6 6
-1 11 2 17 5 13 3 -3 4 -12 1 -19z m-1100 -45 c-3 -10 -5 -2 -5 17 0 19 2 27
5 18 2 -10 2 -26 0 -35z m100 -15 c-3 -7 -5 -2 -5 12 0 14 2 19 5 13 2 -7 2
-19 0 -25z m922 -47 c1 -51 -5 -34 -12 29 -4 36 -3 46 3 30 4 -14 8 -40 9 -59z
m88 32 c-3 -10 -5 -4 -5 12 0 17 2 24 5 18 2 -7 2 -21 0 -30z m-1120 -40 c-3
-10 -5 -4 -5 12 0 17 2 24 5 18 2 -7 2 -21 0 -30z m100 -20 c-3 -10 -5 -2 -5
17 0 19 2 27 5 18 2 -10 2 -26 0 -35z m1041 -48 c0 -25 -2 -24 -9 10 -10 51
-10 92 1 50 4 -16 8 -43 8 -60z m-621 -232 c-1 -59 -3 -13 -3 102 0 116 2 164
3 108 2 -56 2 -151 0 -210z m-100 235 c-3 -7 -5 -2 -5 12 0 14 2 19 5 13 2 -7
2 -19 0 -25z m620 10 c-3 -8 -6 -5 -6 6 -1 11 2 17 5 13 3 -3 4 -12 1 -19z
m-1050 -80 c-2 -13 -4 -3 -4 22 0 25 2 35 4 23 2 -13 2 -33 0 -45z m430 0 c-2
-13 -4 -5 -4 17 -1 22 1 32 4 23 2 -10 2 -28 0 -40z m-330 -5 c-3 -10 -5 -2
-5 17 0 19 2 27 5 18 2 -10 2 -26 0 -35z m960 15 c-3 -7 -5 -2 -5 12 0 14 2
19 5 13 2 -7 2 -19 0 -25z m100 -15 c-3 -10 -5 -4 -5 12 0 17 2 24 5 18 2 -7
2 -21 0 -30z m-90 -45 c-3 -7 -5 -2 -5 12 0 14 2 19 5 13 2 -7 2 -19 0 -25z
m100 -10 c-3 -8 -6 -5 -6 6 -1 11 2 17 5 13 3 -3 4 -12 1 -19z m-1080 -35 c-3
-10 -5 -2 -5 17 0 19 2 27 5 18 2 -10 2 -26 0 -35z m340 -531 c-1 -103 -2 -16
-2 193 0 209 1 293 2 187 2 -106 2 -277 0 -380z m650 521 c-3 -10 -5 -4 -5 12
0 17 2 24 5 18 2 -7 2 -21 0 -30z m100 -30 c-3 -10 -5 -4 -5 12 0 17 2 24 5
18 2 -7 2 -21 0 -30z m-1248 3 c-2 -2 -28 -13 -58 -25 -30 -11 -50 -16 -45
-11 5 5 27 16 49 24 40 15 62 19 54 12z m1158 -28 c-3 -7 -5 -2 -5 12 0 14 2
19 5 13 2 -7 2 -19 0 -25z m11 -49 c-3 -8 -7 -3 -11 10 -4 17 -3 21 5 13 5 -5
8 -16 6 -23z m110 -79 c0 -22 -1 -22 -8 5 -4 17 -8 41 -8 55 0 22 1 22 8 -5 4
-16 8 -41 8 -55z m-1131 -2 c-2 -13 -4 -5 -4 17 -1 22 1 32 4 23 2 -10 2 -28
0 -40z m1030 15 c-3 -10 -5 -4 -5 12 0 17 2 24 5 18 2 -7 2 -21 0 -30z m-1152
-165 c-4 -106 -10 -224 -14 -262 l-6 -70 -100 -18 c-55 -11 -107 -20 -115 -21
-12 -2 -16 15 -18 93 -7 214 71 385 203 446 28 13 52 24 54 24 2 0 1 -87 -4
-192z m-65 178 c0 -2 -7 -7 -16 -10 -8 -3 -12 -2 -9 4 6 10 25 14 25 6z m-72
-53 c-20 -21 -45 -54 -57 -73 -12 -19 -21 -30 -21 -25 0 20 93 135 109 135 3
0 -11 -17 -31 -37z m1310 -93 c0 -16 -3 -10 -9 15 -4 22 -8 54 -7 70 0 22 3
19 9 -15 4 -25 7 -56 7 -70z m89 53 c-3 -10 -5 -4 -5 12 0 17 2 24 5 18 2 -7
2 -21 0 -30z m-1140 -35 c-2 -13 -4 -5 -4 17 -1 22 1 32 4 23 2 -10 2 -28 0
-40z m-431 -5 c-8 -15 -15 -25 -16 -21 0 12 23 58 27 54 3 -2 -2 -17 -11 -33z
m331 -55 c-2 -18 -4 -4 -4 32 0 36 2 50 4 33 2 -18 2 -48 0 -65z m1250 25 c-3
-10 -5 -2 -5 17 0 19 2 27 5 18 2 -10 2 -26 0 -35z m-1150 -45 c-2 -13 -4 -5
-4 17 -1 22 1 32 4 23 2 -10 2 -28 0 -40z m1060 0 c-3 -7 -5 -2 -5 12 0 14 2
19 5 13 2 -7 2 -19 0 -25z m-1416 -5 c-12 -20 -14 -14 -5 12 4 9 9 14 11 11 3
-2 0 -13 -6 -23z m806 -10 c-3 -10 -5 -4 -5 12 0 17 2 24 5 18 2 -7 2 -21 0
-30z m710 -10 c-3 -10 -5 -2 -5 17 0 19 2 27 5 18 2 -10 2 -26 0 -35z m-1630
-25 c-3 -7 -5 -2 -5 12 0 14 2 19 5 13 2 -7 2 -19 0 -25z m1540 0 c-3 -7 -5
-2 -5 12 0 14 2 19 5 13 2 -7 2 -19 0 -25z m-1440 0 c-3 -8 -6 -5 -6 6 -1 11
2 17 5 13 3 -3 4 -12 1 -19z m1540 -35 c-3 -10 -5 -4 -5 12 0 17 2 24 5 18 2
-7 2 -21 0 -30z m-1180 -10 c-3 -10 -5 -4 -5 12 0 17 2 24 5 18 2 -7 2 -21 0
-30z m-470 -10 c-3 -10 -5 -4 -5 12 0 17 2 24 5 18 2 -7 2 -21 0 -30z m100 0
c-3 -10 -5 -4 -5 12 0 17 2 24 5 18 2 -7 2 -21 0 -30z m1460 -15 c-3 -7 -5 -2
-5 12 0 14 2 19 5 13 2 -7 2 -19 0 -25z m-1190 -50 c-2 -13 -4 -3 -4 22 0 25
2 35 4 23 2 -13 2 -33 0 -45z m1290 15 c-3 -10 -5 -4 -5 12 0 17 2 24 5 18 2
-7 2 -21 0 -30z m-1670 -85 c-2 -24 -4 -7 -4 37 0 44 2 63 4 43 2 -21 2 -57 0
-80z m100 90 c-3 -8 -6 -5 -6 6 -1 11 2 17 5 13 3 -3 4 -12 1 -19z m840 -215
c-1 -43 -3 -8 -3 77 0 85 2 120 3 78 2 -43 2 -113 0 -155z m640 195 c-3 -7 -5
-2 -5 12 0 14 2 19 5 13 2 -7 2 -19 0 -25z m-1480 -50 c-3 -7 -5 -2 -5 12 0
14 2 19 5 13 2 -7 2 -19 0 -25z m1580 10 c-3 -8 -6 -5 -6 6 -1 11 2 17 5 13 3
-3 4 -12 1 -19z m16 -93 c4 -54 4 -61 -3 -30 -9 40 -13 112 -6 104 2 -2 6 -35
9 -74z m-1326 28 c-3 -10 -5 -4 -5 12 0 17 2 24 5 18 2 -7 2 -21 0 -30z m100
-40 c-2 -16 -4 -3 -4 27 0 30 2 43 4 28 2 -16 2 -40 0 -55z m-370 -15 c-2 -13
-4 -5 -4 17 -1 22 1 32 4 23 2 -10 2 -28 0 -40z m-100 -5 c-3 -10 -5 -2 -5 17
0 19 2 27 5 18 2 -10 2 -26 0 -35z m1600 15 c-3 -7 -5 -2 -5 12 0 14 2 19 5
13 2 -7 2 -19 0 -25z m-1254 -5 c-7 -2 -21 -2 -30 0 -10 3 -4 5 12 5 17 0 24
-2 18 -5z m-112 -19 c-35 -8 -66 -12 -69 -10 -5 6 76 24 108 24 14 0 -4 -6
-39 -14z m533 -30 c17 -8 22 -11 11 -8 -11 4 -60 13 -110 20 l-90 13 79 -5
c43 -3 93 -12 110 -20z m73 4 c-3 -8 -6 -5 -6 6 -1 11 2 17 5 13 3 -3 4 -12 1
-19z m-294 5 c-7 -2 -19 -2 -25 0 -7 3 -2 5 12 5 14 0 19 -2 13 -5z m1064 -30
c-3 -10 -5 -4 -5 12 0 17 2 24 5 18 2 -7 2 -21 0 -30z m100 -35 c-2 -13 -4 -5
-4 17 -1 22 1 32 4 23 2 -10 2 -28 0 -40z m-1717 13 c0 -5 -10 -11 -22 -14
-13 -3 -34 -8 -48 -12 -14 -3 -8 3 15 14 45 23 55 25 55 12z m265 -21 c-11 -5
-27 -9 -35 -9 -13 -1 -13 0 0 9 8 5 24 9 35 9 l20 0 -20 -9z m1362 -37 c-3
-10 -5 -4 -5 12 0 17 2 24 5 18 2 -7 2 -21 0 -30z m-1487 2 c-19 -7 -42 -13
-50 -13 -8 0 1 6 20 13 19 7 42 13 50 13 8 0 -1 -6 -20 -13z m1587 -32 c-3
-10 -5 -2 -5 17 0 19 2 27 5 18 2 -10 2 -26 0 -35z m-1881 22 c-11 -8 -25 -15
-30 -15 -6 1 0 7 14 15 32 19 40 18 16 0z m783 11 c-2 -2 -29 -6 -59 -9 -34
-3 -47 -2 -35 3 19 8 103 14 94 6z m134 -7 c58 -16 40 -19 -23 -4 -30 7 -46
14 -35 14 11 1 37 -4 58 -10z m262 -46 c40 -47 85 -143 84 -178 0 -11 -8 5
-18 35 -25 77 -37 98 -90 153 -25 26 -39 45 -30 42 8 -3 33 -26 54 -52z m-725
42 c0 -2 -10 -9 -22 -15 -22 -11 -22 -10 -4 4 21 17 26 19 26 11z m207 -11
c-3 -3 -12 -4 -19 -1 -8 3 -5 6 6 6 11 1 17 -2 13 -5z m-707 -9 c0 -2 -13 -11
-30 -20 -38 -19 -40 -11 -2 9 31 17 32 18 32 11z m230 -9 c0 -2 -9 -6 -20 -9
-11 -3 -18 -1 -14 4 5 9 34 13 34 5z m1607 -53 c-3 -10 -5 -2 -5 17 0 19 2 27
5 18 2 -10 2 -26 0 -35z m100 -25 c-2 -13 -4 -3 -4 22 0 25 2 35 4 23 2 -13 2
-33 0 -45z m-1808 39 c-14 -12 -119 -68 -119 -64 0 7 102 66 114 67 5 0 7 -2
5 -3z m221 -41 c0 -2 -8 -10 -17 -17 -16 -13 -17 -12 -4 4 13 16 21 21 21 13z
m839 -72 c12 -24 21 -49 21 -56 0 -7 -9 6 -20 30 -11 24 -30 58 -42 75 -21 31
-21 32 -1 14 12 -11 31 -39 42 -63z m-1359 53 c0 -2 -19 -18 -42 -36 l-43 -32
39 35 c37 34 46 40 46 33z m640 -22 c-13 -14 -27 -25 -32 -25 -4 0 -16 -8 -26
-17 -46 -44 -92 -83 -92 -77 0 12 150 139 169 143 3 1 -6 -10 -19 -24z m1377
-27 c-2 -13 -4 -5 -4 17 -1 22 1 32 4 23 2 -10 2 -28 0 -40z m-1847 37 c0 -2
-10 -9 -22 -15 -22 -11 -22 -10 -4 4 21 17 26 19 26 11z m310 2 c0 -2 -12 -14
-27 -28 l-28 -24 24 28 c23 25 31 32 31 24z m1637 -49 c-2 -13 -4 -5 -4 17 -1
22 1 32 4 23 2 -10 2 -28 0 -40z m-1697 -11 c0 -2 -10 -12 -22 -23 l-23 -19
19 23 c18 21 26 27 26 19z m-595 -89 c-77 -82 -106 -111 -75 -73 33 40 123
135 129 135 2 0 -22 -28 -54 -62z m160 11 c-22 -22 -53 -50 -70 -62 -16 -11
-1 7 35 41 74 70 93 81 35 21z m2042 -6 c-3 -10 -5 -2 -5 17 0 19 2 27 5 18 2
-10 2 -26 0 -35z m492 43 c-2 -2 -38 -6 -79 -9 -46 -3 -63 -2 -45 3 30 8 132
13 124 6z m100 -12 c9 -8 -55 -2 -74 6 -13 6 -5 7 25 3 25 -3 47 -7 49 -9z
m-1132 -91 c-2 -21 -4 -6 -4 32 0 39 2 55 4 38 2 -18 2 -50 0 -70z m-100 10
c-2 -16 -4 -3 -4 27 0 30 2 43 4 28 2 -16 2 -40 0 -55z m953 67 c-34 -11 -60
-11 -35 0 11 5 29 8 40 8 16 0 15 -2 -5 -8z m330 0 c18 -12 2 -12 -25 0 -13 6
-15 9 -5 9 8 0 22 -4 30 -9z m-2260 -85 c-41 -41 -77 -75 -79 -75 -3 0 28 34
69 75 41 41 77 75 79 75 3 0 -28 -34 -69 -75z m2305 65 c3 -5 2 -10 -4 -10 -5
0 -13 5 -16 10 -3 6 -2 10 4 10 5 0 13 -4 16 -10z m-2395 -3 c0 -2 -15 -16
-32 -33 l-33 -29 29 33 c28 30 36 37 36 29z m2448 -27 c22 -21 30 -74 14 -84
-5 -3 -6 8 -4 24 3 21 -3 36 -21 54 -31 31 -21 35 11 6z m-271 -37 c-20 -2
-52 -2 -70 0 -17 2 0 4 38 4 39 0 53 -2 32 -4z m139 -6 c4 -3 -15 -4 -42 0
-64 7 -73 17 -11 11 26 -3 50 -8 53 -11z m-249 -3 c-3 -3 -12 -4 -19 -1 -8 3
-5 6 6 6 11 1 17 -2 13 -5z m-1010 -26 c-3 -8 -6 -5 -6 6 -1 11 2 17 5 13 3
-3 4 -12 1 -19z m650 -25 c-3 -10 -5 -2 -5 17 0 19 2 27 5 18 2 -10 2 -26 0
-35z m308 37 c-11 -5 -27 -9 -35 -9 -9 0 -8 4 5 9 11 5 27 9 35 9 9 0 8 -4 -5
-9z m-2050 -39 c-6 -5 -25 10 -25 20 0 5 6 4 14 -3 8 -7 12 -15 11 -17z m1945
-7 c-30 -20 -66 -46 -80 -58 -19 -16 -21 -17 -10 -3 16 22 120 96 135 96 5 1
-15 -15 -45 -35z m-769 -47 c-28 -66 -32 -58 -7 13 12 34 22 55 24 47 1 -7 -6
-35 -17 -60z m1192 23 c-3 -12 -8 -19 -11 -16 -5 6 5 36 12 36 2 0 2 -9 -1
-20z m-2975 -24 c-13 -19 -24 -33 -26 -31 -5 4 37 65 44 65 2 0 -6 -15 -18
-34z m3073 -7 c-5 -13 -10 -19 -10 -12 -1 15 10 45 15 40 3 -2 0 -15 -5 -28z
m-762 -34 c-30 -42 -49 -60 -33 -32 13 23 55 77 60 77 3 0 -9 -20 -27 -45z
m648 13 c-3 -8 -6 -5 -6 6 -1 11 2 17 5 13 3 -3 4 -12 1 -19z m-517 -12 c0 -2
-8 -10 -17 -17 -16 -13 -17 -12 -4 4 13 16 21 21 21 13z m606 -52 c-8 -27 -15
-43 -15 -35 -1 18 21 92 26 87 2 -2 -2 -26 -11 -52z m-102 12 c-3 -15 -8 -25
-11 -23 -2 3 -1 17 3 31 3 15 8 25 11 23 2 -3 1 -17 -3 -31z m-1461 7 c-7 -2
-21 -2 -30 0 -10 3 -4 5 12 5 17 0 24 -2 18 -5z m-1558 -53 c-14 -27 -28 -50
-30 -50 -3 0 6 23 20 50 14 28 28 50 30 50 3 0 -6 -22 -20 -50z m1504 46 c-2
-2 -33 -6 -69 -9 -39 -3 -55 -2 -40 3 25 8 117 13 109 6z m-146 -23 c-7 -2
-19 -2 -25 0 -7 3 -2 5 12 5 14 0 19 -2 13 -5z m977 -13 c-6 -11 -13 -20 -16
-20 -2 0 0 9 6 20 6 11 13 20 16 20 2 0 0 -9 -6 -20z m-1023 4 c-3 -3 -12 -4
-19 -1 -8 3 -5 6 6 6 11 1 17 -2 13 -5z m-47 -13 c-8 -5 -26 -11 -40 -15 -21
-5 -20 -3 5 9 32 15 60 20 35 6z m610 -1 c8 -5 11 -10 5 -10 -5 0 -17 5 -25
10 -8 5 -10 10 -5 10 6 0 17 -5 25 -10z m-1775 -30 c-9 -16 -18 -30 -21 -30
-2 0 2 14 11 30 9 17 18 30 21 30 2 0 -2 -13 -11 -30z m2902 8 c-3 -8 -6 -5
-6 6 -1 11 2 17 5 13 3 -3 4 -12 1 -19z m-1817 -7 c-8 -5 -26 -11 -40 -15 -21
-5 -20 -3 5 9 32 15 60 20 35 6z m1118 -16 c-6 -14 -13 -23 -15 -21 -5 5 15
46 22 46 3 0 -1 -11 -7 -25z m799 3 c-3 -8 -6 -5 -6 6 -1 11 2 17 5 13 3 -3 4
-12 1 -19z m-112 -38 c-4 -17 -9 -30 -11 -27 -2 2 -1 18 2 36 4 17 9 30 11 27
3 -2 2 -19 -2 -36z m-1462 23 c-13 -2 -33 -2 -45 0 -13 2 -3 4 22 4 25 0 35
-2 23 -4z m134 0 c-20 -2 -52 -2 -70 0 -17 2 0 4 38 4 39 0 53 -2 32 -4z
m-1721 -60 c-14 -26 -25 -45 -26 -41 0 12 43 98 48 94 2 -2 -8 -26 -22 -53z
m1459 41 c-27 -7 -57 -13 -65 -13 -21 1 70 27 95 27 11 0 -2 -6 -30 -14z
m1692 -6 c-3 -8 -6 -5 -6 6 -1 11 2 17 5 13 3 -3 4 -12 1 -19z m-1269 -18 c28
-17 52 -33 52 -36 0 -3 -15 4 -33 15 -19 11 -49 27 -68 35 -19 9 -27 15 -19
16 8 0 39 -14 68 -30z m-808 -14 c-30 -19 -70 -44 -87 -55 -18 -11 -33 -18
-33 -16 0 7 154 105 165 105 6 0 -15 -16 -45 -34z m1263 19 c-3 -9 -8 -14 -10
-11 -3 3 -2 9 2 15 9 16 15 13 8 -4z m-2228 -31 c-8 -20 -15 -39 -15 -42 0 -3
-2 -3 -5 0 -6 5 22 78 30 78 3 0 -2 -16 -10 -36z m1262 30 c-3 -3 -12 -4 -19
-1 -8 3 -5 6 6 6 11 1 17 -2 13 -5z m1071 -19 c-6 -14 -13 -23 -15 -21 -5 5
15 46 22 46 3 0 -1 -11 -7 -25z m691 -49 c-7 -31 -14 -54 -16 -52 -3 3 1 30 8
60 7 31 14 54 16 52 3 -3 -1 -30 -8 -60z m-1839 44 c-8 -5 -19 -10 -25 -10 -5
0 -3 5 5 10 8 5 20 10 25 10 6 0 3 -5 -5 -10z m1011 -49 c-12 -22 -21 -48 -22
-58 0 -12 -2 -14 -6 -4 -5 13 37 115 44 107 3 -2 -5 -22 -16 -45z m-215 -7 c8
-20 13 -38 11 -40 -2 -2 -11 14 -20 36 -19 50 -12 53 9 4z m-87 -62 c6 -20 11
-46 10 -57 0 -11 -7 4 -14 33 -7 30 -22 68 -34 85 l-22 32 25 -28 c14 -15 30
-44 35 -65z m409 63 c-6 -14 -13 -23 -15 -21 -5 5 15 46 22 46 3 0 -1 -11 -7
-25z m612 -12 c-17 -75 -17 -77 -13 -29 4 46 9 66 18 66 1 0 -1 -17 -5 -37z
m-2974 -72 c-15 -28 -28 -51 -31 -51 -3 0 7 25 22 55 15 30 29 53 31 51 2 -2
-8 -27 -22 -55z m-120 -8 c-8 -15 -15 -25 -16 -21 0 12 23 58 27 54 3 -2 -2
-17 -11 -33z m2440 -22 c-11 -33 -22 -58 -24 -56 -6 5 31 115 38 115 4 0 -2
-27 -14 -59z m741 27 c-3 -7 -5 -2 -5 12 0 14 2 19 5 13 2 -7 2 -19 0 -25z
m-2057 17 c0 -8 -82 -65 -93 -65 -5 0 13 15 39 34 56 39 54 38 54 31z m1063
-66 c-4 -4 -9 11 -10 34 l-1 42 10 -34 c5 -18 6 -37 1 -42z m145 24 c-5 -21
-12 -40 -15 -43 -6 -6 7 61 14 73 10 17 11 4 1 -30z m-1324 -12 c-2 -3 -12 3
-22 13 -16 17 -16 18 5 5 12 -7 20 -15 17 -18z m2063 -28 c-3 -10 -5 -2 -5 17
0 19 2 27 5 18 2 -10 2 -26 0 -35z m100 25 c-3 -8 -6 -5 -6 6 -1 11 2 17 5 13
3 -3 4 -12 1 -19z m-3204 -33 c-9 -19 -18 -33 -21 -31 -4 5 26 66 33 66 3 0
-3 -16 -12 -35z m3194 -27 c-3 -7 -5 -2 -5 12 0 14 2 19 5 13 2 -7 2 -19 0
-25z m-3107 -28 c-11 -22 -23 -40 -25 -40 -3 0 4 18 15 40 11 22 23 40 25 40
3 0 -4 -18 -15 -40z m3007 18 c-3 -8 -6 -5 -6 6 -1 11 2 17 5 13 3 -3 4 -12 1
-19z m-982 -53 c-7 -31 -16 -59 -20 -63 -5 -4 -5 2 -1 13 4 11 10 41 13 67 3
26 9 45 13 43 5 -3 2 -30 -5 -60z m325 28 c-11 -17 -11 -17 -6 0 3 10 6 24 7
30 0 9 2 9 5 0 3 -7 0 -20 -6 -30z m745 -38 c-4 -25 -9 -44 -12 -41 -2 2 -1
25 2 51 4 25 9 44 12 41 2 -2 1 -25 -2 -51z m-98 13 c-3 -7 -5 -2 -5 12 0 14
2 19 5 13 2 -7 2 -19 0 -25z m-3127 2 c-6 -11 -13 -20 -16 -20 -2 0 0 9 6 20
6 11 13 20 16 20 2 0 0 -9 -6 -20z m2367 -12 c-3 -8 -6 -5 -6 6 -1 11 2 17 5
13 3 -3 4 -12 1 -19z m97 -27 c-4 -17 -9 -30 -11 -27 -3 2 -2 19 2 36 4 17 9
30 11 27 2 -2 1 -18 -2 -36z m653 -28 c-3 -10 -5 -2 -5 17 0 19 2 27 5 18 2
-10 2 -26 0 -35z m-3144 22 c-3 -9 -8 -14 -10 -11 -3 3 -2 9 2 15 9 16 15 13
8 -4z m2381 -29 c-3 -21 -8 -35 -11 -32 -2 2 -1 20 3 40 3 21 8 35 11 32 2 -2
1 -20 -3 -40z m-2283 -9 c-10 -9 -11 -8 -5 6 3 10 9 15 12 12 3 -3 0 -11 -7
-18z m2166 1 c-3 -8 -6 -5 -6 6 -1 11 2 17 5 13 3 -3 4 -12 1 -19z m-2287 -8
c-6 -11 -13 -20 -16 -20 -2 0 0 9 6 20 6 11 13 20 16 20 2 0 0 -9 -6 -20z
m2494 -34 c-3 -21 -8 -35 -11 -32 -2 2 -1 20 3 40 3 21 8 35 11 32 2 -2 1 -20
-3 -40z m763 2 c-3 -7 -5 -2 -5 12 0 14 2 19 5 13 2 -7 2 -19 0 -25z m-3157 2
c-6 -11 -13 -20 -16 -20 -2 0 0 9 6 20 6 11 13 20 16 20 2 0 0 -9 -6 -20z
m3057 -2 c-3 -8 -6 -5 -6 6 -1 11 2 17 5 13 3 -3 4 -12 1 -19z m-987 4 c0 -5
-7 -17 -15 -28 -14 -18 -14 -17 -4 9 12 27 19 34 19 19z m217 -34 c-3 -7 -5
-2 -5 12 0 14 2 19 5 13 2 -7 2 -19 0 -25z m-2423 -3 c-9 -14 -18 -25 -21 -25
-5 0 5 18 20 38 17 22 18 13 1 -13z m2292 -12 c-8 -15 -15 -25 -16 -21 0 12
23 58 27 54 3 -2 -2 -17 -11 -33z m-2191 -13 c-9 -16 -18 -30 -21 -30 -2 0 2
14 11 30 9 17 18 30 21 30 2 0 -2 -13 -11 -30z m3082 -17 c-3 -10 -5 -2 -5 17
0 19 2 27 5 18 2 -10 2 -26 0 -35z m100 10 c-3 -10 -5 -4 -5 12 0 17 2 24 5
18 2 -7 2 -21 0 -30z m-870 -5 c-3 -8 -6 -5 -6 6 -1 11 2 17 5 13 3 -3 4 -12
1 -19z m97 -27 c-4 -23 -9 -40 -11 -37 -3 3 -2 23 2 46 4 23 9 39 11 37 3 -2
2 -23 -2 -46z m-241 4 c-3 -9 -8 -14 -10 -11 -3 3 -2 9 2 15 9 16 15 13 8 -4z
m139 -22 c-3 -16 -7 -22 -10 -15 -4 13 4 42 11 42 2 0 2 -12 -1 -27z m865 -15
c-3 -7 -5 -2 -5 12 0 14 2 19 5 13 2 -7 2 -19 0 -25z m-100 -30 c-2 -13 -4 -5
-4 17 -1 22 1 32 4 23 2 -10 2 -28 0 -40z m-3243 17 c-9 -14 -18 -25 -21 -25
-5 0 5 18 20 38 17 22 18 13 1 -13z m2463 -37 c-3 -7 -5 -2 -5 12 0 14 2 19 5
13 2 -7 2 -19 0 -25z m100 -5 c-3 -10 -5 -4 -5 12 0 17 2 24 5 18 2 -7 2 -21
0 -30z m770 -15 c-2 -13 -4 -5 -4 17 -1 22 1 32 4 23 2 -10 2 -28 0 -40z
m-3377 -8 c-12 -16 -24 -30 -26 -30 -3 0 4 14 16 30 12 17 24 30 26 30 3 0 -4
-13 -16 -30z m1815 -10 c3 -6 -1 -7 -9 -4 -18 7 -21 14 -7 14 6 0 13 -4 16
-10z m108 3 c-18 -2 -48 -2 -65 0 -18 2 -4 4 32 4 36 0 50 -2 33 -4z m574 -25
c-3 -7 -5 -2 -5 12 0 14 2 19 5 13 2 -7 2 -19 0 -25z m98 -23 c-3 -26 -8 -45
-11 -43 -2 3 -1 26 2 52 4 25 9 44 12 42 2 -3 1 -26 -3 -51z m-875 36 c-8 -5
-33 -12 -55 -15 l-40 -6 45 14 c53 17 71 19 50 7z m53 2 c-7 -2 -19 -2 -25 0
-7 3 -2 5 12 5 14 0 19 -2 13 -5z m230 0 c-7 -2 -21 -2 -30 0 -10 3 -4 5 12 5
17 0 24 -2 18 -5z m177 3 c0 -2 -8 -10 -17 -17 -16 -13 -17 -12 -4 4 13 16 21
21 21 13z m1185 -91 c-4 -42 -9 -74 -11 -72 -3 3 -2 39 2 81 4 42 9 74 12 72
2 -3 1 -39 -3 -81z m-3402 53 c-74 -95 -101 -128 -145 -176 -57 -63 -40 -40
71 97 41 50 77 91 79 91 2 0 0 -6 -5 -12z m1654 6 c-3 -3 -12 -4 -19 -1 -8 3
-5 6 6 6 11 1 17 -2 13 -5z m1650 -76 c-2 -18 -4 -6 -4 27 0 33 2 48 4 33 2
-15 2 -42 0 -60z m-1702 62 c-27 -12 -43 -12 -25 0 8 5 22 9 30 9 10 0 8 -3
-5 -9z m920 -50 c-4 -28 -9 -49 -12 -47 -2 3 -1 28 3 56 4 28 9 50 11 47 3 -3
2 -28 -2 -56z m-1026 16 c-2 -2 -15 -9 -29 -15 -24 -11 -24 -11 -6 3 16 13 49
24 35 12z m419 -13 c-10 -2 -26 -2 -35 0 -10 3 -2 5 17 5 19 0 27 -2 18 -5z
m-75 -10 c-7 -2 -21 -2 -30 0 -10 3 -4 5 12 5 17 0 24 -2 18 -5z m140 0 c-7
-2 -19 -2 -25 0 -7 3 -2 5 12 5 14 0 19 -2 13 -5z m634 -30 c-3 -10 -5 -4 -5
12 0 17 2 24 5 18 2 -7 2 -21 0 -30z m-860 21 c-3 -3 -12 -4 -19 -1 -8 3 -5 6
6 6 11 1 17 -2 13 -5z m276 -1 c-7 -2 -19 -2 -25 0 -7 3 -2 5 12 5 14 0 19 -2
13 -5z m47 -13 c8 -5 11 -10 5 -10 -5 0 -17 5 -25 10 -8 5 -10 10 -5 10 6 0
17 -5 25 -10z m-613 -70 c9 0 14 -3 10 -6 -11 -12 -44 7 -55 32 -18 39 -14 42
8 7 11 -18 27 -33 37 -33z m834 6 c10 -22 18 -52 18 -66 -1 -18 -4 -14 -10 14
-5 22 -19 55 -31 74 -12 20 -16 32 -9 28 7 -5 22 -27 32 -50z m999 -1 c0 -25
-3 -45 -8 -45 -4 0 -6 20 -4 45 2 25 6 45 8 45 2 0 4 -20 4 -45z m-1730 26
c-8 -5 -26 -11 -40 -15 -21 -5 -20 -3 5 9 32 15 60 20 35 6z m937 -28 c-3 -10
-5 -4 -5 12 0 17 2 24 5 18 2 -7 2 -21 0 -30z m100 5 c-3 -7 -5 -2 -5 12 0 14
2 19 5 13 2 -7 2 -19 0 -25z m782 -37 c-2 -28 -5 -48 -8 -46 -7 4 -1 95 6 95
2 0 3 -22 2 -49z m-795 -40 c-4 -17 -9 -30 -11 -27 -3 2 -2 19 2 36 4 17 9 30
11 27 2 -2 1 -18 -2 -36z m691 -46 c-4 -31 -9 -54 -12 -51 -3 2 -1 30 2 61 4
31 9 54 12 51 3 -2 1 -30 -2 -61z m-1068 23 c-3 -8 -6 -5 -6 6 -1 11 2 17 5
13 3 -3 4 -12 1 -19z m-2417 9 c0 -2 -15 -16 -32 -33 l-33 -29 29 33 c28 30
36 37 36 29z m3574 -98 c-4 -46 -9 -78 -12 -71 -5 16 8 165 14 159 3 -2 2 -42
-2 -88z m-1047 49 c-3 -7 -5 -2 -5 12 0 14 2 19 5 13 2 -7 2 -19 0 -25z m150
-10 c-3 -7 -5 -2 -5 12 0 14 2 19 5 13 2 -7 2 -19 0 -25z m-250 -15 c-3 -10
-5 -4 -5 12 0 17 2 24 5 18 2 -7 2 -21 0 -30z m-2567 -68 c-41 -41 -77 -75
-79 -75 -3 0 28 34 69 75 41 41 77 75 79 75 3 0 -28 -34 -69 -75z m2667 43
c-3 -7 -5 -2 -5 12 0 14 2 19 5 13 2 -7 2 -19 0 -25z m240 0 c-3 -8 -6 -5 -6
6 -1 11 2 17 5 13 3 -3 4 -12 1 -19z m-350 -30 c-3 -8 -6 -5 -6 6 -1 11 2 17
5 13 3 -3 4 -12 1 -19z m240 0 c-3 -8 -6 -5 -6 6 -1 11 2 17 5 13 3 -3 4 -12
1 -19z m-147 -48 c-15 -57 -21 -46 -7 14 6 27 13 44 15 38 2 -6 -2 -29 -8 -52z
m247 28 c-3 -7 -5 -2 -5 12 0 14 2 19 5 13 2 -7 2 -19 0 -25z m710 -20 c-2
-13 -4 -5 -4 17 -1 22 1 32 4 23 2 -10 2 -28 0 -40z m-720 -20 c-3 -8 -6 -5
-6 6 -1 11 2 17 5 13 3 -3 4 -12 1 -19z m810 -60 c-2 -13 -4 -5 -4 17 -1 22 1
32 4 23 2 -10 2 -28 0 -40z m-3692 -28 c-27 -27 -50 -48 -52 -46 -4 4 88 95
97 96 2 0 -18 -22 -45 -50z m2610 1 c-21 -43 -29 -39 -8 4 9 19 18 33 21 31 2
-2 -4 -18 -13 -35z m241 -17 c-8 -27 -15 -43 -15 -35 -1 18 21 92 26 87 2 -2
-2 -26 -11 -52z m-376 -13 c-5 -11 -15 -23 -21 -27 -6 -3 -3 5 6 20 20 30 30
35 15 7z m1196 -191 c-15 -122 -14 -79 2 120 4 62 8 79 10 50 1 -25 -4 -101
-12 -170z m-941 140 c-9 -28 -19 -50 -21 -48 -2 2 4 27 13 56 9 28 19 50 21
47 2 -2 -4 -27 -13 -55z m-2910 -92 c-65 -68 -134 -139 -154 -158 -32 -31 -31
-30 4 10 51 58 258 270 264 270 2 0 -49 -55 -114 -122z m2729 73 c-14 -23 -29
-41 -31 -41 -3 0 1 10 9 23 8 12 21 32 29 44 7 12 15 20 17 18 2 -2 -9 -22
-24 -44z m-126 -1 c-22 -30 -35 -41 -22 -17 9 16 36 47 41 47 2 0 -6 -13 -19
-30z m1159 -2 c-3 -7 -5 -2 -5 12 0 14 2 19 5 13 2 -7 2 -19 0 -25z m0 -55
c-3 -10 -5 -4 -5 12 0 17 2 24 5 18 2 -7 2 -21 0 -30z m-887 -21 c0 -5 -7 -17
-15 -28 -14 -18 -14 -17 -4 9 12 27 19 34 19 19z m877 -74 c-2 -13 -4 -3 -4
22 0 25 2 35 4 23 2 -13 2 -33 0 -45z m-3982 -16 l-39 -37 35 41 c19 22 36 39
39 37 2 -2 -13 -20 -35 -41z m3182 11 c-9 -15 -30 -41 -48 -58 l-33 -30 33 39
c18 21 37 49 43 62 6 13 13 22 15 20 3 -2 -2 -17 -10 -33z m-107 24 c0 -2 -27
-25 -60 -50 -33 -26 -60 -45 -60 -42 0 4 112 95 118 95 1 0 2 -2 2 -3z m897
-119 c-2 -13 -4 -5 -4 17 -1 22 1 32 4 23 2 -10 2 -28 0 -40z m-4031 14 c-17
-16 -18 -16 -5 5 7 12 15 20 18 17 3 -2 -3 -12 -13 -22z m4118 -84 c-3 -40 -9
-76 -13 -81 -4 -4 -4 19 0 50 4 32 8 68 8 81 1 12 4 22 7 22 3 0 2 -33 -2 -72z
m-104 -48 c-10 -23 -10 -22 -5 9 3 18 6 43 7 55 1 12 3 9 5 -9 2 -17 -1 -42
-7 -55z m-4021 -35 c-34 -41 -64 -75 -66 -75 -3 0 14 24 37 53 23 28 50 62 59
74 9 12 19 23 24 23 4 0 -20 -34 -54 -75z m2531 61 c0 -2 -8 -10 -17 -17 -16
-13 -17 -12 -4 4 13 16 21 21 21 13z m-45 -36 c-3 -5 -16 -15 -28 -21 -19 -9
-19 -8 3 10 28 23 34 26 25 11z m-80 -56 c-26 -20 -55 -36 -55 -30 0 5 63 46
70 46 3 -1 -4 -8 -15 -16z m335 -54 c-34 -39 -67 -73 -74 -77 -6 -4 20 28 58
70 38 42 71 77 73 77 3 0 -23 -32 -57 -70z m-175 40 c-3 -5 -16 -15 -28 -21
-19 -9 -19 -8 3 10 28 23 34 26 25 11z m1537 -50 c-2 -22 -6 -40 -8 -40 -2 0
-4 18 -4 40 0 22 3 40 8 40 4 0 6 -18 4 -40z m-1622 -4 c-6 -8 -28 -25 -48
-36 -43 -25 -33 -13 18 24 41 29 46 31 30 12z m1522 -13 c-3 -16 -7 -22 -10
-15 -4 13 4 42 11 42 2 0 2 -12 -1 -27z m-1733 -6 c-2 -1 -13 -9 -24 -17 -19
-14 -19 -14 -6 3 7 9 18 17 24 17 6 0 8 -1 6 -3z m1716 -77 c-4 -23 -9 -39
-11 -37 -3 2 -2 23 2 46 4 23 9 40 11 37 3 -3 2 -23 -2 -46z m102 18 c-3 -7
-5 -2 -5 12 0 14 2 19 5 13 2 -7 2 -19 0 -25z m-1697 18 c0 -3 -70 -52 -100
-70 -26 -15 2 9 49 43 43 30 51 35 51 27z m-210 -20 c0 -2 -18 -15 -40 -30
-22 -14 -40 -24 -40 -22 0 5 71 56 77 56 2 0 3 -2 3 -4z m424 -66 c-31 -38
-59 -70 -61 -70 -6 0 7 17 65 88 64 77 61 63 -4 -18z m-2776 33 c-8 -10 -64
-79 -124 -153 -171 -212 -343 -418 -355 -426 -6 -3 45 61 113 142 68 82 179
218 247 302 68 83 126 152 129 152 3 0 -2 -8 -10 -17z m4242 -63 l-11 -25 6
25 c2 14 6 39 6 55 l2 30 4 -30 c2 -17 -1 -42 -7 -55z m-4389 43 c-11 -16 -39
-48 -62 -73 -46 -50 -25 -19 36 53 43 52 58 63 26 20z m4286 -45 c-3 -7 -5 -2
-5 12 0 14 2 19 5 13 2 -7 2 -19 0 -25z m-1897 18 c0 -2 -8 -10 -17 -17 -16
-13 -17 -12 -4 4 13 16 21 21 21 13z m-110 -101 c-41 -41 -77 -75 -79 -75 -3
0 28 34 69 75 41 41 77 75 79 75 3 0 -28 -34 -69 -75z m1997 33 c-3 -7 -5 -2
-5 12 0 14 2 19 5 13 2 -7 2 -19 0 -25z m100 -10 c-3 -7 -5 -2 -5 12 0 14 2
19 5 13 2 -7 2 -19 0 -25z m-1547 -28 c-12 -16 -24 -30 -26 -30 -3 0 4 14 16
30 12 17 24 30 26 30 3 0 -4 -13 -16 -30z m1437 -2 c-3 -8 -6 -5 -6 6 -1 11 2
17 5 13 3 -3 4 -12 1 -19z m100 -10 c-3 -8 -6 -5 -6 6 -1 11 2 17 5 13 3 -3 4
-12 1 -19z m-4477 8 c0 -2 -8 -10 -17 -17 -16 -13 -17 -12 -4 4 13 16 21 21
21 13z m4465 -63 c-3 -21 -11 -42 -17 -48 -8 -7 -9 -4 -4 10 4 11 10 32 13 48
3 15 8 27 10 27 3 0 2 -17 -2 -37z m-2041 -45 c-38 -40 -86 -93 -107 -118 -36
-42 -36 -42 3 10 53 70 152 178 164 179 5 1 -22 -32 -60 -71z m1937 41 c-5
-13 -10 -19 -10 -12 -1 15 10 45 15 40 3 -2 0 -15 -5 -28z m-4521 -129 c-45
-55 -86 -103 -92 -106 -11 -7 101 134 145 184 48 52 22 15 -53 -78z m4507 78
c-3 -8 -6 -5 -6 6 -1 11 2 17 5 13 3 -3 4 -12 1 -19z m-2119 -63 c-44 -60 -63
-75 -27 -22 23 33 60 77 65 77 2 0 -15 -25 -38 -55z m581 -12 c-12 -21 -27
-42 -32 -48 -11 -11 9 29 31 63 24 37 25 25 1 -15z m1510 -32 c-7 -23 -14 -39
-16 -37 -3 2 1 23 8 45 7 23 14 39 16 37 3 -2 -1 -23 -8 -45z m108 17 c-3 -7
-5 -2 -5 12 0 14 2 19 5 13 2 -7 2 -19 0 -25z m-1527 -28 c-6 -11 -13 -20 -16
-20 -2 0 0 9 6 20 6 11 13 20 16 20 2 0 0 -9 -6 -20z m1514 -24 c-3 -15 -8
-25 -11 -23 -2 3 -1 17 3 31 3 15 8 25 11 23 2 -3 1 -17 -3 -31z m-2250 -14
c-9 -16 -25 -39 -36 -53 l-20 -24 16 28 c28 48 48 77 53 77 2 0 -3 -13 -13
-28z m581 -31 c-21 -43 -29 -39 -8 4 9 19 18 33 21 31 2 -2 -4 -18 -13 -35z
m52 -120 c-34 -71 -64 -127 -66 -125 -5 5 116 254 123 254 3 0 -23 -58 -57
-129z m1589 83 c-8 -21 -15 -34 -15 -28 -1 15 20 76 25 71 2 -2 -2 -21 -10
-43z m-2152 -12 c-9 -16 -25 -39 -36 -53 l-19 -24 12 25 c13 27 51 80 56 80 2
0 -3 -13 -13 -28z m2043 -4 c-3 -8 -6 -5 -6 6 -1 11 2 17 5 13 3 -3 4 -12 1
-19z m-1566 -11 c-10 -9 -11 -8 -5 6 3 10 9 15 12 12 3 -3 0 -11 -7 -18z
m-621 -27 c-6 -11 -13 -20 -16 -20 -2 0 0 9 6 20 6 11 13 20 16 20 2 0 0 -9
-6 -20z m-2410 7 c0 -2 -12 -14 -27 -28 l-28 -24 24 28 c23 25 31 32 31 24z
m4679 -41 c-6 -21 -12 -36 -14 -34 -3 2 0 21 6 42 6 21 12 36 14 34 3 -2 0
-21 -6 -42z m-115 -35 c-10 -28 -19 -49 -21 -47 -2 2 3 27 13 55 9 29 18 50
20 48 3 -2 -3 -27 -12 -56z m-2079 -1 c-9 -16 -18 -30 -21 -30 -2 0 2 14 11
30 9 17 18 30 21 30 2 0 -2 -13 -11 -30z m-2453 -37 c-22 -27 -55 -61 -73 -78
-18 -16 -2 5 36 48 75 84 101 105 37 30z m4619 -4 c-5 -13 -10 -19 -10 -12 -1
15 10 45 15 40 3 -2 0 -15 -5 -28z m-2311 -9 c-6 -11 -13 -20 -16 -20 -2 0 0
9 6 20 6 11 13 20 16 20 2 0 0 -9 -6 -20z m-2460 -3 c0 -2 -19 -21 -42 -42
l-43 -40 40 43 c36 39 45 47 45 39z m2560 -27 c-6 -11 -13 -20 -16 -20 -2 0 0
9 6 20 6 11 13 20 16 20 2 0 0 -9 -6 -20z m2086 -26 c-8 -21 -15 -34 -15 -28
-1 15 20 76 25 71 2 -2 -2 -21 -10 -43z m105 9 c-12 -20 -14 -14 -5 12 4 9 9
14 11 11 3 -2 0 -13 -6 -23z m-1592 -42 c-6 -18 -13 -30 -15 -28 -2 2 1 18 7
36 6 18 13 30 15 28 2 -2 -1 -18 -7 -36z m-626 14 c-3 -9 -8 -14 -10 -11 -3 3
-2 9 2 15 9 16 15 13 8 -4z m-148 -65 c-14 -27 -28 -50 -30 -50 -3 0 6 23 20
50 14 28 28 50 30 50 3 0 -6 -22 -20 -50z m646 -11 c-11 -30 -20 -49 -20 -43
-1 15 30 106 35 101 2 -2 -5 -28 -15 -58z m-541 -9 c-11 -22 -23 -40 -25 -40
-3 0 4 18 15 40 11 22 23 40 25 40 3 0 -4 -18 -15 -40z m628 -48 c-12 -40 -23
-70 -25 -68 -3 2 5 36 17 76 12 40 23 70 25 68 2 -2 -6 -36 -17 -76z m1593 47
c-5 -13 -10 -19 -10 -12 -1 15 10 45 15 40 3 -2 0 -15 -5 -28z m-141 -105
c-16 -43 -29 -74 -30 -67 0 16 52 155 56 150 2 -2 -9 -39 -26 -83z m121 45
c-5 -13 -10 -19 -10 -12 -1 15 10 45 15 40 3 -2 0 -15 -5 -28z m-2256 -39
c-14 -27 -28 -50 -30 -50 -3 0 6 23 20 50 14 28 28 50 30 50 3 0 -6 -22 -20
-50z m-121 -5 c-9 -14 -18 -25 -21 -25 -5 0 5 18 20 38 17 22 18 13 1 -13z
m-2564 11 c0 -2 -8 -10 -17 -17 -16 -13 -17 -12 -4 4 13 16 21 21 21 13z
m4911 -53 c-12 -20 -14 -14 -5 12 4 9 9 14 11 11 3 -2 0 -13 -6 -23z m-2410
-51 c-22 -31 -66 -82 -98 -112 l-57 -55 60 65 c33 36 75 86 93 113 17 26 34
47 37 47 3 0 -13 -26 -35 -58z m-2614 -1 c-29 -27 -53 -48 -55 -46 -4 4 91 94
100 95 3 0 -17 -22 -45 -49z m3337 5 c-3 -15 -8 -25 -11 -23 -2 3 -1 17 3 31
3 15 8 25 11 23 2 -3 1 -17 -3 -31z m103 12 c-3 -8 -6 -5 -6 6 -1 11 2 17 5
13 3 -3 4 -12 1 -19z m1557 -42 c-9 -26 -18 -45 -20 -43 -2 2 3 25 12 51 9 26
18 45 20 43 2 -2 -3 -25 -12 -51z m-1567 -8 c-3 -7 -5 -2 -5 12 0 14 2 19 5
13 2 -7 2 -19 0 -25z m1452 -17 c-6 -18 -13 -30 -15 -28 -2 2 1 18 7 36 6 18
13 30 15 28 2 -2 -1 -18 -7 -36z m-4954 -10 c-3 -5 -24 -24 -48 -41 l-42 -32
45 41 c45 41 56 49 45 32z m2744 -33 c-42 -52 -131 -141 -170 -168 -16 -12 22
30 84 93 61 63 114 115 115 116 2 1 -11 -18 -29 -41z m648 10 c-3 -8 -6 -5 -6
6 -1 11 2 17 5 13 3 -3 4 -12 1 -19z m1644 -29 c-5 -13 -10 -19 -10 -12 -1 15
10 45 15 40 3 -2 0 -15 -5 -28z m-1554 -26 c-3 -10 -5 -2 -5 17 0 19 2 27 5
18 2 -10 2 -26 0 -35z m1429 -24 c-14 -35 -25 -59 -26 -52 0 15 42 124 47 120
2 -2 -8 -33 -21 -68z m-1529 29 c-3 -7 -5 -2 -5 12 0 14 2 19 5 13 2 -7 2 -19
0 -25z m-3491 -16 c-2 -4 -26 -23 -53 -41 -55 -39 -47 -27 12 18 42 32 49 36
41 23z m2634 -16 c0 -2 -8 -10 -17 -17 -16 -13 -17 -12 -4 4 13 16 21 21 21
13z m845 -56 c-4 -28 -9 -49 -12 -47 -2 3 -1 28 3 56 4 28 9 50 11 47 3 -3 2
-28 -2 -56z m102 13 c-3 -10 -5 -2 -5 17 0 19 2 27 5 18 2 -10 2 -26 0 -35z
m1532 8 c-6 -18 -13 -30 -15 -28 -2 2 1 18 7 36 6 18 13 30 15 28 2 -2 -1 -18
-7 -36z m-5012 1 c-10 -10 -38 -33 -65 -51 -45 -32 -36 -22 38 40 40 33 51 37
27 11z m2438 -32 c-3 -5 -12 -10 -18 -10 -7 0 -6 4 3 10 19 12 23 12 15 0z
m1029 -107 c-6 -103 -20 -153 -44 -153 -6 0 -1 9 10 20 15 15 20 33 20 78 0
60 10 162 16 162 2 0 1 -48 -2 -107z m1407 46 c-11 -30 -20 -49 -20 -43 -1 15
30 106 35 101 2 -2 -5 -28 -15 -58z m-2491 37 c-14 -8 -41 -16 -60 -20 -28 -5
-25 -2 15 13 60 22 79 25 45 7z m2586 -62 c-14 -38 -25 -64 -25 -58 -1 15 40
136 45 131 2 -2 -7 -35 -20 -73z m-5165 19 c13 -16 12 -17 -3 -4 -10 7 -18 15
-18 17 0 8 8 3 21 -13z m79 12 c0 -2 -13 -11 -30 -20 -38 -19 -40 -11 -2 9 31
17 32 18 32 11z m2355 -11 c-27 -8 -77 -26 -109 -39 -33 -14 -61 -23 -63 -21
-10 9 171 74 207 74 8 0 -7 -7 -35 -14z m215 -39 c-14 -8 -29 -14 -35 -14 -5
0 1 6 15 14 14 8 30 14 35 14 6 0 -1 -6 -15 -14z m-60 -25 c-8 -5 -22 -9 -30
-9 -10 0 -8 3 5 9 27 12 43 12 25 0z m2451 -21 c-5 -13 -10 -19 -10 -12 -1 15
10 45 15 40 3 -2 0 -15 -5 -28z m-2831 -13 c0 -2 -8 -10 -17 -17 -16 -13 -17
-12 -4 4 13 16 21 21 21 13z m2911 -57 c-11 -30 -20 -49 -20 -43 -1 15 30 106
35 101 2 -2 -5 -28 -15 -58z m-2770 16 c-62 -27 -161 -106 -202 -161 -50 -65
-62 -72 -20 -10 49 71 199 186 241 186 8 -1 0 -7 -19 -15z m46 -137 c-2 -24
-4 -5 -4 42 0 47 2 66 4 43 2 -24 2 -62 0 -85z m1179 95 c-7 -7 -26 7 -26 19
0 6 6 6 15 -2 9 -7 13 -15 11 -17z m1421 -55 c-3 -8 -6 -5 -6 6 -1 11 2 17 5
13 3 -3 4 -12 1 -19z m92 -37 c-7 -28 -15 -49 -17 -46 -2 2 2 27 9 54 7 28 15
49 17 46 2 -2 -2 -27 -9 -54z m-2592 -28 c-2 -16 -4 -5 -4 22 0 28 2 40 4 28
2 -13 2 -35 0 -50z m2490 25 c-3 -8 -6 -5 -6 6 -1 11 2 17 5 13 3 -3 4 -12 1
-19z m-16 -64 c-5 -16 -10 -21 -10 -12 -1 18 10 51 15 45 2 -1 -1 -16 -5 -33z
m-2988 -22 c-16 -27 -36 -59 -46 -73 -11 -15 -10 -9 4 16 38 69 60 105 65 105
2 0 -8 -22 -23 -48z m424 1 c-3 -10 -5 -4 -5 12 0 17 2 24 5 18 2 -7 2 -21 0
-30z m100 -25 c-2 -13 -4 -5 -4 17 -1 22 1 32 4 23 2 -10 2 -28 0 -40z m2560
20 c-3 -8 -6 -5 -6 6 -1 11 2 17 5 13 3 -3 4 -12 1 -19z m-110 -40 c-3 -7 -5
-2 -5 12 0 14 2 19 5 13 2 -7 2 -19 0 -25z m89 -83 c-8 -49 -14 -77 -15 -62
-1 34 21 175 26 162 2 -6 -3 -50 -11 -100z m-2618 10 c0 -16 -2 -15 -8 5 -4
14 -8 36 -8 50 0 22 1 22 8 -5 4 -16 8 -39 8 -50z m96 25 c3 -19 14 -69 25
-110 11 -41 18 -76 16 -78 -4 -4 -8 10 -30 93 -18 67 -30 143 -22 135 3 -3 8
-21 11 -40z m2423 -2 c-3 -7 -5 -2 -5 12 0 14 2 19 5 13 2 -7 2 -19 0 -25z
m-3036 -31 c-10 -9 -11 -8 -5 6 3 10 9 15 12 12 3 -3 0 -11 -7 -18z m3026 -34
c-3 -10 -5 -4 -5 12 0 17 2 24 5 18 2 -7 2 -21 0 -30z m-3077 -60 c-40 -73
-78 -129 -50 -73 30 60 82 150 87 150 3 0 -14 -35 -37 -77z m620 -94 c10 -31
30 -81 44 -113 14 -31 23 -56 20 -56 -17 0 -100 233 -109 302 -4 34 -2 31 10
-17 9 -33 24 -85 35 -116z m-490 123 c0 -5 -7 -17 -15 -28 -14 -18 -14 -17 -4
9 12 27 19 34 19 19z m2937 -94 c-2 -18 -4 -6 -4 27 0 33 2 48 4 33 2 -15 2
-42 0 -60z m100 15 c-3 -10 -5 -2 -5 17 0 19 2 27 5 18 2 -10 2 -26 0 -35z
m-3113 -60 c-46 -87 -83 -141 -49 -73 32 64 87 160 91 160 3 0 -16 -39 -42
-87z m699 -50 c19 -46 33 -83 31 -83 -6 0 -58 114 -69 151 -13 43 2 16 38 -68z
m2404 -45 c-2 -24 -4 -7 -4 37 0 44 2 63 4 43 2 -21 2 -57 0 -80z m-3242 52
c-14 -27 -28 -50 -30 -50 -3 0 6 23 20 50 14 28 28 50 30 50 3 0 -6 -22 -20
-50z m59 -101 c-45 -89 -253 -429 -261 -429 -5 0 14 31 82 140 23 36 74 122
114 193 41 70 75 127 77 127 3 0 -3 -14 -12 -31z m-114 1 c-6 -11 -13 -20 -16
-20 -2 0 0 9 6 20 6 11 13 20 16 20 2 0 0 -9 -6 -20z m3207 -42 c-2 -13 -4 -3
-4 22 0 25 2 35 4 23 2 -13 2 -33 0 -45z m-2213 -55 c4 -7 5 -13 3 -13 -7 0
-67 95 -67 105 0 7 27 -32 64 -92z m2324 -13 c0 -16 -3 -11 -9 15 -4 22 -8 51
-7 65 0 16 3 11 9 -15 4 -22 8 -51 7 -65z m-2400 -52 c8 -10 11 -18 6 -18 -5
0 -16 10 -23 23 -28 45 -71 125 -71 134 0 4 17 -21 37 -57 20 -36 43 -73 51
-82z m2299 40 c-2 -13 -4 -5 -4 17 -1 22 1 32 4 23 2 -10 2 -28 0 -40z m-2144
-85 c36 -49 73 -97 84 -108 22 -24 101 -134 86 -120 -17 15 -223 278 -234 298
-22 38 2 12 64 -70z m2285 -38 c10 -33 27 -77 36 -97 9 -21 14 -38 12 -38 -14
0 -88 205 -85 235 1 10 4 2 37 -100z m-99 -40 c-2 -17 -38 99 -38 120 0 11 9
-9 19 -45 11 -36 19 -69 19 -75z m-3369 98 c0 -5 -10 -19 -21 -33 l-21 -25 18
33 c18 32 24 38 24 25z m1229 -252 c50 -66 14 -29 -55 59 -75 94 -134 176
-134 185 0 6 74 -90 189 -244z m-1298 142 c-5 -10 -17 -27 -26 -38 -16 -19
-17 -19 -3 5 26 46 29 50 34 50 3 0 0 -8 -5 -17z m3475 -90 c-4 -4 -36 73 -35
85 0 4 9 -13 20 -37 11 -24 18 -46 15 -48z m154 -65 c17 -32 29 -58 26 -58 -6
0 -66 105 -66 115 0 13 6 4 40 -57z m-132 27 c-3 -3 -9 2 -12 12 -6 14 -5 15
5 6 7 -7 10 -15 7 -18z m-2040 -55 c13 -16 19 -30 14 -30 -4 0 -16 14 -25 30
-10 17 -16 30 -14 30 2 0 13 -13 25 -30z m2092 -42 c24 -40 59 -95 79 -123 20
-27 30 -46 24 -42 -14 9 -111 154 -137 205 -30 58 -9 34 34 -40z m-2195 6 c9
-15 12 -23 6 -20 -11 7 -35 46 -28 46 3 0 12 -12 22 -26z m145 -34 c12 -16 19
-30 16 -30 -2 0 -14 14 -26 30 -12 17 -19 30 -16 30 2 0 14 -13 26 -30z m2200
-17 c27 -41 27 -43 5 -18 -28 32 -49 65 -41 65 3 0 19 -21 36 -47z m-3850 33
c0 -2 -8 -10 -17 -17 -16 -13 -17 -12 -4 4 13 16 21 21 21 13z m1541 -33 c13
-16 12 -17 -3 -4 -10 7 -18 15 -18 17 0 8 8 3 21 -13z m23 -39 c3 -8 2 -12 -4
-9 -6 3 -10 10 -10 16 0 14 7 11 14 -7z m146 -55 c41 -80 30 -75 -13 6 -19 35
-30 62 -26 59 5 -3 23 -32 39 -65z m-1676 6 c-9 -14 -18 -25 -21 -25 -5 0 5
18 20 38 17 22 18 13 1 -13z m1556 5 c6 -11 8 -20 6 -20 -3 0 -10 9 -16 20 -6
11 -8 20 -6 20 3 0 10 -9 16 -20z m-1690 -17 c-1 -5 -17 -26 -37 -48 -38 -43
-34 -28 7 23 27 33 30 36 30 25z m1750 -97 c0 -12 -5 -7 -19 24 -11 24 -11 24
3 6 9 -11 16 -24 16 -30z m2331 27 c13 -16 12 -17 -3 -4 -10 7 -18 15 -18 17
0 8 8 3 21 -13z m-2200 -59 c16 -37 28 -69 26 -71 -2 -2 -18 28 -35 67 -17 38
-29 70 -26 70 3 0 18 -30 35 -66z m-1984 8 c-23 -25 -21 -49 3 -64 26 -17 26
-32 0 -18 -29 15 -36 56 -15 80 10 11 20 20 23 20 3 0 -2 -8 -11 -18z m1893
-56 c0 -12 -5 -7 -19 24 -11 24 -11 24 3 6 9 -11 16 -24 16 -30z m-1800 -5
c-10 -20 -47 -37 -57 -27 -4 3 0 6 9 6 8 0 23 9 33 20 23 25 29 26 15 1z
m4316 -141 c49 -52 76 -84 60 -70 -35 30 -119 119 -171 180 -47 55 -9 17 111
-110z m-2368 55 c-3 -3 -9 2 -12 12 -6 14 -5 15 5 6 7 -7 10 -15 7 -18z m2182
-10 c19 -19 32 -35 29 -35 -3 0 -20 16 -39 35 -19 19 -32 35 -29 35 3 0 20
-16 39 -35z m-2282 -10 c-3 -3 -9 2 -12 12 -6 14 -5 15 5 6 7 -7 10 -15 7 -18z
m2363 -71 c18 -19 27 -32 18 -29 -14 5 -65 65 -56 65 2 0 19 -16 38 -36z
m-2141 -209 c52 -141 66 -183 57 -175 -3 3 -24 55 -45 115 -22 61 -44 121 -50
135 -44 109 -52 130 -51 137 1 13 38 -75 89 -212z m-141 85 c0 -17 -23 34 -33
71 -3 13 3 6 13 -16 11 -22 20 -47 20 -55z m2401 -7 c0 -8 -9 0 -50 45 l-45
47 48 -45 c26 -24 47 -45 47 -47z m115 37 c16 -16 26 -30 23 -30 -3 0 -20 14
-38 30 -18 17 -28 30 -23 30 5 0 22 -13 38 -30z m-35 -123 c-3 -2 -20 15 -39
37 l-35 41 39 -37 c22 -21 37 -39 35 -41z m111 41 l23 -33 -27 24 c-15 14 -27
28 -27 33 0 15 8 8 31 -24z m-2557 -38 c5 -17 4 -20 -2 -10 -5 8 -13 26 -16
40 -5 17 -4 20 2 10 5 -8 13 -26 16 -40z m2796 -222 c0 -4 -4 -8 -10 -8 -5 0
-10 6 -10 13 0 8 -43 61 -96 118 l-96 104 106 -109 c58 -61 106 -113 106 -118z
m-2771 152 c0 -10 -3 -8 -9 5 -12 27 -12 43 0 25 5 -8 9 -22 9 -30z m21 -55
c0 -5 -5 -3 -10 5 -5 8 -10 20 -10 25 0 6 5 3 10 -5 5 -8 10 -19 10 -25z m156
-162 c-5 -5 -36 86 -35 101 0 6 9 -13 20 -43 10 -30 17 -56 15 -58z m-102 7
c5 -17 4 -20 -2 -10 -5 8 -13 26 -16 40 -5 17 -4 20 2 10 5 -8 13 -26 16 -40z
m2581 39 c11 -16 1 -19 -13 -3 -7 8 -8 14 -3 14 5 0 13 -5 16 -11z m85 -29
c-30 -24 -31 -24 -56 -4 -18 15 -18 15 3 4 23 -11 63 4 63 24 0 5 3 6 7 2 4
-4 -3 -16 -17 -26z m-2521 -130 c0 -8 -9 8 -19 35 -11 28 -20 55 -19 60 0 15
38 -78 38 -95z m-120 50 c6 -19 7 -30 2 -25 -5 6 -13 24 -17 40 -9 39 0 30 15
-15z m30 -95 c0 -5 -4 -3 -9 5 -5 8 -9 22 -9 30 0 16 17 -16 18 -35z m110 -25
c0 -9 -4 -8 -9 5 -5 11 -9 27 -9 35 0 9 4 8 9 -5 5 -11 9 -27 9 -35z m-81 -65
c0 -5 -6 4 -13 20 -8 17 -14 37 -14 45 0 8 7 -1 14 -20 7 -19 13 -39 13 -45z
m42 -70 c11 -3 28 -1 40 5 12 6 20 7 20 1 0 -5 -14 -13 -32 -16 -26 -6 -35 -3
-50 15 -10 12 -18 30 -17 39 0 9 5 4 10 -11 6 -15 19 -30 29 -33z"/>
<path d="M4225 8110 c-10 -11 -13 -20 -7 -20 6 0 16 9 22 20 6 11 9 20 7 20
-2 0 -12 -9 -22 -20z"/>
<path d="M6272 7654 c-20 -19 -28 -31 -17 -26 22 11 73 62 62 62 -4 0 -24 -16
-45 -36z"/>
<path d="M2543 6413 c-15 -5 -17 -23 -4 -23 5 0 11 7 15 15 3 8 4 15 3 14 -1
0 -8 -3 -14 -6z"/>
<path d="M7380 4413 c0 -5 9 -18 20 -28 11 -10 20 -14 20 -8 0 5 -9 18 -20 28
-11 10 -20 14 -20 8z"/>
</g>
</svg>
