<?xml version="1.0" standalone="no"?>
<!DOCTYPE svg PUBLIC "-//W3C//DTD SVG 20010904//EN"
 "http://www.w3.org/TR/2001/REC-SVG-20010904/DTD/svg10.dtd">
<svg version="1.0" xmlns="http://www.w3.org/2000/svg"
 width="1024.000000pt" height="1024.000000pt" viewBox="0 0 1024.000000 1024.000000"
 preserveAspectRatio="xMidYMid meet">

<g transform="translate(0.000000,1024.000000) scale(0.100000,-0.100000)"
fill="#000000" stroke="none">
<path d="M5191 8289 c-13 -12 -47 -58 -76 -103 -152 -233 -206 -386 -206 -585
-1 -175 27 -264 151 -481 39 -69 79 -154 90 -189 49 -157 3 -347 -147 -598
-61 -103 -70 -141 -40 -186 20 -31 74 -44 107 -27 25 13 113 145 163 245 150
300 153 556 9 803 -133 228 -159 311 -149 466 4 50 13 112 21 139 25 80 90
209 160 317 41 64 66 114 66 131 0 69 -99 115 -149 68z m86 -5 c-3 -3 -12 -4
-19 -1 -8 3 -5 6 6 6 11 1 17 -2 13 -5z m42 -38 c-3 -3 -11 5 -18 17 -13 21
-12 21 5 5 10 -10 16 -20 13 -22z m-292 -2112 c-3 -3 -12 -4 -19 -1 -8 3 -5 6
6 6 11 1 17 -2 13 -5z"/>
<path d="M5869 7996 c-57 -32 -190 -263 -218 -378 -16 -66 -14 -193 4 -263 20
-77 61 -164 128 -273 139 -226 133 -334 -28 -553 -34 -47 -45 -70 -45 -98 0
-63 57 -104 117 -84 32 11 78 68 147 183 68 112 86 173 86 289 0 120 -24 192
-108 329 -113 185 -138 256 -130 371 6 80 42 162 120 276 70 103 77 135 40
175 -32 36 -77 46 -113 26z m120 -60 c-3 -3 -11 5 -18 17 -13 21 -12 21 5 5
10 -10 16 -20 13 -22z"/>
<path d="M4363 7985 c-30 -21 -142 -198 -175 -277 -41 -97 -53 -209 -34 -316
16 -93 53 -178 140 -322 126 -210 124 -292 -17 -515 -68 -106 -73 -141 -28
-186 36 -36 79 -38 115 -6 34 29 149 223 176 293 33 88 36 184 11 284 -20 79
-49 140 -144 294 -58 94 -80 174 -75 270 5 96 29 156 118 291 35 53 60 102 60
117 0 15 -12 40 -26 57 -20 24 -34 31 -63 31 -20 0 -46 -7 -58 -15z m-53
-1618 l35 -4 -36 -1 c-24 -1 -41 4 -50 16 -12 15 -12 15 1 5 8 -6 31 -13 50
-16z"/>
<path d="M7575 7163 c-39 -8 -130 -47 -170 -71 -106 -66 -225 -194 -329 -355
-67 -103 -114 -200 -151 -317 -36 -111 -45 -296 -21 -410 30 -143 138 -322
243 -402 33 -25 42 -37 37 -53 -9 -30 -133 -395 -310 -910 l-158 -460 0 -100
c-1 -98 0 -103 34 -159 99 -165 312 -221 467 -123 54 34 112 101 138 162 22
49 106 455 250 1215 31 162 59 298 63 301 4 4 25 12 47 19 199 63 370 229 454
441 108 270 88 634 -48 914 -104 213 -253 317 -450 314 -42 -1 -85 -3 -96 -6z
m221 -206 c98 -50 176 -169 230 -352 25 -82 27 -105 27 -260 1 -198 -15 -273
-83 -404 -76 -147 -225 -257 -382 -283 -271 -45 -518 201 -518 516 0 279 277
717 504 798 69 25 155 19 222 -15z m-321 -1501 c-2 -6 -29 -141 -60 -301 -155
-795 -215 -1087 -233 -1128 -35 -79 -134 -110 -211 -66 -20 11 -44 32 -55 46
-42 57 -38 77 124 553 84 245 186 549 227 675 42 127 80 235 84 241 11 14 128
-5 124 -20z m72 -488 c-3 -8 -6 -5 -6 6 -1 11 2 17 5 13 3 -3 4 -12 1 -19z
m-160 -820 c-3 -8 -6 -5 -6 6 -1 11 2 17 5 13 3 -3 4 -12 1 -19z"/>
<path d="M2373 7052 c-30 -5 -63 -48 -63 -84 0 -30 195 -328 436 -664 67 -94
132 -190 144 -214 33 -65 29 -127 -14 -237 -53 -136 -51 -169 21 -274 70 -104
321 -439 694 -929 379 -498 392 -517 392 -574 0 -88 -78 -149 -161 -127 -21 6
-46 19 -54 28 -16 19 -65 95 -296 463 -74 118 -174 276 -222 350 -47 74 -126
198 -174 275 -234 372 -363 565 -383 574 -13 6 -57 8 -107 4 -104 -7 -160 7
-215 53 -37 32 -184 234 -565 776 -26 37 -55 72 -66 78 -58 31 -130 -9 -130
-73 0 -28 26 -73 138 -233 283 -410 438 -628 475 -670 69 -79 225 -131 350
-117 33 4 47 2 47 -6 0 -7 41 -76 90 -153 50 -77 89 -142 88 -143 -2 -2 -32
-26 -68 -55 -101 -80 -247 -227 -312 -314 -77 -103 -162 -278 -188 -386 -73
-301 -5 -606 195 -872 168 -222 434 -433 725 -575 109 -53 120 -61 217 -163
173 -182 319 -289 548 -400 224 -110 435 -174 720 -221 167 -27 561 -37 769
-20 326 28 602 96 856 211 261 119 428 236 611 428 93 98 116 116 185 149 337
159 646 408 801 646 63 96 128 237 155 337 20 73 23 107 22 245 0 145 -3 169
-28 250 -45 146 -139 332 -209 412 -38 43 -91 46 -131 7 -42 -43 -36 -81 33
-186 364 -551 91 -1138 -714 -1541 -206 -103 -542 -216 -815 -276 -359 -78
-631 -105 -1055 -105 -368 0 -627 22 -920 80 -875 172 -1508 542 -1731 1009
-59 125 -77 205 -77 345 1 283 132 521 421 762 45 38 87 68 92 66 5 -2 64 -91
132 -198 68 -107 167 -262 219 -345 53 -82 146 -229 207 -326 166 -263 189
-291 263 -328 116 -58 237 -39 345 53 22 19 53 58 69 87 27 48 30 63 30 139
-1 71 -5 94 -28 140 -23 49 -183 266 -463 631 -49 65 -137 180 -196 257 -59
77 -108 145 -110 151 -5 21 339 141 577 200 152 37 297 65 450 85 66 9 156 21
200 27 127 17 721 23 892 10 457 -37 915 -131 1221 -252 91 -36 135 -37 167
-4 34 33 35 96 2 129 -26 26 -202 90 -402 147 -766 217 -1761 236 -2533 49
-233 -57 -511 -148 -688 -226 -9 -4 -92 101 -203 258 l-33 47 33 78 c32 73 34
85 34 188 0 159 3 153 -301 580 -74 105 -178 254 -230 333 -52 78 -96 142 -97
142 -1 0 -16 4 -32 8 -17 4 -40 6 -52 4z m445 -567 c-3 -3 -9 2 -12 12 -6 14
-5 15 5 6 7 -7 10 -15 7 -18z m163 -222 c13 -16 12 -17 -3 -4 -10 7 -18 15
-18 17 0 8 8 3 21 -13z m1942 -520 c-7 -2 -19 -2 -25 0 -7 3 -2 5 12 5 14 0
19 -2 13 -5z m-390 -30 c-7 -2 -19 -2 -25 0 -7 3 -2 5 12 5 14 0 19 -2 13 -5z
m1214 1 c-3 -3 -12 -4 -19 -1 -8 3 -5 6 6 6 11 1 17 -2 13 -5z m66 -11 c-7 -2
-19 -2 -25 0 -7 3 -2 5 12 5 14 0 19 -2 13 -5z m-1466 -9 c-3 -3 -12 -4 -19
-1 -8 3 -5 6 6 6 11 1 17 -2 13 -5z m1520 0 c-3 -3 -12 -4 -19 -1 -8 3 -5 6 6
6 11 1 17 -2 13 -5z m-1694 -31 c-7 -2 -19 -2 -25 0 -7 3 -2 5 12 5 14 0 19
-2 13 -5z m-196 -39 c-3 -3 -12 -4 -19 -1 -8 3 -5 6 6 6 11 1 17 -2 13 -5z
m-40 -10 c-3 -3 -12 -4 -19 -1 -8 3 -5 6 6 6 11 1 17 -2 13 -5z m2950 -236
c-3 -8 -6 -5 -6 6 -1 11 2 17 5 13 3 -3 4 -12 1 -19z m-3726 -125 c13 -16 12
-17 -3 -4 -10 7 -18 15 -18 17 0 8 8 3 21 -13z m-213 -288 c-3 -3 -9 2 -12 12
-6 14 -5 15 5 6 7 -7 10 -15 7 -18z m4843 -152 c13 -16 12 -17 -3 -4 -10 7
-18 15 -18 17 0 8 8 3 21 -13z m-4117 -719 c3 -8 2 -12 -4 -9 -6 3 -10 10 -10
16 0 14 7 11 14 -7z m97 -141 c13 -16 12 -17 -3 -4 -17 13 -22 21 -14 21 2 0
10 -8 17 -17z m-51 -139 c0 -2 -9 0 -20 6 -11 6 -20 13 -20 16 0 2 9 0 20 -6
11 -6 20 -13 20 -16z m-1105 -254 c10 -11 16 -20 13 -20 -3 0 -13 9 -23 20
-10 11 -16 20 -13 20 3 0 13 -9 23 -20z m4600 -350 c-3 -5 -12 -10 -18 -10 -7
0 -6 4 3 10 19 12 23 12 15 0z m-2768 -466 c-3 -3 -12 -4 -19 -1 -8 3 -5 6 6
6 11 1 17 -2 13 -5z m-592 -44 c135 -39 449 -103 610 -124 653 -85 1371 -39
1930 124 76 22 140 39 142 36 6 -6 -98 -76 -187 -124 -254 -139 -569 -231
-911 -268 -209 -22 -595 -15 -790 15 -225 35 -493 118 -680 211 -79 40 -257
148 -265 162 -8 13 4 10 151 -32z m873 13 c-10 -2 -28 -2 -40 0 -13 2 -5 4 17
4 22 1 32 -1 23 -4z m2042 -6 c0 -2 -12 -14 -27 -28 l-28 -24 24 28 c23 25 31
32 31 24z m-493 -23 c-3 -3 -12 -4 -19 -1 -8 3 -5 6 6 6 11 1 17 -2 13 -5z"/>
<path d="M2005 6798 c-32 -17 -45 -39 -45 -79 0 -31 28 -75 197 -315 108 -153
223 -317 255 -364 78 -112 109 -140 154 -140 42 0 94 45 94 82 0 31 -6 40
-266 404 -126 175 -242 337 -257 360 -39 58 -87 77 -132 52z m62 -14 c-3 -3
-12 -4 -19 -1 -8 3 -5 6 6 6 11 1 17 -2 13 -5z"/>
<path d="M4920 5294 c-241 -20 -310 -28 -410 -45 -274 -47 -606 -143 -656
-190 -47 -44 -20 -140 44 -153 18 -4 71 9 160 38 174 59 308 91 500 121 631
98 1283 27 1810 -197 104 -44 141 -44 168 -2 9 13 16 40 16 61 0 50 -33 77
-159 130 -272 114 -557 184 -883 217 -145 15 -505 27 -590 20z m597 -40 c-3
-3 -12 -4 -19 -1 -8 3 -5 6 6 6 11 1 17 -2 13 -5z m-960 -20 c-3 -3 -12 -4
-19 -1 -8 3 -5 6 6 6 11 1 17 -2 13 -5z m1980 -321 c-3 -10 -5 -4 -5 12 0 17
2 24 5 18 2 -7 2 -21 0 -30z m-2604 10 c-7 -2 -21 -2 -30 0 -10 3 -4 5 12 5
17 0 24 -2 18 -5z"/>
<path d="M3101 4339 c-36 -14 -49 -38 -56 -100 -22 -190 86 -439 271 -622 281
-280 727 -457 1344 -534 203 -25 725 -25 918 0 429 56 754 159 1039 329 159
95 192 146 139 213 -36 44 -84 41 -161 -11 -131 -90 -357 -189 -564 -249 -413
-118 -910 -150 -1396 -90 -425 53 -821 192 -1074 378 -123 89 -243 233 -298
355 -22 47 -27 78 -32 175 -6 114 -7 120 -34 143 -30 25 -56 29 -96 13z m106
-71 c-3 -8 -6 -5 -6 6 -1 11 2 17 5 13 3 -3 4 -12 1 -19z m3490 -634 c-3 -3
-12 -4 -19 -1 -8 3 -5 6 6 6 11 1 17 -2 13 -5z m53 -26 c0 -6 -6 -5 -15 2 -8
7 -15 14 -15 16 0 2 7 1 15 -2 8 -4 15 -11 15 -16z m-1233 -364 c-3 -3 -12 -4
-19 -1 -8 3 -5 6 6 6 11 1 17 -2 13 -5z m-94 -11 c-7 -2 -21 -2 -30 0 -10 3
-4 5 12 5 17 0 24 -2 18 -5z m-226 -9 c-3 -3 -12 -4 -19 -1 -8 3 -5 6 6 6 11
1 17 -2 13 -5z m-1090 -10 c-3 -3 -12 -4 -19 -1 -8 3 -5 6 6 6 11 1 17 -2 13
-5z m1286 -131 c-7 -2 -19 -2 -25 0 -7 3 -2 5 12 5 14 0 19 -2 13 -5z"/>
</g>
</svg>
